<svg width="44" height="46" viewBox="0 0 44 46" fill="none" xmlns="http://www.w3.org/2000/svg">
<path d="M39.6 23.0001C39.6 27.88 37.7457 32.5601 34.4451 36.0108C31.1444 39.4614 26.6678 41.4 22 41.4C17.3322 41.4 12.8556 39.4614 9.55492 36.0108C6.25428 32.5601 4.4 27.88 4.4 23.0001C4.4 18.1201 6.25428 13.44 9.55492 9.98932C12.8556 6.53865 17.3322 4.60009 22 4.60009C23.672 4.60009 25.3 4.85309 26.84 5.31309L30.294 1.7021C27.6635 0.569502 24.8449 -0.00889285 22 0.000103351C19.1109 0.000103351 16.2501 0.595015 13.581 1.75087C10.9118 2.90673 8.48654 4.60089 6.44365 6.73663C2.31785 11.05 0 16.9001 0 23.0001C0 29.1 2.31785 34.9501 6.44365 39.2635C8.48654 41.3992 10.9118 43.0934 13.581 44.2492C16.2501 45.4051 19.1109 46 22 46C27.8348 46 33.4305 43.5768 37.5564 39.2635C41.6822 34.9501 44 29.1 44 23.0001H39.6ZM13.002 18.5841L9.9 21.8501L19.8 32.2L41.8 9.20008L38.698 5.93409L19.8 25.691L13.002 18.5841Z" fill="#F14545"/>
</svg>
