<svg width="400" height="398" viewBox="0 0 400 398" fill="none" xmlns="http://www.w3.org/2000/svg">
<path d="M118.142 206.869C113.579 207.503 109.177 208.988 105.164 211.248C104.536 211.545 103.995 212 103.593 212.567C102.206 215.015 100.933 217.528 99.6206 220.019C96.3635 226.202 93.0823 232.372 89.8645 238.576C88.6025 241.009 87.476 243.512 86.3036 245.991C85.7386 247.185 85.2106 248.397 84.6189 249.705C84.0898 249.815 83.5435 249.812 83.0155 249.698C79.6101 247.864 75.6858 248.64 72.1234 247.487C70.647 247.277 69.1429 247.371 67.7046 247.765C66.9431 247.926 66.1968 248.151 65.4735 248.438C65.3834 248.231 65.3237 248.012 65.296 247.787C65.8814 242.723 65.5821 243.163 70.5042 241.402C72.4988 240.689 74.6206 240.338 76.6563 239.729C78.7202 239.111 78.669 238.814 78.4927 236.69C78.0464 231.313 76.409 226.091 76.5738 220.628C76.4873 218.768 76.238 216.918 75.8288 215.101C75.2168 210.994 74.6189 206.885 73.9615 202.786C73.8331 201.826 73.558 200.891 73.1458 200.014C72.8029 199.243 72.1819 198.63 71.4064 198.297C70.631 197.964 69.7582 197.934 68.962 198.215C67.0872 198.731 65.1756 199.104 63.2439 199.33C62.2067 199.278 61.2237 198.852 60.4776 198.131C59.8167 197.561 59.0092 197.187 58.1465 197.051C57.2838 196.916 56.4004 197.025 55.5963 197.365C51.0177 198.51 49.1315 201.19 49.1046 205.958C48.9362 209.56 49.1142 213.171 49.6363 216.739C50.3606 220.64 50.318 224.679 50.9722 228.597C51.9764 234.611 53.2465 240.583 54.4925 246.554C55.0741 249.342 54.9537 250.013 52.4362 251.492C51.3539 252.009 50.4388 252.82 49.7951 253.831C49.1515 254.842 48.8053 256.013 48.7959 257.211C48.6763 258.447 48.3555 259.655 47.8463 260.787C46.5494 264.278 45.0796 267.708 43.8614 271.225C41.7767 277.244 39.847 283.316 37.8141 289.353C37.4486 290.438 36.8511 291.444 36.4436 292.517C35.3107 295.501 34.0744 298.458 33.1486 301.506C31.6762 306.355 29.61 310.961 27.8031 315.675C25.8059 320.885 24.1167 326.232 22.6263 331.612C20.8301 338.095 19.1642 344.633 17.8769 351.232C17.0379 354.203 17.0696 357.353 17.9681 360.307C18.8667 363.261 20.5946 365.896 22.9469 367.9C26.1946 371.181 29.8007 374.088 33.6978 376.566C36.2269 378.191 38.846 379.673 41.5426 381.004C41.9435 381.194 42.3173 381.451 42.7313 381.602C46.3915 382.932 50.0109 384.402 53.7371 385.515C56.8966 386.415 60.1076 387.125 63.3526 387.64C67.8943 388.417 72.4665 389.022 77.0333 389.646C78.8477 390.037 80.7063 390.183 82.5597 390.083C84.5614 389.786 86.4914 389.125 88.2534 388.131C91.371 386.431 94.1407 384.16 96.4183 381.438C97.8721 379.653 99.0973 377.694 100.066 375.607C102.734 369.82 105.207 363.942 107.747 358.096C107.934 357.692 108.069 357.266 108.149 356.827C108.995 351.365 111.441 346.371 112.754 341.04C114.405 334.335 116.196 327.665 117.967 320.991C118.353 319.539 119.01 318.157 119.372 316.701C121.447 308.359 123.434 299.997 125.533 291.662C126.198 289.022 127.029 286.417 127.931 283.848C128.688 281.853 128.951 279.705 128.699 277.587C128.447 275.469 127.687 273.443 126.484 271.681C126.004 270.936 125.436 270.248 124.899 269.541C122.575 266.486 122.589 266.338 124.538 263.033C126.519 259.674 128.484 256.305 130.388 252.903C133.199 247.882 135.976 242.842 138.718 237.783C139.851 235.699 140.944 233.587 141.911 231.424C142.058 230.768 141.99 230.081 141.717 229.467C140.636 226.104 139.488 222.763 138.386 219.407C138.155 218.746 137.992 218.063 137.899 217.369C137.692 216.362 137.649 215.328 137.771 214.308C138.249 212.245 138.856 210.214 139.59 208.227C140.116 206.821 140.769 205.464 141.54 204.175C141.857 203.699 142.067 203.16 142.155 202.596C142.243 202.031 142.207 201.454 142.05 200.904C141.776 199.508 141.152 198.204 140.237 197.113C139.323 196.022 138.146 195.18 136.817 194.666C135.218 193.924 133.566 193.3 131.876 192.797C130.227 192.529 128.55 192.468 126.886 192.617C126.59 192.661 126.307 192.768 126.056 192.93C125.805 193.093 125.593 193.307 125.433 193.56C123.588 196.868 121.844 200.232 120.047 203.567C119.462 204.652 118.816 205.705 118.142 206.869ZM57.9416 214.374C58.7619 214.139 59.575 213.874 60.404 213.675C62.2811 213.223 64.21 212.934 66.0317 212.323C67.1843 211.808 68.2802 211.175 69.3019 210.434C69.373 209.819 69.2107 209.199 68.847 208.697C68.4834 208.194 67.9446 207.846 67.3369 207.721L67.3413 209.669C65.9172 211.178 65.3917 209.461 64.4865 209.197C64.7007 207.774 66.7565 207.564 65.9989 206.061C67.3697 206.098 68.6978 206.134 70.1907 206.175C69.6226 202.852 66.5245 204.832 65.2352 203.407C66.3552 201.534 66.3552 201.534 68.5241 202.965L69.3132 201.512C70.1344 202.804 70.8519 203.933 71.6451 205.181C69.245 207.094 71.4497 208.376 72.7159 210.089C70.9874 209.991 71.0846 211.092 70.9191 212.017L73.136 213.031C73.4809 215.47 73.8541 217.987 74.1879 220.51C74.4407 222.42 74.7365 224.339 72.9651 225.823C72.7353 226.198 72.5977 226.622 72.5638 227.06L72.536 226.998C73.2713 228.141 73.9684 226.842 75.0668 226.838C74.9316 227.447 74.6749 228.022 74.3122 228.529C73.2565 229.314 73.8674 230.047 74.1987 230.823L74.1644 230.774C74.6379 230.917 75.0418 231.23 75.2986 231.652C75.5554 232.074 75.647 232.576 75.556 233.062C75.655 234.446 75.5384 235.837 75.2102 237.185C74.7251 238.417 70.7398 239.373 69.8933 238.786L69.7382 237.032L67.0657 236.853C67.9689 236.617 68.8092 236.187 69.5272 235.591C70.2451 234.996 70.8232 234.25 71.2203 233.407L65.9316 232.806C67.1207 232.002 68.1071 231.335 69.0938 230.667L68.9434 230.299L64.7935 230.727C65.9672 229.307 68.0414 229.89 69.2238 228.008C66.1052 228.877 62.8843 229.326 59.6466 229.341C58.9668 229.546 58.243 230.032 57.6329 229.017C58.5387 228.344 59.0568 229.129 59.6696 229.396C60.6833 228.97 61.722 228.606 62.78 228.306C64.2224 227.979 65.706 227.834 67.128 227.617C67.6442 224.787 68.1126 222.219 68.6058 219.514L67.188 220.332C66.2132 218.01 66.0045 217.914 63.6441 218.304C62.0732 218.564 60.4965 218.806 58.9136 218.971C58.1004 219.056 57.2815 218.938 57.4057 217.665C59.6245 217.517 61.8273 217.435 64.0137 217.202C65.6962 217.022 67.4274 216.756 67.921 214.672L67.4996 213.813C67.0858 214.185 66.591 214.456 66.0544 214.605C64.4206 213.582 62.8324 214.503 61.2342 214.519C60.1263 214.529 59.017 214.388 57.9082 214.315L58.8481 216.518C58.2257 216.478 57.6088 216.375 57.0067 216.213C56.8348 216.171 56.6762 216.086 56.545 215.968C56.4137 215.849 56.314 215.7 56.2547 215.533C56.1954 215.367 56.1783 215.188 56.2051 215.013C56.2319 214.839 56.3016 214.673 56.408 214.532C56.8959 214.343 57.4255 214.289 57.9416 214.374ZM61.4222 332.084C63.8128 335.819 63.2931 339.93 63.2498 344.111C61.8391 343.735 62.2058 342.771 62.1347 342.062C61.9672 340.393 61.8844 338.715 61.7771 337.04C61.6707 335.38 61.576 333.718 61.4761 332.057C61.124 327.673 60.7581 323.289 60.4367 318.903C60.318 318.339 60.4132 317.751 60.7037 317.253C60.8865 317.164 61.0446 317.031 61.1644 316.867C61.2841 316.703 61.3618 316.512 61.3908 316.311C61.4197 316.11 61.3989 315.905 61.3302 315.714C61.2616 315.522 61.1471 315.351 60.9968 315.214C59.9496 313.072 59.4675 310.698 59.5962 308.318C59.371 304.971 59.1921 301.621 58.9153 298.279C58.405 292.819 58.4448 287.321 59.0342 281.869L59.0568 281.927C58.2781 278.564 58.0961 275.09 58.5188 271.663C60.3214 272.707 61.94 273.787 63.6809 274.61C64.3873 274.876 64.9828 275.373 65.371 276.02C65.7592 276.666 65.9172 277.425 65.8194 278.173C65.6375 282.048 65.5295 285.927 65.3842 290.009L64.4048 288.938C64.2984 289.297 64.2744 289.674 64.3344 290.043C64.3945 290.412 64.5371 290.763 64.7517 291.069C65.059 291.233 65.3053 291.49 65.4543 291.805C65.6033 292.119 65.647 292.472 65.5789 292.813C65.7801 294.928 65.8961 297.052 66.0205 299.174C66.1555 299.688 66.1273 300.232 65.9398 300.729C64.08 302.546 65.2794 304.459 65.6142 306.353C65.8724 307.547 66.0641 308.754 66.1885 309.969C66.4738 314.472 66.6998 318.979 66.9138 323.486C66.9528 324.305 66.832 325.132 66.7583 326.423L65.0246 324.337C65.2004 325.681 64.2729 326.989 65.7027 328.368C66.6112 329.692 67.1858 331.216 67.3774 332.809C67.6537 333.818 67.5763 334.919 67.7816 335.954C67.9212 336.416 67.9442 336.906 67.8486 337.379C67.753 337.852 67.5418 338.294 67.2338 338.666C66.8003 339.194 66.5847 339.867 66.6309 340.548C66.6772 341.229 66.9818 341.866 67.4828 342.33C67.5811 341.424 66.5883 340.178 68.3104 339.866C68.6176 342.519 68.783 345.172 69.26 347.767C69.9892 350.3 69.9709 352.99 69.2074 355.514L68.7713 352.723L65.6767 352.64C65.9097 353.875 66.1438 355.062 66.3555 356.253C66.7229 358.318 67.0886 360.384 67.4136 362.457C67.3279 362.694 67.1826 362.906 66.9915 363.071L65.5244 361.306C66.6075 359.772 65.8209 358.502 64.7905 356.804L63.9879 359.511C63.8014 358.073 63.7178 356.623 63.7377 355.174C63.6662 353.764 63.3563 352.367 63.2611 350.957C63.1701 349.608 62.294 348.198 63.3635 346.63C64.8564 348.685 64.2203 350.883 64.8025 352.872C64.7382 350.441 66.2212 348.073 64.8921 345.629C64.7821 345.385 64.7246 345.12 64.7233 344.853C64.5423 341.949 64.3582 339.045 64.2151 336.139C64.2423 335.698 64.3298 335.263 64.4751 334.846C64.716 333.836 64.9764 332.832 65.1974 331.818C65.1313 331.672 65.0289 331.545 64.8999 331.449L64.1587 333.493L61.8493 330.648C61.6589 331.29 61.5414 331.686 61.4222 332.084ZM42.6397 345.367C39.2792 346.382 36.8186 347.037 34.4233 347.879C33.7013 348.134 33.0672 348.589 32.5959 349.192C32.1246 349.794 31.8356 350.519 31.763 351.28C31.4037 353.093 31.4334 354.961 31.8501 356.762C32.2668 358.563 33.0611 360.255 34.1806 361.726C38.0556 366.309 42.6011 370.281 47.6636 373.509C50.3134 375.488 53.3889 376.824 56.646 377.41C57.5052 377.632 58.3247 377.986 59.0755 378.459C62.5823 380.198 66.3805 381.275 70.2791 381.636C71.6683 381.785 73.1042 381.463 74.5029 381.568C78.2505 381.673 81.9482 380.69 85.1469 378.737C88.5509 376.936 89.2212 373.886 87.5489 370.069C86.7938 368.365 85.8321 366.76 84.6855 365.289C84.3358 364.892 84.1111 364.401 84.0394 363.877C83.9677 363.353 84.0522 362.819 84.2824 362.343C85.0109 360.536 85.797 358.751 86.5837 356.968C88.6162 352.361 90.8516 347.831 92.6483 343.135C94.3854 338.593 95.6211 333.863 97.1774 329.249C98.9899 323.876 100.899 318.535 102.79 313.188C103.973 309.844 105.055 306.455 106.443 303.196C108.067 299.379 110.243 295.78 111.652 291.896C111.927 291.03 112.435 290.256 113.12 289.658C113.805 289.061 114.642 288.663 115.539 288.509C118.001 287.804 120.411 286.916 122.842 286.102C123.306 285.947 123.765 285.773 124.62 285.466C124.261 286.678 124.007 287.495 123.777 288.319C122.085 294.374 120.366 300.422 118.717 306.489C116.462 314.788 114.295 323.111 112.013 331.403C111.426 333.535 110.362 335.542 109.841 337.684C107.821 345.984 104.625 353.897 101.992 361.994C101.774 362.948 101.355 363.844 100.763 364.623C99.3849 366.251 98.3961 368.171 97.8714 370.237C96.6881 374.153 94.5327 377.707 91.6055 380.568C91.1518 380.994 90.7258 381.448 90.3299 381.927C87.1353 385.81 82.8912 386.648 78.1567 386.215C74.0828 385.843 70.1221 384.883 66.1136 384.176C60.504 383.321 54.9487 382.142 49.4755 380.646C45.2049 379.406 41.131 377.57 37.3745 375.193C32.9262 372.331 28.7949 368.975 24.5575 365.791C24.0087 365.343 23.5532 364.792 23.2167 364.169C22.0379 362.282 21.2441 360.182 20.8811 357.987C20.5181 355.793 20.5929 353.549 21.1013 351.384C22.1493 347.088 23.2528 342.799 24.5244 338.564C26.2567 332.795 28.1993 327.089 29.9937 321.338C30.6262 319.311 30.9574 317.185 31.6529 315.184C33.8497 309.955 35.7425 304.605 37.3219 299.16C37.4255 298.82 37.5475 298.486 37.6875 298.159C39.412 293.128 41.1599 288.104 42.8496 283.061C44.3987 278.438 45.795 273.762 47.442 269.174C47.9797 267.219 48.9386 265.405 50.2518 263.858C53.3729 266.465 55.6745 269.355 55.2305 273.49C54.4995 280.301 55.446 287.06 55.6753 293.837C55.8331 298.519 56.2336 303.19 56.8751 307.83C57.1089 310.657 56.5628 313.493 55.2959 316.031C53.9941 319.228 52.5055 322.348 51.1395 325.52C48.2036 332.336 45.2944 339.164 42.6397 345.367ZM138.302 231.107C138.164 231.675 137.995 232.235 137.796 232.784C135.881 237.161 133.718 241.424 131.317 245.555C126.919 253.136 122.954 260.97 118.903 268.747C116.942 272.514 115.189 276.389 113.351 280.22C112.324 282.361 111.315 284.511 110.331 286.587C104.78 286.534 99.2754 285.57 94.0378 283.734C90.3265 282.554 86.6484 281.253 83.013 279.856C80.3995 278.852 77.8811 277.602 75.2525 276.431C76.4356 272.61 78.0079 268.92 79.9445 265.419C82.4443 260.14 85.0887 254.93 87.6266 249.669C89.6638 245.445 91.5749 241.16 93.6535 236.958C95.2206 233.789 96.959 230.705 98.6304 227.588C100.766 223.606 102.901 219.624 105.068 215.66C105.324 215.353 105.631 215.093 105.978 214.893C106.888 216.378 107.945 217.769 109.133 219.043C111.996 221.547 115.213 223.656 118.014 226.221C121.995 229.867 126.994 230.142 131.866 230.862C134.005 231.063 136.154 231.144 138.302 231.107ZM73.7711 279.024C76.9125 280.246 79.6984 281.358 82.5053 282.414C85.1489 283.409 87.8196 284.332 90.469 285.312C92.0803 286.039 93.7359 286.663 95.4259 287.182C98.7888 287.957 102.21 288.48 105.605 289.116C106.786 289.338 107.962 289.588 109.39 289.875C109.009 290.839 108.787 291.486 108.503 292.104C107.357 294.6 106.083 297.042 105.058 299.585C103.142 304.335 101.266 309.106 99.5575 313.933C97.6349 319.364 95.7551 324.82 94.1481 330.349C92.1844 336.881 89.7922 343.278 86.9869 349.497C85.9203 351.922 84.6252 354.255 83.6853 356.725C82.6206 359.523 81.8625 362.436 80.9188 365.282C80.5692 366.336 80.0715 367.342 79.4951 368.718C77.9502 367.919 76.7425 367.235 75.4853 366.658C74.6494 366.263 73.9527 365.625 73.4869 364.827C73.0211 364.03 72.8081 363.11 72.8758 362.189C72.4453 356.634 72.3615 351.069 71.5821 345.511C70.4165 337.198 70.0795 328.771 69.2885 320.403C68.9574 316.899 69.6808 313.441 69.2948 309.906C68.7117 304.565 68.6369 299.165 68.4403 293.787C68.4332 292.551 68.5993 291.32 68.9338 290.13C69.256 289.032 69.6713 287.964 70.1751 286.936C71.3488 284.303 72.5585 281.685 73.7711 279.024ZM57.1421 318.761L57.7013 318.869C57.8295 320.683 57.994 322.495 58.0764 324.311C58.1725 326.43 58.084 328.562 58.2757 330.671C58.6823 335.141 59.1971 339.601 59.7116 344.06C59.9533 346.154 60.267 348.242 60.6025 350.324C61.1116 353.005 61.1267 355.756 60.6471 358.441C54.9157 355.329 49.389 352.328 43.9929 349.397C45.7722 345.214 47.4729 341.283 49.1127 337.328C49.89 335.454 50.481 333.501 51.2799 331.637C52.8117 328.062 54.425 324.521 56.0204 320.974C56.3592 320.22 56.7664 319.498 57.1421 318.761ZM83.2545 253.215C79.573 260.616 76.0132 267.772 72.4616 274.911C68.0243 273.466 68.0238 273.466 68.074 269.002C68.076 268.825 68.1132 268.649 68.1226 268.472C68.4516 264.224 67.7897 259.958 66.1888 256.009C65.7202 254.628 65.3549 253.215 65.096 251.78C66.4489 251.033 67.9284 250.541 69.4602 250.329C73.3252 250.646 77.1585 251.384 80.99 252.038C81.7929 252.33 82.5541 252.726 83.2545 253.215ZM58.9174 268.654C58.623 268.553 58.3455 268.408 58.0943 268.224C57.9454 268.014 57.8499 267.772 57.8162 267.517C57.516 264.1 57.0744 260.686 56.9921 257.263C56.9116 253.913 57.553 250.52 57.2402 247.207C56.8517 243.092 55.8118 239.039 55.0467 234.961C54.4619 231.843 53.7617 228.743 53.3048 225.608C52.8079 222.197 52.6472 218.737 52.1307 215.331C51.6567 211.468 51.7448 207.558 52.3924 203.721C52.3799 203.45 52.4212 203.179 52.514 202.924C52.6067 202.669 52.749 202.435 52.9327 202.235C53.1164 202.035 53.3379 201.874 53.5844 201.76C53.8309 201.646 54.0976 201.581 54.3691 201.571C54.6384 201.917 54.7986 202.335 54.8292 202.772C54.8599 203.209 54.7595 203.646 54.5411 204.026C53.8864 205.354 53.4947 206.797 53.3874 208.274C53.3165 211.441 53.5507 214.617 53.7035 217.788C53.793 219.645 53.9781 221.497 54.0985 223.353C54.4963 229.484 55.0761 235.556 59.1806 240.606C59.4998 241.105 59.76 241.639 59.9562 242.197L60.2376 241.812L62.8688 243.042C62.6606 245.399 62.5863 247.344 62.2833 249.253C62.1015 250.398 62.7406 251.872 61.2025 252.645C61.1547 253.051 61.2495 253.46 61.4706 253.803C62.721 255.32 62.768 255.555 61.685 256.986C61.9598 257.416 62.3447 257.765 62.7998 257.996C63.3203 258.021 63.8114 258.244 64.1718 258.62C64.5322 258.996 64.7344 259.496 64.7367 260.016C65.7608 264.044 65.95 268.238 65.2925 272.341C61.8152 271.217 61.2389 270.603 60.0442 266.989C59.8179 266.652 59.5412 266.352 59.2236 266.099C59.0992 267.136 59.021 267.788 58.9174 268.654ZM40.7542 359.018L40.4294 359.101C40.7529 359.662 41.1219 360.195 41.5327 360.695C42.8752 362.097 44.3057 363.416 45.6398 364.826C46.7227 366.221 48.2042 367.255 49.8885 367.792C50.9655 368.265 51.9568 368.913 52.822 369.709L52.4281 370.238C51.6994 369.544 50.9007 368.926 50.0447 368.396C49.0132 367.98 47.9484 367.651 46.8617 367.414C46.7795 367.379 46.7051 367.328 46.6431 367.264C44.6388 365.531 42.5977 363.838 40.6443 362.05C39.8904 361.387 39.3254 360.538 39.0067 359.587C38.6881 358.636 38.627 357.618 38.8298 356.636C39.1617 356.386 39.5755 356.268 39.9895 356.308C40.4036 356.347 40.788 356.539 41.067 356.847C46.5138 360.134 51.9399 363.466 57.5158 366.523C60.0705 367.866 62.2873 369.769 63.9997 372.09C64.4479 372.865 65.1282 373.479 65.9448 373.847C66.7614 374.215 67.6731 374.318 68.5514 374.141C69.3987 374.056 70.2538 374.187 71.0361 374.523C72.083 375.166 73.2704 375.545 74.4964 375.629C75.1747 375.821 75.8017 376.161 76.3316 376.625C75.1395 377.251 73.8996 377.782 72.6235 378.213C68.7599 379.318 64.618 378.886 61.0663 377.008C59.2398 376.117 57.36 375.339 55.4375 374.679C54.4202 374.369 53.4214 374.002 52.4458 373.58C47.5939 370.977 43.1476 367.683 39.247 363.801C38.6975 363.19 38.1864 362.545 37.7167 361.871L38.2741 361.324C39.4493 363.009 40.967 364.428 42.7282 365.488C44.4937 366.473 46.2065 367.549 47.8595 368.713C49.6869 369.73 51.6348 370.53 53.5966 371.457L54.9074 370.142L40.7542 359.018ZM137.915 227.651C135.736 227.762 133.995 227.937 132.257 227.921C128.161 228.069 124.128 226.887 120.762 224.553C120.059 224.035 119.246 223.667 118.535 223.158C114.491 220.631 111.079 217.215 108.559 213.172C110.414 211.451 112.855 210.499 115.387 210.507C117.71 212.873 119.965 215.191 122.252 217.478C122.654 217.824 123.097 218.119 123.572 218.356C124.968 219.182 126.711 219.602 127.066 222.124L128 220.593C130.65 220.676 133.075 220.752 135.532 220.83L137.915 227.651ZM121.946 269.39C123.618 271.958 124.963 274.724 125.951 277.623C126.218 278.469 126.18 279.381 125.841 280.201C125.503 281.02 124.886 281.695 124.1 282.107C121.504 283.394 118.796 284.46 116.112 285.565C115.441 285.737 114.753 285.837 114.06 285.863C116.223 280.162 118.861 274.652 121.946 269.39ZM41.7923 353.056C41.9085 352.885 42.0621 352.743 42.2415 352.64C42.4209 352.538 42.6214 352.477 42.8277 352.463C43.034 352.45 43.2408 352.483 43.4323 352.561C43.6237 352.639 43.7949 352.759 43.9327 352.913C47.2431 354.943 50.5681 356.954 53.9522 358.858C56.2328 360.141 58.6204 361.235 61.0449 362.456L60.9515 364.886C57.509 363.109 54.1672 361.585 51.0343 359.712C47.6409 357.962 44.5264 355.719 41.7923 353.056ZM77.3769 378.837L77.0482 377.993C77.9245 377.671 78.7993 377.346 79.6773 377.03C80.5582 376.725 81.3637 376.236 82.0398 375.595C82.7159 374.954 83.247 374.176 83.5976 373.313C83.7201 373.131 83.8012 372.924 83.8351 372.708C83.8691 372.491 83.855 372.27 83.794 372.059C83.733 371.848 83.6264 371.653 83.4819 371.488C83.3374 371.323 83.1584 371.191 82.9574 371.103C82.2525 372.045 83.1185 373.566 81.4813 374.129C81.3401 371.782 82.0296 369.459 83.4293 367.567C84.2136 369.16 85.0304 370.523 85.573 371.989C85.7795 372.45 85.8811 372.952 85.8706 373.457C85.8601 373.963 85.7377 374.46 85.5123 374.912C85.2868 375.365 84.9638 375.762 84.5664 376.076C84.1691 376.389 83.7072 376.611 83.2139 376.725C82.3031 377.035 81.452 377.518 80.5459 377.845C79.5057 378.22 78.4346 378.51 77.3769 378.837ZM54.1691 253.875C54.2345 257.084 54.3001 260.31 54.3722 263.846C50.3194 260.276 50.4424 255.15 54.1691 253.875ZM127.084 200.132L127.441 200.635C125.295 204.133 124.166 208.298 120.64 211.102C120.411 210.796 120.252 210.444 120.174 210.07C120.097 209.696 120.102 209.31 120.191 208.938C120.28 208.567 120.449 208.219 120.687 207.92C120.925 207.622 121.226 207.379 121.568 207.209C122.299 206.801 122.881 206.174 123.234 205.416C124.206 203.84 125.082 202.205 126.065 200.636C126.36 200.39 126.71 200.218 127.084 200.132ZM123.52 214.61C126.187 210.617 127.323 205.849 130.499 202.172C129.085 206.619 127.221 210.911 124.936 214.981C124.792 215.099 124.623 215.184 124.441 215.229L123.52 214.61ZM126.357 216.186C126.839 213.028 130.625 204.944 132.127 203.865C130.345 210.925 128.175 215.559 126.357 216.186ZM128.402 217.214C129.188 214.901 130.094 212.631 131.116 210.412C132.189 208.35 132.376 205.8 134.284 204.173C133.154 208.073 131.797 211.861 130.451 215.652C130.435 215.896 130.367 216.133 130.252 216.347C130.136 216.562 129.976 216.75 129.782 216.898C129.588 217.046 129.364 217.151 129.126 217.205C128.888 217.26 128.641 217.263 128.402 217.214ZM35.157 353.707C36.1811 353.363 37.1793 352.092 38.1368 353.163L34.7933 355.628C34.4353 354.929 34.2696 354.147 34.3132 353.363C34.3568 352.579 34.6081 351.821 35.0414 351.166C35.4748 350.511 36.0746 349.982 36.7796 349.634C37.4845 349.286 38.2694 349.131 39.054 349.185C38.8638 349.638 38.7277 350.051 38.5223 350.426C38.3015 350.793 38.0624 351.149 37.8058 351.492C35.2932 351.597 35.2932 351.597 35.157 353.707ZM71.9892 368.847C74.2889 369.315 76.3183 370.652 77.6525 372.58C77.2483 372.722 76.8209 372.787 76.3927 372.77C74.7942 372.327 73.2183 371.802 71.6405 371.287C71.4674 371.169 71.3167 371.021 71.1953 370.85L71.9892 368.847ZM133.372 217.759L132.627 217.276C134.067 213.499 135.506 209.721 137.007 205.781C137.114 205.99 137.182 206.217 137.208 206.45C136.36 209.759 135.533 213.074 134.597 216.358C134.287 216.902 133.871 217.379 133.372 217.759ZM68.8107 282.82L68.3591 282.762L68.439 277.134C68.9482 276.991 69.4908 277.022 69.9804 277.222C70.47 277.422 70.8786 277.78 71.1411 278.238C70.3781 279.738 69.5943 281.279 68.8107 282.82ZM67.6617 371.172C64.6924 368.044 64.2929 366.612 65.6052 364.39C65.8984 366.472 66.9598 368.37 68.5813 369.711C68.3272 370.115 68.0641 370.533 67.6617 371.172ZM69.2969 367.774C68.8597 366.667 68.6827 365.475 68.7794 364.29C68.8762 363.104 69.2441 361.956 69.8549 360.935C70.2388 362.052 70.3874 363.236 70.2913 364.413C70.1953 365.589 69.8568 366.734 69.2969 367.774ZM57.5095 227.439L57.0032 227.156C57.1572 226.671 57.4378 226.236 57.8162 225.895C60.1098 225.503 62.4288 225.259 65.2022 224.908C62.7117 227.134 59.6917 225.939 57.5095 227.439ZM56.7075 222.374C58.189 222.43 59.6725 222.408 61.1517 222.307C63.7774 221.978 64.1458 221.922 65.4729 222.585C62.9835 223.003 60.4745 223.296 57.9555 223.462C57.4529 223.212 57.023 222.837 56.7075 222.374ZM122.648 213.144L122.124 212.847C123.58 210.234 125.037 207.621 126.493 205.008L127.039 205.316C125.575 207.926 124.112 210.535 122.648 213.144ZM135.358 205.427L135.569 205.448L134.475 209.138L134.276 209.077L135.358 205.427ZM135.564 197.103L133.658 198.329C133.258 196.605 133.793 196.3 135.564 197.103ZM58.745 234.342C58.1395 233.395 58.1054 232.86 58.9888 232.731C59.6317 232.757 60.2694 232.858 60.8884 233.033L58.745 234.342ZM63.8238 239.546L66.8506 239.416C65.7491 240.461 65.0294 240.723 63.8238 239.546ZM128.361 201.094L128.88 201.342C128.544 201.899 128.207 202.456 127.716 203.27L128.361 201.094ZM137.652 199.302C137.491 199.982 138.374 200.895 137.023 201.841L137.652 199.302ZM62.5513 220.756L62.6054 221.424L60.8368 221.533L60.7841 221.048L62.5513 220.756ZM136.767 199.674L136.29 199.633L136.367 198.397C136.485 198.406 136.601 198.438 136.708 198.489C136.748 198.882 136.753 199.279 136.767 199.674Z" fill="#90B8D8"/>
<path d="M266.517 29.9804C266.529 29.9764 266.536 29.9977 266.536 29.9977L266.524 30.0017L266.486 30.039L266.403 30.0543L266.217 30.1011C264.552 30.4312 262.924 30.9306 261.361 31.5915C261.89 32.8984 262.271 34.2606 262.496 35.6528C264.462 33.6283 266.657 31.8344 269.036 30.3067C269.214 30.2001 269.39 30.1178 269.561 30.0253C269.367 30.0122 269.187 29.9966 268.994 29.985C268.507 29.9562 268.014 29.9426 267.55 29.9484C267.328 29.958 267.157 29.9394 266.889 29.9639L266.517 29.9804ZM279.866 24.6654C280.014 25.1401 280.093 25.6331 280.103 26.1303C280.169 29.4686 277.593 32.5323 276.701 35.6322C276.585 36.0439 276.463 36.4693 276.329 36.885C276.196 37.3007 276.087 37.71 275.977 38.1197C275.759 38.9488 275.463 39.7796 275.302 40.6775C275.142 41.5754 274.946 42.4781 274.755 43.3926C274.62 44.3327 274.467 45.2905 274.322 46.2711C273.791 50.2009 273.51 54.4723 272.796 59.1457C272.709 59.7331 272.614 60.325 272.522 60.9194C272.405 61.4914 272.292 62.0639 272.165 62.6394L271.987 63.5194L271.897 63.946L271.847 64.173L271.839 64.2262L271.799 64.3756C271.783 64.4059 271.745 64.5179 271.745 64.5179C271.548 65.1042 271.337 65.695 271.133 66.297C270.929 66.8989 270.702 67.4816 270.484 68.0881L269.692 69.8379C269.418 70.4238 269.16 71.0215 268.887 71.6155C268.585 72.1871 268.269 72.7632 267.954 73.3372C265.31 78.1513 262.108 82.6441 258.413 86.7235C257.458 87.8422 256.47 88.8217 255.466 89.8315L254.673 90.6365L253.865 91.3587C253.316 91.8368 252.761 92.327 252.215 92.8158C251.107 93.7718 250.02 94.797 248.853 95.7234C247.686 96.6498 246.485 97.5618 245.294 98.4961C244.689 98.9536 244.102 99.4305 243.483 99.8808C242.856 100.307 242.232 100.745 241.592 101.178C240.33 102.049 239.056 102.922 237.77 103.799C236.457 104.624 235.126 105.442 233.79 106.27C233.115 106.675 232.447 107.092 231.767 107.511C231.09 107.9 230.395 108.28 229.711 108.684C228.317 109.46 226.927 110.246 225.522 111.028C224.102 111.761 222.675 112.511 221.233 113.252C218.37 114.766 215.4 116.141 212.43 117.577C210.328 118.533 208.347 119.511 206.186 120.437L202.955 121.747C201.879 122.184 200.773 122.492 199.689 122.869C197.528 123.645 195.304 124.105 193.123 124.702C192.033 124.943 190.928 125.14 189.831 125.359C188.733 125.579 187.644 125.784 186.556 125.917C178.16 127.154 169.641 127.262 161.228 126.236C153.603 125.341 146.14 123.427 139.042 120.547C137.369 119.882 135.761 119.037 134.166 118.31C133.386 117.916 132.69 117.483 131.955 117.074C131.199 116.646 130.456 116.213 129.716 115.798C127.008 114.001 124.391 112.251 121.934 110.534C112.055 103.713 104.648 97.2342 100.414 91.9075C97.816 88.6326 94.0789 85.6534 94.8576 81.0199C95.4732 77.3121 100.013 73.6181 102.515 71.0333C108.195 65.3782 114.346 60.2086 120.901 55.58C122.773 54.226 124.705 52.8663 126.731 51.4857C128.758 50.1051 130.788 48.7387 133.126 47.3885C137.785 44.6281 142.665 42.2551 147.717 40.2941C149.059 39.8214 150.464 39.4277 151.858 39.0005L152.911 38.6842L153.438 38.525L154.05 38.4002C154.751 38.2723 155.446 38.1343 156.147 38.0064L156.679 37.9076L157.268 37.8664L158.471 37.7744C159.253 37.695 160.039 37.665 160.824 37.6846C161.586 37.7102 162.349 37.7373 163.118 37.7487C163.874 37.827 164.624 37.8936 165.387 37.9577C168.374 38.2453 171.326 38.7549 174.191 38.9455C174.921 39.0318 175.631 39.012 176.346 39.0414L177.421 39.0665L177.561 39.0697L177.626 39.0741L177.844 39.0538L178.407 39.0074C178.589 38.9855 178.812 38.9755 178.967 38.9504L179.402 38.8582C179.707 38.8097 180.008 38.7412 180.304 38.6532C180.951 38.4795 181.585 38.2613 182.201 38.0002C187.212 35.7894 191.303 31.0648 196.508 27.832C201.31 24.5416 206.467 21.7942 211.881 19.6414C213.205 19.1124 214.571 18.718 215.904 18.2971L216.157 18.2283L216.344 18.1795L216.401 18.1611L216.519 18.1363L217.014 18.0363L218.001 17.8287L219.954 17.4189L221.883 17.0171C222.526 16.8646 223.179 16.7524 223.836 16.6814C225.17 16.5348 226.49 16.3796 227.797 16.2298C230.315 15.9504 232.845 15.8104 235.377 15.8103C237.829 15.6617 240.213 15.8819 242.524 15.9542C250.532 16.4378 258.477 17.6377 266.261 19.5394C269.036 20.3067 271.559 20.9927 273.773 21.6507C276.373 22.3888 279.063 22.3499 279.866 24.6654ZM277.709 25.1787C277.589 25.0398 277.455 24.9138 277.309 24.8029C276.421 24.2199 275.413 23.8377 274.358 23.6833C271.851 23.1287 268.961 22.5114 265.75 21.8114C258.05 20.3093 250.238 19.4205 242.389 19.1537C240.151 19.1472 237.838 18.9897 235.465 19.1869C233.05 19.2411 230.64 19.4251 228.243 19.738C227.037 19.8938 225.808 20.0566 224.563 20.2112C223.924 20.2853 223.291 20.4036 222.669 20.565L220.75 21.0008C218.211 21.5761 215.73 22.3812 213.338 23.4061C208.208 25.4774 203.317 28.0951 198.753 31.2131C198.18 31.6115 197.446 31.9862 196.973 32.35C196.399 32.7488 195.829 33.1578 195.27 33.6003C194.139 34.5269 192.976 35.4401 191.829 36.3853C189.408 38.4957 186.709 40.2677 183.805 41.6515C183.011 41.9915 182.194 42.2774 181.361 42.5072C180.92 42.6284 180.473 42.7235 180.021 42.7922L179.333 42.9161C179.106 42.9525 178.944 42.9547 178.748 42.9695L178.172 43.0199L177.889 43.0357L177.725 43.0521L177.686 43.053L177.611 43.0521L177.467 43.0362L176.269 43.0155C175.465 42.9766 174.657 43.003 173.896 42.9014C170.759 42.6759 167.824 42.1593 164.964 41.8693L162.853 41.658C162.154 41.6353 161.473 41.6005 160.789 41.5931C160.132 41.5663 159.473 41.5808 158.818 41.6366L157.866 41.6841L157.386 41.7152L156.86 41.7983L154.761 42.1815L154.335 42.2575L153.854 42.4017L152.875 42.6824C151.573 43.0796 150.285 43.41 149.016 43.8353C144.129 45.6746 139.393 47.8879 134.849 50.4552C132.763 51.6174 130.634 52.9924 128.628 54.2788C126.621 55.5652 124.663 56.8847 122.782 58.1676C116.234 62.5347 110.016 67.3719 104.178 72.6401C102.051 74.5524 100.148 76.6962 98.5054 79.0306C97.7418 80.1192 97.244 81.3683 97.0518 82.6784C100.679 83.8263 104.914 80.2378 107.5 78.1804C109.171 76.8418 111.073 75.8152 113.112 75.151L114.805 74.7146C115.377 74.5795 115.906 74.5055 116.462 74.4008C117.551 74.1957 118.69 73.9878 119.872 73.7994C124.898 73.1328 129.882 72.1753 134.798 70.9317C136.104 70.5836 137.343 70.1059 138.661 69.6408C140.003 69.1311 141.352 68.5992 142.731 68.0842C144.11 67.5691 145.529 67.0279 146.965 66.4994C148.381 65.9521 149.845 65.4147 151.359 64.9485C152.874 64.4823 154.349 63.9023 155.944 63.5095L160.759 62.2837C162.446 61.9467 163.979 61.6362 165.678 61.3713C167.345 61.0915 169.032 60.8305 170.698 60.5846C177.517 59.8112 184.255 58.4307 190.83 56.4601C194.127 55.3195 197.362 54.0118 200.525 52.542C203.7 51.0623 206.82 49.606 209.885 48.173C212.969 46.7241 216.112 45.4175 219.243 44.265C220.866 43.6893 222.344 43.2467 223.873 42.7385C225.403 42.2303 226.892 41.7452 228.399 41.3185C231.399 40.419 234.348 39.5562 237.115 38.6768C238.518 38.2333 239.897 37.8111 241.244 37.3857C242.568 36.8937 243.86 36.4254 245.139 35.9529L247.037 35.263C247.337 35.1402 247.7 35.0223 247.945 34.9175L248.867 34.5072C250.126 33.9738 251.21 33.4096 252.327 32.8619C254.57 31.6857 256.799 30.5024 259.036 29.5387C261.203 28.6032 263.481 27.9477 265.814 27.5882L266.032 27.5548L266.126 27.536L266.187 27.5297L266.317 27.5126L266.704 27.4983C266.961 27.4772 267.304 27.4906 267.606 27.4921C268.165 27.5095 268.685 27.5649 269.192 27.611C270.205 27.7184 271.148 27.8352 272.035 27.8963C272.736 27.9534 273.442 27.9499 274.143 27.886C275.222 27.559 276.254 27.0944 277.213 26.5039C277.299 26.4167 277.372 26.3174 277.43 26.2093C277.488 26.1163 277.609 26.0282 277.622 25.9111C277.684 25.8004 277.724 25.6787 277.739 25.5531C277.754 25.4274 277.743 25.3002 277.709 25.1787ZM276.327 30.429C276.494 30.0144 276.653 29.6141 276.796 29.207C275.354 29.8936 273.763 30.209 272.169 30.1239C271.392 30.569 270.643 31.0614 269.926 31.5983C267.521 33.4644 265.33 35.5882 263.394 37.9308C262.835 38.5721 262.276 39.2504 261.714 39.9551C261.494 40.3287 261.245 40.6846 260.968 41.0195C260.781 41.2869 260.56 41.5288 260.309 41.7389C258.918 43.5603 257.466 45.5108 255.917 47.6194C253.011 51.8134 249.71 55.7258 246.06 59.3037C243.879 61.1808 241.55 62.881 239.096 64.388C236.565 65.9187 233.9 67.3428 231.157 68.6813C225.634 71.4074 219.88 73.7717 214.564 77.4263C211.837 79.2432 209.054 81.1556 206.048 82.9634C204.482 83.881 202.864 84.7093 201.203 85.4443C200.373 85.8404 199.517 86.1806 198.641 86.4627L197.388 86.8576L196.76 87.0615L196.324 87.1912L195.994 87.2595C182.084 90.505 168.603 91.2849 156.486 91.9335C153.457 92.0818 150.504 92.2231 147.626 92.3573C146.921 92.3873 146.204 92.4213 145.508 92.4483C144.771 92.4634 144.046 92.4745 143.336 92.4928C141.887 92.5536 140.481 92.4488 139.096 92.4014C133.99 92.0819 128.938 91.1967 124.036 89.7623C121.905 89.1434 119.807 88.4184 117.751 87.59C117.262 87.4 116.8 87.2146 116.325 87.0317C115.735 86.7884 115.389 86.5889 114.918 86.3695C114.041 85.9564 113.203 85.5445 112.384 85.1515C107.334 82.7298 102.51 82.425 97.4851 85.473C98.656 87.4267 100.046 89.242 101.629 90.8844C106.068 95.7152 113.579 101.724 123.558 108.177C126.035 109.8 128.673 111.457 131.441 113.201C132.122 113.564 132.821 113.932 133.525 114.317C134.265 114.699 134.996 115.134 135.749 115.472C137.252 116.117 138.716 116.869 140.332 117.469C147.184 120.083 154.357 121.791 161.667 122.552C178.504 124.584 195.594 121.585 210.75 113.938C213.671 112.53 216.584 111.174 219.409 109.695C220.817 108.966 222.229 108.246 223.626 107.52C225.001 106.762 226.373 105.993 227.735 105.241C228.401 104.857 229.083 104.479 229.767 104.108L231.728 102.912L235.637 100.523C236.885 99.6834 238.128 98.832 239.363 97.9947C239.983 97.5829 240.591 97.1731 241.206 96.7496C241.82 96.3261 242.387 95.8608 242.974 95.4291C244.143 94.5399 245.301 93.6585 246.45 92.7847C247.58 91.8957 248.632 90.9206 249.718 90.007C250.25 89.5496 250.786 89.0776 251.309 88.6212L252.108 87.9374L252.822 87.234C253.839 86.2298 254.863 85.2403 255.721 84.2526C259.27 80.4356 262.371 76.2319 264.964 71.7229C270.32 63.1674 270.213 53.9199 271.667 45.8842C271.85 44.8779 272.037 43.8838 272.21 42.9195C272.452 41.9582 272.672 41.0154 272.9 40.0956C273.126 39.194 273.398 38.3043 273.716 37.43C273.864 36.9961 273.999 36.5662 274.148 36.1455C274.297 35.7248 274.429 35.345 274.565 34.9522C275.09 33.3816 275.785 31.8113 276.327 30.429ZM259.269 36.8986C259.033 35.6139 258.65 34.3607 258.128 33.1629C256.724 33.905 255.292 34.7185 253.785 35.5681C252.627 36.1918 251.392 36.8673 250.202 37.4152L249.807 37.5923C251.183 40.3185 252.115 43.2456 252.567 46.265C252.602 46.5639 252.613 46.8718 252.627 47.1792C252.966 46.7574 253.303 46.3245 253.646 45.9149C255.439 43.6649 257.149 41.5767 258.808 39.6481C258.968 39.259 259.084 38.854 259.155 38.4403C259.279 37.9358 259.318 37.4148 259.269 36.8986ZM249.074 46.6525C248.599 43.9813 247.732 41.3954 246.5 38.9772L246.364 39.0212C245.053 39.5462 243.728 40.0757 242.368 40.6045C241 41.074 239.609 41.5372 238.203 42.0187C236.916 42.4601 235.62 42.8808 234.309 43.2942C235.266 45.2873 236.119 47.3278 236.867 49.4079C237.647 51.5157 238.198 53.7012 238.511 55.9273C238.55 55.9554 238.592 55.9796 238.636 55.9994L238.748 56.0745C239.182 56.3229 239.683 56.4336 240.184 56.392C240.904 56.329 241.61 56.1506 242.273 55.8637C243.125 55.5041 243.943 55.0695 244.717 54.5653C245.138 54.292 245.576 54.0016 246.009 53.6741C246.367 53.3457 246.811 53.0532 247.156 52.6801C247.938 51.8989 248.521 50.9436 248.855 49.8946C249.189 48.8456 249.264 47.7337 249.074 46.6525ZM240.837 59.0984C240.603 59.1119 240.364 59.1153 240.123 59.106C239.6 59.0871 239.083 58.9863 238.592 58.8073C238.585 58.8215 238.593 58.8443 238.584 58.859C238.487 59.5624 238.292 60.2495 238.004 60.9005C237.998 60.9162 237.978 60.9343 237.971 60.95C238.953 60.3382 239.91 59.7292 240.835 59.0923L240.837 59.0984ZM235.103 57.0587C234.829 54.8529 234.289 52.6889 233.495 50.6134C232.725 48.4988 231.844 46.4259 230.857 44.403C230.42 44.5312 229.989 44.6711 229.546 44.8149C228.074 45.2692 226.58 45.7776 225.076 46.291C223.572 46.8044 221.98 47.3209 220.547 47.86C219.448 48.2674 218.352 48.7225 217.256 49.1776C217.251 49.285 217.239 49.3921 217.223 49.4985C217.128 52.5245 217.481 55.5459 218.27 58.466C218.387 59.0128 218.494 59.5727 218.613 60.1712L218.821 60.9244C218.889 61.2138 218.991 61.4907 219.083 61.7726C219.361 62.8653 219.894 63.8771 220.637 64.7273C220.963 65.0334 221.384 65.2209 221.832 65.2597C222.464 65.3166 223.102 65.2652 223.717 65.1077C224.487 64.9334 225.247 64.716 225.993 64.4566C226.83 64.1732 227.695 63.8924 228.576 63.593C230.285 63.0975 231.903 62.329 233.365 61.3178C234.028 60.8397 234.543 60.1866 234.851 59.4332C235.158 58.6798 235.245 57.8568 235.103 57.0587ZM220.44 69.5935C221.323 69.1703 222.206 68.7456 223.073 68.3412C222.496 68.3793 221.917 68.3541 221.347 68.2662C220.998 68.2089 220.656 68.1154 220.327 67.9873C220.353 68.1472 220.369 68.3105 220.396 68.4704L220.454 69.0362L220.44 69.5935ZM215.334 52.6C215.36 51.6713 215.476 50.7468 215.68 49.8392C215.073 50.0969 214.454 50.3971 213.84 50.672C214.397 51.2677 214.897 51.9131 215.334 52.6ZM216.407 66.1625C215.877 63.5385 215.151 60.9583 214.235 58.443C213.757 57.1615 213.166 55.9252 212.467 54.7488C211.911 53.7896 211.145 52.9667 210.226 52.3404C207.593 53.595 204.915 54.8662 202.193 56.1541C198.954 57.6699 195.639 59.0159 192.26 60.1866C192.281 60.2927 192.29 60.4007 192.309 60.5327C192.361 60.9255 192.44 61.3985 192.517 61.9446C192.595 62.4907 192.695 63.1069 192.824 63.8114C192.93 64.5235 193.091 65.2916 193.286 66.1618C193.719 68.2236 194.304 70.2504 195.036 72.2259C195.239 72.8175 195.481 73.3952 195.76 73.9553C196.046 74.5574 196.363 75.144 196.71 75.7127C197.055 76.2479 197.451 76.7545 197.664 76.785C198.25 76.8943 198.85 76.9176 199.444 76.8541L200.085 76.8147L200.406 76.798C200.551 76.7829 200.696 76.7773 200.841 76.7814C201.265 76.7688 201.688 76.7678 202.114 76.7542C202.54 76.7406 202.976 76.6986 203.406 76.6718C203.848 76.6458 204.288 76.5903 204.722 76.5059C205.608 76.3689 206.482 76.1604 207.334 75.8823C208.213 75.5281 209.064 75.1067 209.878 74.6219C210.743 74.1409 211.663 73.5069 212.59 72.8826C213.556 72.259 214.578 71.6155 215.496 70.9571C215.919 70.6685 216.324 70.3541 216.709 70.0158C216.823 69.9418 216.808 69.8961 216.845 69.8587C216.882 69.8214 216.923 69.7846 216.935 69.7435C216.913 69.675 216.991 69.6865 216.96 69.4744C216.961 69.3926 216.968 69.3109 216.981 69.23L216.921 68.8519C216.895 68.5768 216.853 68.3037 216.792 68.0342C216.666 67.4215 216.537 66.791 216.407 66.1625ZM203.569 79.7647C202.077 79.8497 200.692 79.8154 199.54 79.8153C198.484 79.8993 197.423 79.7511 196.433 79.3816C196.154 79.2202 195.886 79.041 195.63 78.8451C195.431 78.6561 195.244 78.4552 195.07 78.2434C194.961 78.1134 194.86 77.9774 194.767 77.8362C194.884 78.7942 194.853 79.7651 194.675 80.7153C194.418 81.8801 193.847 82.9554 193.023 83.8261C193.714 83.4158 194.481 83.1458 195.278 83.0319C196.13 82.8312 196.984 82.6788 197.389 82.5707C198.174 82.3511 198.938 82.0658 199.675 81.7178C201.006 81.1333 202.305 80.4798 203.568 79.7602L203.569 79.7647ZM191.239 60.533C191.235 60.5208 191.235 60.5208 191.244 60.5061C189.921 60.9236 188.613 61.3112 187.312 61.6324C187.578 61.8695 187.866 62.1367 188.191 62.4421C189.447 63.5792 190.469 64.9455 191.204 66.467C191.247 66.5641 191.298 66.684 191.344 66.7821C191.338 66.6847 191.315 66.5791 191.309 66.4817C191.203 65.6594 191.143 64.8317 191.13 64.0024C191.088 63.3441 191.087 62.6837 191.127 62.025C191.157 61.4424 191.173 60.9521 191.239 60.533ZM191.322 73.8558C190.688 71.2494 189.939 69.029 189.329 67.2119C188.807 65.8197 188.065 64.5193 187.132 63.3588C186.715 62.81 186.383 62.3332 186.123 61.9186C181.052 63.13 176.041 63.7975 171.257 64.4671C170.052 64.6224 168.905 64.8075 167.741 64.9746C166.952 65.7371 166.487 66.77 166.443 67.8595C166.3 69.2842 166.386 70.7212 166.699 72.1168C167.283 74.8756 168.286 77.5286 169.674 79.9852C170.808 82.1758 172.41 84.093 174.369 85.6038C175.077 86.1737 175.968 86.4751 176.882 86.4546C177.019 86.4471 177.162 86.426 177.31 86.4151L178.989 86.2073C179.409 86.145 179.828 86.0832 180.229 86.0035C182.316 85.6056 184.365 85.0281 186.352 84.2775C188.027 83.7133 189.575 82.8301 190.911 81.6775L191.277 81.2975L191.536 80.9016C191.624 80.7904 191.689 80.6639 191.73 80.5288C191.801 80.3944 191.847 80.2487 191.867 80.0984C192.019 79.4196 192.066 78.7224 192.009 78.0305C191.907 76.6204 191.679 75.2227 191.328 73.8538L191.322 73.8558ZM162.867 67.4767C162.936 66.8786 163.054 66.2869 163.22 65.7075C162.641 65.8212 162.057 65.9162 161.515 66.0231L160.106 66.3691C161.115 67.3243 162.019 68.3823 162.804 69.5258C162.778 68.8414 162.801 68.1557 162.874 67.4742L162.867 67.4767ZM170.784 87.1279C169.491 85.9138 168.359 84.5424 167.413 83.0459C167.245 83.5648 167.014 84.0618 166.726 84.5259C166.201 85.3234 165.548 86.0309 164.794 86.6205C164.238 87.0367 163.672 87.4198 163.095 87.77C165.625 87.5711 168.191 87.3563 170.792 87.1254L170.784 87.1279ZM164.37 78.1617C164.042 77.1086 163.655 76.0747 163.212 75.0649C162.008 72.1228 160.481 69.3224 158.658 66.7144L156.943 67.1213C155.437 67.4734 153.971 68.0251 152.5 68.4519C151.029 68.8788 149.587 69.3854 148.169 69.8947C147.754 70.0427 147.336 70.1903 146.916 70.3267C147.203 74.8354 148.409 79.2352 150.461 83.2603C151.26 84.777 152.585 85.9548 154.193 86.5783C155.7 86.9801 157.3 86.8803 158.75 86.294C160.207 85.7578 161.59 85.0367 162.862 84.1488C163.343 83.8449 163.758 83.4496 164.083 82.9858C164.409 82.522 164.638 81.999 164.759 81.4474C164.875 80.3359 164.743 79.2137 164.37 78.1617ZM148.213 86.2039C147.944 85.843 147.684 85.4674 147.451 85.1031C145.186 80.9215 143.824 76.3147 143.45 71.5744C142.244 72.003 141.04 72.4307 139.861 72.8641C138.463 73.3177 137.064 73.8088 135.679 74.1336C134.622 74.4007 133.595 74.6416 132.568 74.845C133.29 77.5405 134.15 80.1969 135.146 82.8038C135.885 84.7164 137.233 86.3357 138.986 87.4175C140.401 88.2887 142.067 88.6743 143.729 88.5151C145.001 88.44 146.218 87.9625 147.2 87.1528C147.419 86.9811 147.628 86.7969 147.825 86.6011C147.964 86.4782 148.094 86.3455 148.213 86.2039ZM135.166 88.8207C134.291 87.9951 133.529 87.0593 132.898 86.0369C132.865 86.0835 132.829 86.1283 132.791 86.1713C132.429 86.5631 132.017 86.9059 131.565 87.1907C131.283 87.3683 130.976 87.5808 130.626 87.782L129.932 88.0813C131.621 88.3909 133.361 88.6348 135.166 88.8207ZM131.927 84.2358C130.944 82.105 131.171 78.4845 129.502 76.7499C129.317 76.5527 129.105 76.3828 128.872 76.2452C126.654 74.9126 122.895 76.2943 120.283 76.6065C120.183 76.6136 120.078 76.6359 119.979 76.6425C120.737 79.4032 122.031 81.988 123.789 84.2519C124.425 85.0417 125.297 85.6119 126.28 85.8815C126.48 85.9572 126.692 85.9941 126.906 85.9901C127.11 85.9982 127.308 86.0281 127.525 86.0388C127.933 85.9804 128.325 85.9895 128.704 85.9173C129.082 85.8451 129.43 85.7556 129.76 85.6857C130.089 85.6158 130.389 85.495 130.674 85.4026C131.229 85.2593 131.692 85.0973 132.059 84.9901C132.128 84.9686 132.199 84.954 132.271 84.9465L131.927 84.2358ZM118.647 85.2113C119.371 85.4619 120.104 85.709 120.853 85.9277C118.78 83.3195 117.251 80.3269 116.354 77.1231C115.978 77.1695 115.593 77.2203 115.264 77.2902C114.768 77.3886 114.289 77.4953 113.818 77.5909C112.026 78.0856 110.335 78.8912 108.823 79.9701C108.229 80.3871 107.642 80.8153 107.044 81.2216C107.466 81.2835 107.907 81.3643 108.341 81.4592C110.037 81.8782 111.697 82.4299 113.303 83.1092C114.147 83.4572 115.019 83.8211 115.918 84.1881C116.336 84.3525 116.87 84.6021 117.208 84.7164C117.684 84.8769 118.166 85.0441 118.647 85.2113Z" fill="#90B8D8"/>
<path d="M312.475 239.139C316.108 238.684 319.777 238.599 323.427 238.886C329.556 239.677 335.557 241.255 341.281 243.581C345.952 245.615 350.088 248.704 353.363 252.604C356.638 256.505 358.963 261.111 360.156 266.061C362.669 275.18 362.532 284.827 359.763 293.875C356.974 302.032 352.159 309.35 345.769 315.143C338.871 321.928 330.344 326.829 321.005 329.373C314.86 330.859 308.554 331.58 302.232 331.519C298.049 331.798 293.856 331.131 289.967 329.569C289.676 330.137 289.501 331.107 289.039 331.271C287.57 331.411 286.09 331.236 284.695 330.759C283.3 330.281 282.023 329.512 280.95 328.502C279.454 328.908 277.191 330.019 276.786 329.545C275.134 327.611 277.638 326.431 278.357 324.851C275.337 324.154 272.34 323.563 269.399 322.767C257.542 319.559 246.916 314.018 239.328 304.219C233.481 296.801 229.464 288.112 227.601 278.855C226.812 273.1 227.278 267.242 228.967 261.683C230.859 253.895 233.944 246.549 240.116 241.207C249.565 233.031 259.884 226.175 273.112 226.816C278.141 227.368 283.112 228.363 287.965 229.79C292.751 230.675 297.112 233.108 300.375 236.714C302.343 238.733 304.651 240.39 307.195 241.608C306.445 231.068 305.878 220.511 304.864 209.997C304.198 204.99 303.262 200.022 302.06 195.116C301.8 194.27 301.352 193.495 300.748 192.848C300.237 192.264 299.94 191.524 299.905 190.749C299.87 189.974 300.099 189.211 300.555 188.582C300.922 187.857 301.514 187.27 302.243 186.911C302.972 186.551 303.799 186.437 304.598 186.587C306.338 186.977 307.908 187.911 309.081 189.252C310.255 190.593 310.971 192.272 311.126 194.047C311.247 195.314 311.539 196.559 311.991 197.749C312.521 195.319 312.973 192.87 313.596 190.465C315.057 185.083 318.342 180.373 322.89 177.138C326.832 174.131 330.334 170.55 334.261 167.521C337.164 165.282 340.479 163.584 343.531 161.529C346.718 159.408 349.337 156.54 351.161 153.176C351.841 151.925 353.589 151.956 354.453 153.562C355.812 155.929 356.861 158.46 357.576 161.093C358.504 164.904 359.091 168.79 359.328 172.705C359.267 175.269 358.9 177.816 358.233 180.293C357.643 183.363 356.998 186.429 356.231 189.459C354.677 195.609 351.02 201.024 345.893 204.765C339.07 209.591 330.973 212.297 322.619 212.545C321.659 212.609 320.696 212.547 319.753 212.361C317.162 211.839 316.121 213.315 315.023 215.358C313.835 218.154 313.339 221.195 313.578 224.223C313.403 229.258 312.853 234.279 312.475 239.139ZM287.975 233.245L288.138 232.597C282.911 231.783 277.711 230.628 272.454 230.232C263.538 229.56 256.085 233.554 249.008 238.453C244.659 241.21 240.868 244.76 237.833 248.917C234.561 254.013 232.498 259.789 231.802 265.802C230.654 271.241 230.706 276.864 231.955 282.28C233.49 287.342 235.655 292.191 238.398 296.714C240.001 299.682 241.93 302.462 244.148 305.003C251.79 312.973 261.662 318.454 272.473 320.73C275.845 321.897 279.473 322.118 282.962 321.369C283.799 321.114 285.702 321.719 285.845 322.261C286.644 325.307 289.287 326.096 291.553 326.732C299.858 328.86 308.554 328.968 316.911 327.046C326.537 325.086 335.416 320.454 342.529 313.684C350.175 306.488 356.045 298.258 357.619 287.466C359.225 277.845 357.735 267.964 353.363 259.245C349.847 252.286 343.888 248.292 337.006 245.529C333.587 244.377 330.093 243.457 326.55 242.775C319.737 241.066 313.122 240.919 307.029 245.189C306.789 245.284 306.53 245.32 306.274 245.295C306.018 245.269 305.771 245.182 305.555 245.041C303.202 243.231 300.804 241.454 298.63 239.442C295.53 236.573 292.487 233.715 287.975 233.245ZM350.094 168.08C350.796 167.775 351.528 167.547 352.278 167.399C353.158 167.385 354.037 167.44 354.908 167.565C354.435 168.385 353.858 169.141 353.189 169.813C352.122 170.647 350.79 171.137 349.69 171.938C348.612 172.722 347.684 173.713 346.236 175.024C347.458 174.885 348.689 174.841 349.918 174.895C350.435 174.968 350.88 175.548 351.357 175.9C351.021 176.445 350.593 176.929 350.093 177.33C349.421 177.596 348.714 177.763 347.994 177.827C346.368 178.232 344.855 178.998 343.566 180.068C342.277 181.137 341.245 182.483 340.548 184.006L354.037 184.254C356.962 175.765 356.732 162.662 353.418 157.617L350.094 168.08ZM322.644 201.812C329.823 200.078 336.188 201.447 342.587 202.269C343.302 202.326 344.011 202.099 344.56 201.638C346.227 200.061 347.764 198.347 349.873 196.136C348.257 195.848 346.62 195.69 344.979 195.664C340.428 196.036 335.891 196.574 331.349 197.055C329.97 196.985 328.59 197.177 327.281 197.62C325.596 198.855 324.042 200.26 322.644 201.812ZM331.264 194.055C332.514 193.908 333.266 193.767 334.021 193.74C338.723 193.577 343.429 193.272 348.128 193.353C351.007 193.403 352.043 193.004 352.786 190.149C353.044 189.158 353.108 188.117 353.32 186.705C349.594 186.788 346.095 186.725 342.621 186.997C340.563 187.002 338.535 187.492 336.702 188.425C334.681 190.09 332.857 191.978 331.264 194.055ZM315.012 206.307C316.994 203.655 319.141 201.13 321.439 198.746C322.756 197.693 323.744 196.285 324.286 194.689C324.828 193.093 324.901 191.375 324.497 189.739C323.923 186.906 323.829 183.976 323.522 181.089L322.821 180.963C322.058 181.94 321.48 183.047 321.116 184.231C320.712 188.367 320.64 192.534 320.353 196.683C320.182 197.399 319.899 198.083 319.514 198.71L318.419 198.519C318.27 194.917 318.121 191.316 317.964 187.532C315.398 193.439 314.383 199.9 315.012 206.307ZM317.885 208.789C325.878 210.615 332.933 208.164 339.791 204.593C333.989 203.421 328.154 202.498 322.543 204.897C320.818 205.634 317.923 205.475 317.885 208.789ZM331.175 173.677C329.486 175.459 326.785 176.981 326.602 178.761C326.41 183.299 326.557 187.845 327.043 192.361L327.777 192.449C329.674 190.427 331.572 188.403 333.472 186.378C329.904 182.623 333.158 178.108 331.175 173.677ZM309.441 226.885L310.324 226.826C310.195 222.866 310.207 218.895 309.906 214.948C309.37 207.922 308.658 200.91 307.983 193.895C307.869 192.708 307.491 191.62 305.9 191.88C304.25 192.149 304.384 193.209 304.745 194.415C304.937 195.113 305.091 195.82 305.205 196.535C306.104 201.416 307.161 206.276 307.841 211.188C308.563 216.394 308.923 221.65 309.441 226.885ZM339.016 168.465C335.85 170.051 333.832 171.405 334.446 174.787C334.563 176.544 334.548 178.308 334.4 180.064C334.434 181.456 334.652 182.843 334.788 184.232L335.473 184.462C337.145 182.702 338.704 180.838 340.139 178.88C340.593 178.191 339.972 176.797 339.848 175.725C339.586 173.458 339.328 171.19 339.016 168.465ZM349.002 161.895L348.502 161.695C346.937 162.636 345.428 163.67 343.986 164.791C342.915 165.536 342.136 166.627 341.78 167.881C341.784 170.31 341.977 172.735 342.355 175.135L343.13 175.359L349.002 161.895Z" fill="#90B8D8"/>
</svg>
