<svg width="37" height="44" viewBox="0 0 37 44" fill="none" xmlns="http://www.w3.org/2000/svg">
<path opacity="0.81" d="M35.8241 36.1462C33.2488 37.4016 28.0862 29.5438 27.8765 29.114C26.2987 26.425 23.5284 25.6475 22.1359 26.0603C20.8482 26.688 20.0751 29.459 21.0091 32.4619C21.2188 32.8917 24.2354 41.7957 21.6601 43.0511C19.0848 44.3066 13.1833 35.479 12.9687 35.5836C11.0714 32.7843 9.618 28.1725 9.20344 26.7786C7.08668 24.6183 -0.531692 16.6276 0.790145 12.259C1.44374 10.8763 2.52166 9.81883 4.23851 8.98186C5.52615 8.35414 7.13326 7.83668 8.84523 7.53413C10.2377 7.12129 11.4156 6.81308 12.4887 6.28998C13.5617 5.76687 14.5299 5.02887 15.7127 4.18625C17.0052 3.02411 18.4026 2.07687 19.6902 1.44914C21.4071 0.612172 22.9044 0.414236 24.2872 1.07022C28.5451 2.71868 30.1545 13.6387 30.5544 16.636C31.2933 17.6058 34.0343 21.5898 35.0732 24.8076C35.2878 24.703 38.614 34.7861 35.8241 36.1462Z" fill="white" fill-opacity="0.3"/>
</svg>
