<svg width="34" height="35" viewBox="0 0 34 35" fill="none" xmlns="http://www.w3.org/2000/svg">
<path d="M0.969268 8.82816C2.77295 7.31537 8.45217 12.555 8.70487 12.856C10.4977 14.6866 12.8613 14.7561 13.8895 14.1502C14.7913 13.3938 14.8566 11.0307 13.5147 8.82191C13.262 8.52088 9.08584 2.02059 10.8895 0.507799C12.6932 -1.00499 19.1545 4.86112 19.3048 4.73506C21.3743 6.59009 23.4504 9.97852 24.0582 11.0077C26.1757 12.3095 33.8394 17.1671 33.6543 20.9131C33.4082 22.1455 32.759 23.2029 31.5566 24.2115C30.6547 24.9679 29.4762 25.6998 28.1714 26.2813C27.1432 26.8871 26.2653 27.367 25.5138 27.9973C24.7622 28.6276 24.1371 29.4085 23.3616 30.3154C22.5621 31.4989 21.6363 32.5318 20.7345 33.2882C19.532 34.2968 18.3775 34.7521 17.1445 34.5038C13.4216 34.0355 9.96646 25.6481 9.05148 23.3377C8.26941 22.7112 5.29147 20.0792 3.82318 17.7199C3.67287 17.8459 -0.984722 10.467 0.969268 8.82816Z" fill="white" fill-opacity="0.3"/>
</svg>
