<svg width="38" height="45" viewBox="0 0 38 45" fill="none" xmlns="http://www.w3.org/2000/svg">
<path opacity="0.92" d="M15.6999 44.5943C13.0407 43.298 16.1556 34.1039 16.3721 33.6601C17.5582 30.6675 16.43 27.9201 15.2086 27.05C13.879 26.4018 11.1316 27.5346 9.28079 30.2032C9.06423 30.647 3.73328 38.7608 1.07402 37.4644C-1.58524 36.1681 1.84946 25.7565 1.62786 25.6485C2.70057 22.3259 5.53099 18.2121 6.40227 16.9887C6.81522 13.8939 8.47708 2.61806 12.8739 0.91591C14.415 0.568476 15.9612 0.772861 17.734 1.6371C19.0637 2.28527 20.5066 3.26337 21.8413 4.46337C23.0626 5.33344 24.0624 6.09548 25.1704 6.63563C26.2784 7.17577 27.4947 7.49402 28.9326 7.92031C30.7004 8.23272 32.36 8.76703 33.6896 9.41521C35.4624 10.2794 36.5755 11.3714 36.9205 12.913C38.2854 17.4239 30.4187 25.6749 28.2329 27.9055C27.9131 29.123 26.4123 33.885 24.4532 36.7755C24.6748 36.8835 18.5808 45.9987 15.6999 44.5943Z" fill="white" fill-opacity="0.3"/>
</svg>
