<svg width="30" height="35" viewBox="0 0 30 35" fill="none" xmlns="http://www.w3.org/2000/svg">
<path opacity="0.98" d="M13.2203 34.381C11.1366 33.4098 13.432 26.2238 13.5942 25.876C14.4752 23.5347 13.5613 21.4152 12.6005 20.7557C11.5586 20.2701 9.4394 21.1876 8.03754 23.2861C7.8753 23.6339 3.84339 30.0105 1.75963 29.0393C-0.324128 28.0681 2.20327 19.9318 2.02962 19.8509C2.818 17.2547 4.96134 14.0199 5.62171 13.0575C5.90056 10.6472 7.03878 1.86345 10.4319 0.48128C11.6246 0.190434 12.8287 0.328281 14.2179 0.975756C15.2598 1.46136 16.3942 2.20178 17.4474 3.11608C18.4082 3.77557 19.1953 4.35412 20.0636 4.7588C20.9318 5.16347 21.8811 5.39426 23.0041 5.70599C24.3819 5.92477 25.6786 6.31743 26.7204 6.80304C28.1096 7.45051 28.9893 8.28388 29.2782 9.47701C30.4 12.9635 24.3996 19.4811 22.7316 21.2439C22.4997 22.1943 21.3982 25.9147 19.9152 28.1871C20.0889 28.268 15.4777 35.4331 13.2203 34.381Z" fill="white" fill-opacity="0.3"/>
</svg>
