<svg width="34" height="40" viewBox="0 0 34 40" fill="none" xmlns="http://www.w3.org/2000/svg">
<path opacity="0.98" d="M13.7276 39.2281C11.4502 37.9663 14.6115 30.0291 14.8222 29.649C16.0025 27.0734 15.1376 24.6068 14.1043 23.7858C12.9656 23.1549 10.4988 24.0241 8.74915 26.2843C8.53837 26.6644 3.47923 33.5501 1.20182 32.2883C-1.07559 31.0265 2.42288 22.034 2.23309 21.9288C3.32899 19.058 6.00614 15.5727 6.82827 14.5376C7.33381 11.8365 9.314 2.00278 13.2567 0.709184C14.6271 0.474776 15.9766 0.725593 17.4949 1.56678C18.6336 2.19768 19.8567 3.12376 20.9744 4.23987C22.0077 5.0608 22.8513 5.77659 23.8002 6.30233C24.7491 6.82807 25.8034 7.16378 27.0475 7.60463C28.5868 7.9606 30.0207 8.50661 31.1594 9.1375C32.6776 9.97869 33.6056 10.9897 33.8377 12.3604C34.8295 16.3879 27.5353 23.2775 25.5115 25.1374C25.1743 26.1927 23.6359 30.3089 21.7809 32.7591C21.9706 32.8643 16.1948 40.5951 13.7276 39.2281Z" fill="white" fill-opacity="0.3"/>
</svg>
