<svg width="47" height="43" viewBox="0 0 47 43" fill="none" xmlns="http://www.w3.org/2000/svg">
<path opacity="0.98" d="M37.2542 1.88715C38.847 4.56216 30.7967 10.8601 30.3499 11.1259C27.578 13.0766 26.9851 16.1461 27.5581 17.6165C28.3544 18.954 31.4272 19.5412 34.5972 18.2592C35.0441 17.9934 44.4216 13.9247 46.0144 16.5997C47.6071 19.2747 38.5725 26.4601 38.7052 26.683C35.8426 28.9895 30.9758 30.9788 29.5025 31.5534C27.3522 34.0399 19.3794 43.0086 14.5259 41.9713C12.9685 41.3884 11.7253 40.3167 10.6634 38.5333C9.86704 37.1958 9.16137 35.5025 8.67912 33.6763C8.10617 32.2059 7.66596 30.9584 7.00231 29.8438C6.33866 28.7292 5.45158 27.7475 4.43177 26.5429C3.0558 25.2483 1.90325 23.8208 1.10687 22.4833C0.0450351 20.6999 -0.304477 19.0966 0.281764 17.5404C1.68432 12.7818 13.3736 10.0548 16.5857 9.35163C17.5701 8.46418 21.6405 5.13732 25.034 3.72248C24.9013 3.49956 35.5287 -1.01078 37.2542 1.88715Z" fill="white" fill-opacity="0.3"/>
</svg>
