<svg width="31" height="40" viewBox="0 0 31 40" fill="none" xmlns="http://www.w3.org/2000/svg">
<path d="M28.2764 35.5809C25.6424 36.2373 22.4065 27.9387 22.2969 27.4991C21.3646 24.6965 18.9505 23.4304 17.5786 23.5388C16.2616 23.867 14.999 26.2828 15.2727 29.2496C15.3824 29.6892 16.4232 38.5348 13.7891 39.1913C11.1551 39.8477 7.42561 30.5048 7.2061 30.5595C5.9995 27.5917 5.56146 23.0317 5.45199 21.6582C3.91604 19.2394 -1.56945 10.3342 0.516512 6.54586C1.39472 5.39315 2.60209 4.62534 4.35813 4.18772C5.67515 3.85951 7.26651 3.69639 8.9127 3.75307C10.2846 3.64465 11.4369 3.59094 12.5344 3.31743C13.6319 3.04392 14.6746 2.55061 15.9368 2.00259C17.3637 1.18008 18.8454 0.577365 20.1624 0.249151C21.9185 -0.188468 23.3452 -0.077086 24.4973 0.803094C28.1185 3.16913 27.4578 13.6061 27.2377 16.4625C27.7314 17.5067 29.4865 21.7386 29.8151 24.9252C30.0346 24.8705 31.13 34.8698 28.2764 35.5809Z" fill="white" fill-opacity="0.3"/>
</svg>
