<svg width="31" height="40" viewBox="0 0 31 40" fill="none" xmlns="http://www.w3.org/2000/svg">
<path d="M1.92819 35.5809C4.56224 36.2373 7.79805 27.9387 7.90771 27.4991C8.83998 24.6965 11.2541 23.4304 12.626 23.5388C13.943 23.867 15.2056 26.2828 14.9318 29.2496C14.8222 29.6892 13.7814 38.5348 16.4155 39.1913C19.0495 39.8477 22.779 30.5048 22.9985 30.5595C24.2051 27.5917 24.6431 23.0317 24.7526 21.6582C26.2886 19.2394 31.774 10.3342 29.6881 6.54586C28.8099 5.39315 27.6025 4.62534 25.8465 4.18772C24.5294 3.85951 22.9381 3.69639 21.2919 3.75307C19.92 3.64465 18.7677 3.59094 17.6702 3.31743C16.5726 3.04392 15.53 2.55061 14.2678 2.00259C12.8409 1.18008 11.3592 0.577365 10.0421 0.249151C8.28611 -0.188468 6.85943 -0.077086 5.70728 0.803094C2.08613 3.16913 2.74676 13.6061 2.96684 16.4625C2.47319 17.5067 0.718121 21.7386 0.389538 24.9252C0.170034 24.8705 -0.925371 34.8698 1.92819 35.5809Z" fill="white" fill-opacity="0.3"/>
</svg>
