<svg width="37" height="46" viewBox="0 0 37 46" fill="none" xmlns="http://www.w3.org/2000/svg">
<path d="M14.4177 20.9514C14.7963 20.0845 15.2622 19.2583 15.808 18.4857C16.7933 17.2291 17.9369 16.1051 19.2102 15.1415C20.2798 14.3732 21.513 13.8634 22.8131 13.652C24.1132 13.4406 25.4448 13.5334 26.7034 13.9232C29.0638 14.5716 31.1916 15.8779 32.8383 17.6898C34.2845 19.3882 35.2763 21.4254 35.7208 23.6109C36.3192 26.0404 36.2829 28.5824 35.6155 30.9929C35.1344 32.5543 34.462 34.0501 33.6135 35.4462C33.123 36.4121 32.4211 37.2549 31.5598 37.912C31.6478 38.0519 31.8403 38.219 31.8159 38.3434C31.653 38.6879 31.4186 38.9937 31.1282 39.2403C30.8377 39.4869 30.498 39.6687 30.1317 39.7736C30.0244 40.1594 29.9726 40.809 29.8137 40.8362C29.1653 40.9473 29.2335 40.2351 28.977 39.8663C28.4232 40.4449 27.8959 41.0322 27.3304 41.5801C25.0508 43.7891 22.4149 45.4161 19.2331 45.8051C16.811 46.1222 14.3478 45.865 12.0426 45.0543C10.6583 44.4682 9.41691 43.5899 8.40335 42.4795C6.92093 41.029 5.69419 39.3723 5.32131 37.295C4.75047 34.1149 4.58843 30.9162 6.47803 28.0635C7.26499 27.0194 8.14279 26.0471 9.10119 25.1579C9.93013 24.2122 11.0473 23.5656 12.2804 23.3178C12.9894 23.148 13.6628 22.8544 14.2696 22.4506C11.8261 21.2231 9.40297 19.9525 6.93033 18.7869C5.7286 18.2725 4.50004 17.8233 3.25001 17.4412C3.02764 17.3869 2.79588 17.384 2.57228 17.4326C2.37492 17.4687 2.17112 17.4368 1.99415 17.342C1.81719 17.2473 1.67754 17.0954 1.59801 16.9111C1.48512 16.7337 1.43285 16.5246 1.4491 16.315C1.46534 16.1055 1.5492 15.907 1.68807 15.7493C2.00471 15.4146 2.41968 15.1893 2.87297 15.1061C3.32625 15.0229 3.79436 15.0861 4.2096 15.2864C4.50751 15.427 4.82289 15.527 5.1473 15.5838C4.67691 15.1448 4.19171 14.7205 3.73913 14.2639C2.73485 13.2275 2.12098 11.8749 2.00224 10.437C1.85395 9.16376 1.52007 7.91227 1.36479 6.63945C1.25001 5.69868 1.31034 4.73796 1.25624 3.78815C1.20531 2.7998 0.91346 1.83873 0.406137 0.988687C0.217534 0.672207 0.455372 0.288119 0.926662 0.308751C1.63252 0.320054 2.33408 0.421738 3.01423 0.611318C3.98448 0.90921 4.92628 1.29305 5.82845 1.75828C6.39074 2.11084 6.90883 2.52945 7.37165 3.00517C7.9768 3.54235 8.57336 4.0911 9.14625 4.66232C10.309 5.82083 11.0303 7.34915 11.1855 8.98273C11.3577 11.1364 10.8903 13.2925 9.84206 15.1808C9.72952 15.4023 9.58852 15.6081 9.42264 15.793C8.96433 16.2993 9.15519 16.7257 9.46457 17.2397C9.92968 17.8735 10.5406 18.3859 11.2456 18.7335C12.3423 19.4383 13.3867 20.2245 14.4177 20.9514ZM9.87108 25.6128L9.74831 25.491C8.8771 26.544 7.9334 27.5461 7.15089 28.6614C5.82391 30.5527 5.72789 32.736 5.88293 34.9559C5.92192 36.2864 6.21091 37.5979 6.7348 38.8218C7.43609 40.2226 8.44826 41.4447 9.69392 42.3947C10.7521 43.3692 12.0098 44.1014 13.3794 44.5405C14.7081 44.8691 16.0726 45.0298 17.441 45.0189C18.3128 45.0554 19.1859 44.9948 20.0441 44.8383C22.8262 44.1952 25.3491 42.7279 27.2834 40.628C27.9882 40.0335 28.5165 39.2571 28.8108 38.383C28.8646 38.1635 29.2505 37.8208 29.3899 37.8609C30.173 38.0864 30.6976 37.6036 31.1382 37.1845C32.7085 35.6216 33.881 33.7047 34.5573 31.5945C35.3924 29.1974 35.5349 26.6129 34.9684 24.1374C34.3776 21.4875 33.3222 19.0953 31.1296 17.3181C29.2017 15.6888 26.807 14.7127 24.2902 14.5305C22.2777 14.3907 20.6025 15.1857 19.079 16.3485C18.3712 16.9556 17.7051 17.6098 17.0854 18.3065C15.8055 19.5935 14.8991 21.0432 15.0443 22.9612C15.0338 23.027 15.0077 23.0893 14.9681 23.1428C14.9285 23.1964 14.8766 23.2396 14.8168 23.269C14.1032 23.552 13.3914 23.8495 12.6565 24.0663C11.6091 24.3752 10.5715 24.6729 9.87108 25.6128ZM3.58033 3.19716C3.60515 3.00107 3.65104 2.80825 3.7172 2.62203C3.8302 2.42479 3.95866 2.23682 4.10137 2.05989C4.22149 2.27343 4.3133 2.50169 4.37447 2.7389C4.41908 3.0863 4.35207 3.44698 4.38495 3.79713C4.41715 4.14032 4.51485 4.4774 4.61534 4.9725C4.74567 4.68265 4.89864 4.40355 5.07284 4.13777C5.15731 4.03259 5.34525 4.01055 5.48656 3.95104C5.56338 4.0979 5.61446 4.25683 5.63758 4.42091C5.60794 4.60534 5.55182 4.78451 5.47096 4.95286C5.34639 5.36751 5.31685 5.80497 5.38453 6.23274C5.45221 6.66052 5.61538 7.06762 5.86191 7.42381L7.69877 4.4609C6.19674 2.68845 3.25171 1.00634 1.69192 1.0748L3.58033 3.19716ZM7.45803 13.7555C8.0205 11.9317 9.1656 10.6993 10.1936 9.38678C10.3006 9.2355 10.3438 9.04812 10.3138 8.86515C10.1833 8.2864 10.0049 7.71836 9.79168 6.9574C9.51421 7.27824 9.26295 7.62085 9.04033 7.98194C8.52195 9.04175 8.04243 10.1206 7.54968 11.1929C7.35193 11.49 7.21223 11.8218 7.13797 12.171C7.19007 12.7087 7.29732 13.2397 7.45803 13.7555ZM6.87096 10.815C7.00352 10.5179 7.07127 10.3323 7.1652 10.1611C7.74976 9.09514 8.30357 8.00976 8.94221 6.97703C9.33361 6.34414 9.38168 6.06128 8.84462 5.51845C8.65832 5.33015 8.4352 5.17826 8.14899 4.94446C7.67542 5.78281 7.19922 6.55165 6.80107 7.35903C6.53046 7.81678 6.37147 8.33191 6.33697 8.86271C6.44032 9.53156 6.61947 10.1865 6.87096 10.815ZM7.44982 16.045C7.12179 15.254 6.84361 14.4432 6.61694 13.6175C6.55663 13.1856 6.37395 12.78 6.0905 12.4485C5.80704 12.117 5.43466 11.8735 5.01739 11.7469C4.31138 11.4998 3.64727 11.1329 2.96452 10.8192L2.84391 10.9584C2.96035 11.2569 3.13039 11.5317 3.34562 11.7691C4.21226 12.4059 5.1297 12.9731 6.01462 13.5859C6.15119 13.7186 6.26597 13.8719 6.35471 14.0404L6.16757 14.2581C5.34675 13.8149 4.52593 13.3716 3.66356 12.9059C4.63856 14.257 5.94168 15.3373 7.44982 16.045ZM8.38147 15.7352C9.84327 14.2018 10.2298 12.3106 10.3413 10.3152C9.31434 11.4489 8.33834 12.6225 8.13093 14.1859C8.06717 14.6665 7.64921 15.2885 8.38147 15.7352ZM2.32648 8.1392C2.49977 8.75001 2.48182 9.55115 2.8536 9.82725C3.83756 10.4703 4.86817 11.039 5.93681 11.5284L6.05328 11.3769C5.85402 10.6881 5.6546 9.99887 5.45503 9.30908C4.1486 9.60468 3.57407 8.28502 2.32648 8.1392ZM11.2914 20.0041L11.3949 19.8004C10.497 19.3052 9.61539 18.7772 8.69765 18.322C7.06406 17.5117 5.41023 16.7421 3.76082 15.9641C3.48178 15.8325 3.18964 15.7724 3.03729 16.1602C2.87938 16.5623 3.1327 16.6728 3.44887 16.7521C3.62935 16.8018 3.807 16.8613 3.98103 16.9303C5.18546 17.3765 6.40606 17.7845 7.5885 18.2831C8.8418 18.8116 10.0586 19.4268 11.2914 20.0041ZM2.20286 5.70845C2.13744 6.62121 2.17206 7.24843 3.00538 7.55948C3.41185 7.76596 3.80221 8.00274 4.17316 8.26783C4.48716 8.44442 4.82452 8.57948 5.15152 8.73298L5.29311 8.61126C5.12257 8.00705 4.91368 7.41431 4.66769 6.83666C4.57443 6.64466 4.18247 6.59822 3.92761 6.48392C3.38869 6.2422 2.85018 5.99958 2.20286 5.70845ZM2.0603 2.62149L1.94976 2.706C1.95234 3.1783 1.98313 3.65005 2.04198 4.11871C2.06624 4.45488 2.20615 4.77236 2.43792 5.01719C2.97882 5.33765 3.54368 5.61577 4.12745 5.84905L4.27966 5.70664L2.0603 2.62149Z" fill="#90B8D8"/>
</svg>
