<svg width="40" height="33" viewBox="0 0 40 33" fill="none" xmlns="http://www.w3.org/2000/svg">
<path fill-rule="evenodd" clip-rule="evenodd" d="M39.0238 1.65597C38.9719 1.90908 38.8484 2.14947 38.6547 2.35191C36.732 4.40672 23.0668 18.9647 20.7242 20.5185C19.2486 21.4786 17.4966 21.8133 15.7896 21.4629C12.2082 20.7278 9.97223 17.2291 10.704 13.664C11.0578 11.9402 12.0591 10.4592 13.5239 9.49489C15.5032 8.17634 27.9772 3.47954 37.188 0.0613073C38.1897 -0.319462 39.2393 0.605902 39.0238 1.65597ZM20.113 19.5812C22.102 18.2058 32.1925 7.62178 37.8467 1.58007C37.9832 1.43748 37.9325 1.3045 37.8905 1.23803C37.8553 1.18177 37.752 1.05762 37.5622 1.11769C32.2764 3.07938 16.2376 9.03113 14.1372 10.4317C11.6405 12.0755 10.9429 15.4839 12.5767 18.0343C14.2478 20.5601 17.5559 21.2391 20.113 19.5812Z" fill="#90B8D8"/>
<path fill-rule="evenodd" clip-rule="evenodd" d="M12.6347 18.4484C12.6216 18.5124 12.5972 18.5741 12.5622 18.6306C11.953 19.6175 9.2693 23.8499 8.27235 24.4307C6.87573 25.3099 4.99231 24.8547 4.15831 23.5725C3.2715 22.1913 3.64172 20.3875 5.00092 19.4673C6.17552 18.6719 11.4136 17.8693 12.007 17.7813C12.3933 17.7242 12.7122 18.0711 12.6347 18.4484ZM7.67335 23.486C8.28366 23.0641 9.80465 20.871 10.9553 19.0852C8.85235 19.443 6.22503 19.9892 5.62343 20.3972C4.77626 20.9705 4.54399 22.0926 5.09158 22.9551C5.65672 23.7654 6.834 24.007 7.67335 23.486Z" fill="#90B8D8"/>
<path fill-rule="evenodd" clip-rule="evenodd" d="M13.6685 25.3206C13.3406 26.9183 11.7889 27.9687 10.2104 27.6624C8.6101 27.3339 7.58222 25.7609 7.91208 24.1538C7.99628 23.7436 8.31166 23.1004 8.93618 22.0676C9.09596 21.8023 9.43904 21.7178 9.70248 21.8787C9.96612 22.0387 10.0493 22.3843 9.88876 22.6484C9.22581 23.7449 9.04186 24.1945 9.0042 24.378C8.79871 25.3791 9.43835 26.3586 10.4303 26.5622C11.4057 26.7516 12.3705 26.0946 12.5754 25.0963C12.7496 24.2476 12.0521 20.5852 11.5723 18.4756C11.5035 18.1741 11.6912 17.8724 11.9922 17.8028C12.2923 17.733 12.5921 17.921 12.6607 18.2234C12.7927 18.8065 13.9487 23.9554 13.6685 25.3206Z" fill="#90B8D8"/>
<path fill-rule="evenodd" clip-rule="evenodd" d="M12.5646 18.682C12.381 18.9306 12.0315 18.9844 11.7845 18.8003C10.0376 17.5043 6.93926 15.3799 6.05864 15.1992C5.06852 14.9959 4.09559 15.664 3.91604 16.6529C3.91527 16.6566 3.9143 16.6613 3.91353 16.6651C3.70457 17.6832 4.33084 18.6422 5.33967 18.8493C5.58954 18.9006 6.58594 18.7786 7.32866 18.7094C7.63505 18.6801 7.90746 18.9067 7.93575 19.2155C7.96424 19.5233 7.73825 19.7976 7.43092 19.8267C6.33193 19.9306 5.55468 20.0397 5.1139 19.9492C3.58755 19.636 2.47246 18.1363 2.8309 16.3899C3.15381 14.8167 4.70226 13.7774 6.28382 14.102C7.69319 14.3913 11.9659 17.5412 12.4483 17.8991C12.6974 18.0826 12.747 18.435 12.5646 18.682Z" fill="#90B8D8"/>
<path fill-rule="evenodd" clip-rule="evenodd" d="M16.9801 12.9214C16.722 13.091 16.3763 13.0171 16.2081 12.7581L14.276 9.76987C14.1087 9.51099 14.1821 9.16323 14.4402 8.99363C14.6983 8.82403 15.044 8.89792 15.2122 9.15699L17.1443 12.1452C17.3114 12.405 17.2383 12.7518 16.9801 12.9214Z" fill="#90B8D8"/>
<path fill-rule="evenodd" clip-rule="evenodd" d="M23.4628 18.0341C23.2031 18.2015 22.8588 18.1259 22.6917 17.866L20.8304 14.9463C20.6644 14.6857 20.7404 14.3395 20.9993 14.171C21.2589 14.0037 21.6033 14.0793 21.7703 14.3391L23.6316 17.2588C23.7998 17.5228 23.7201 17.8683 23.4628 18.0341Z" fill="#90B8D8"/>
<path fill-rule="evenodd" clip-rule="evenodd" d="M23.8195 9.88138C23.5636 10.0544 23.2175 9.98727 23.045 9.73025L21.1442 6.8936C20.9726 6.63678 21.0401 6.28881 21.2963 6.11487C21.5522 5.94186 21.8983 6.00898 22.0708 6.266L23.9716 9.10264C24.1432 9.35947 24.0757 9.70744 23.8195 9.88138Z" fill="#90B8D8"/>
<path fill-rule="evenodd" clip-rule="evenodd" d="M28.8088 12.6557C28.5514 12.8265 28.2052 12.7554 28.0356 12.498L26.1562 9.63338C25.9868 9.37505 26.0574 9.02672 26.3148 8.85598C26.5722 8.68525 26.9184 8.75632 27.088 9.0137L28.9674 11.8783C29.1377 12.1368 29.0662 12.485 28.8088 12.6557Z" fill="#90B8D8"/>
<path fill-rule="evenodd" clip-rule="evenodd" d="M34.0197 7.22031C33.7594 7.38652 33.4146 7.30792 33.2498 7.0466L32.3081 5.54817C32.1432 5.28685 32.2222 4.94025 32.4826 4.77404C32.7429 4.60784 33.0876 4.68644 33.2525 4.94776L34.1942 6.44619C34.3583 6.70637 34.282 7.05449 34.0197 7.22031Z" fill="#90B8D8"/>
</svg>
