<svg width="39" height="46" viewBox="0 0 39 46" fill="none" xmlns="http://www.w3.org/2000/svg">
<path d="M0.697803 42.6619C0.70144 42.6572 0.705236 42.6524 0.709103 42.6478L4.65756 37.8772L7.53183 16.7397C7.55121 16.5731 7.57825 16.4098 7.61145 16.2494C7.61502 16.2255 7.62025 16.2018 7.6271 16.1785C8.09986 14.0439 9.81114 12.4749 12.509 11.7286C12.5209 11.7253 12.533 11.7224 12.5452 11.7199C12.8788 11.6531 13.2164 11.6081 13.5557 11.5851C13.8289 11.1432 14.3748 10.8702 15.1175 10.8013L14.5141 0.871623C14.506 0.737352 14.5502 0.604821 14.6376 0.501597C14.7251 0.398373 14.849 0.332403 14.9836 0.317412L17.6344 0.0223687C17.7095 0.0140079 17.7855 0.0218181 17.8571 0.0452692C17.9287 0.06872 17.9943 0.107261 18.0494 0.158271C18.1046 0.20928 18.1479 0.271561 18.1766 0.340876C18.2052 0.410192 18.2185 0.484915 18.2154 0.559965L18.1396 2.42636L20.0411 3.16354L20.5728 1.63285C20.5994 1.55646 20.6433 1.48711 20.7011 1.43021C20.759 1.37332 20.8292 1.33043 20.9063 1.30489C20.9834 1.27936 21.0653 1.27188 21.1456 1.28303C21.2259 1.29418 21.3024 1.32366 21.3691 1.36917L25.1724 3.96239C25.2318 4.00294 25.2822 4.05529 25.3203 4.11617C25.3583 4.17706 25.3833 4.24517 25.3937 4.31626C25.404 4.38734 25.3995 4.45987 25.3804 4.52932C25.3614 4.59876 25.3281 4.66363 25.2827 4.71987L23.1001 7.42567L24.1026 8.29765C24.1573 8.34525 24.2015 8.40371 24.2321 8.46931C24.2628 8.53491 24.2794 8.60622 24.2808 8.67871C24.2823 8.7512 24.2685 8.82328 24.2405 8.89037C24.2124 8.95747 24.1707 9.01812 24.1179 9.06845L20.2592 12.7485C20.8033 13.319 21.0398 13.9105 20.9327 14.4402C21.1667 14.6866 21.3836 14.9485 21.5817 15.2243C21.5882 15.2336 21.5945 15.243 21.6005 15.2525C23.1566 17.7603 23.027 19.7129 22.4867 21.0555C22.9436 21.1221 23.395 21.2209 23.8375 21.3512C23.8493 21.3546 23.8611 21.3585 23.8726 21.3628C24.1904 21.481 24.4999 21.6199 24.7992 21.7785C25.265 21.5456 25.8719 21.5994 26.537 21.9306L31.3017 13.1512C31.3661 13.0324 31.474 12.9427 31.6028 12.9006C31.7317 12.8586 31.8716 12.8674 31.9934 12.9254L34.3932 14.0663C34.4611 14.0986 34.5212 14.1452 34.5693 14.2028C34.6174 14.2603 34.6524 14.3276 34.6719 14.4C34.6914 14.4724 34.695 14.5482 34.6824 14.6223C34.6698 14.6964 34.6414 14.767 34.599 14.8293L33.5434 16.3803L34.7606 18.0072L36.0232 16.9822C36.0862 16.9311 36.1602 16.8951 36.2393 16.877C36.3184 16.859 36.4006 16.8593 36.4793 16.8781C36.5581 16.8968 36.6313 16.9334 36.6933 16.9851C36.7552 17.0367 36.8043 17.1019 36.8366 17.1757L38.6766 21.3826C38.7044 21.4461 38.7192 21.5145 38.7201 21.5839C38.721 21.6533 38.708 21.7222 38.6818 21.7867C38.6557 21.8513 38.6169 21.91 38.5678 21.9596C38.5186 22.0092 38.4601 22.0486 38.3956 22.0755C38.3865 22.0794 38.3771 22.0833 38.3676 22.0864L35.0837 23.2462L35.4688 24.5158C35.4898 24.5851 35.4961 24.6581 35.4872 24.7301C35.4783 24.8021 35.4544 24.8716 35.4171 24.9341C35.3799 24.9967 35.3299 25.0509 35.2706 25.0933C35.2112 25.1358 35.1437 25.1656 35.0722 25.1807L29.8526 26.2907C30.01 27.0627 29.8959 27.6911 29.5235 28.0863C29.5907 28.4191 29.635 28.7562 29.6561 29.0953C29.6568 29.1066 29.6571 29.1178 29.6571 29.1291C29.6652 30.084 29.5108 31.0343 29.2005 31.9399C29.1942 31.9603 29.1867 31.9803 29.178 31.9999C28.615 33.523 27.5676 34.6312 26.0977 35.2147L8.44488 42.6371L8.4431 42.6378L2.55457 45.1138L2.5536 45.1142C2.54834 45.1164 2.54299 45.1186 2.5374 45.121C2.21035 45.2455 1.852 45.2608 1.51669 45.1646C1.18139 45.0684 0.88743 44.866 0.679389 44.5879C0.471351 44.3099 0.360592 43.9714 0.363903 43.6239C0.367216 43.2764 0.48442 42.9388 0.697744 42.6622L0.697803 42.6619ZM6.24623 33.9941L5.92678 36.3439L7.38737 34.5791C6.97744 34.4466 6.59211 34.2491 6.24623 33.9941ZM15.2673 12.4466C15.2651 12.4425 15.2626 12.4386 15.2605 12.4344L15.2561 12.4259L15.2559 12.4254C15.2555 12.4244 15.2551 12.4234 15.2546 12.4224C15.2524 12.4171 15.2503 12.4119 15.2481 12.4067C15.2454 12.4003 15.2423 12.3941 15.2401 12.3875C15.2387 12.3843 15.2374 12.3811 15.236 12.3779C15.2339 12.3728 15.2327 12.3675 15.231 12.3623C15.2282 12.3541 15.2256 12.3465 15.2232 12.3384C15.2219 12.3356 15.2215 12.3324 15.2207 12.3294C15.2192 12.3234 15.2181 12.3175 15.2167 12.3116C15.2149 12.3034 15.213 12.2952 15.2115 12.287C15.2111 12.2844 15.2106 12.282 15.2102 12.2795C15.2091 12.2731 15.2086 12.2666 15.2078 12.2601C15.2067 12.2516 15.2058 12.2432 15.2051 12.2346C15.205 12.2326 15.2047 12.2308 15.2045 12.2289L15.2043 12.2267L15.2041 12.2229L15.1812 11.8449C14.7532 11.8894 14.4888 12.0212 14.4333 12.1603C14.4303 12.1685 14.4278 12.1768 14.4258 12.1854C14.4251 12.1895 14.4239 12.1934 14.423 12.1975C14.3555 12.5577 15.0771 13.5198 16.781 14.1804C17.5612 14.4829 18.3725 14.637 19.0069 14.6033C19.5404 14.5751 19.8361 14.4188 19.8925 14.2765C19.9528 14.1249 19.8288 13.8228 19.4981 13.4743L19.1894 13.7687C19.1421 13.8142 19.0867 13.8506 19.0262 13.8761C19.0248 13.8767 19.0232 13.8774 19.0217 13.878C19.0066 13.8843 18.991 13.8899 18.975 13.8947C18.9693 13.8964 18.963 13.8977 18.9571 13.8994C18.9541 13.9007 18.9509 13.9012 18.9478 13.9019C17.8546 14.2113 15.8267 13.5453 15.2673 12.4466ZM15.5945 1.30071L16.0235 8.36256L17.0361 3.69722L17.1401 1.1287L15.5945 1.30071ZM18.1422 3.55166L16.2881 12.0948C16.4214 12.2479 16.5808 12.3764 16.7592 12.4744L20.3035 4.38935L18.1422 3.55166ZM24.1081 4.50878L21.3403 2.62127L21.0203 3.54254L21.197 3.61113C21.2627 3.63659 21.3224 3.67496 21.3727 3.72396C21.423 3.77296 21.4628 3.83158 21.4897 3.89633C21.5166 3.96107 21.5301 4.03062 21.5293 4.10082C21.5286 4.17103 21.5137 4.24045 21.4854 4.30494L19.4949 8.84486L21.223 6.54483C21.2665 6.48689 21.3216 6.43846 21.3847 6.40257C21.4479 6.36669 21.5177 6.34413 21.5898 6.33632C21.662 6.32851 21.7349 6.33561 21.804 6.35718C21.8731 6.37875 21.9368 6.41432 21.9913 6.46166L22.3094 6.73831L24.1081 4.50878ZM22.9763 8.71212L21.723 7.62225L17.7797 12.8703C18.0357 12.9357 18.3022 12.9522 18.565 12.9188L19.1219 12.3876L19.1226 12.3874L22.9763 8.71212ZM21.7921 18.9142C21.6688 18.9796 21.5418 19.0403 21.4111 19.095C20.2002 19.6012 18.6891 19.6491 17.4758 19.15C17.4121 19.1238 17.3543 19.0854 17.3057 19.0369C17.2571 18.9884 17.2186 18.9308 17.1924 18.8674C17.1663 18.804 17.153 18.736 17.1533 18.6673C17.1536 18.5987 17.1675 18.5306 17.1942 18.4672C17.221 18.4037 17.26 18.346 17.309 18.2974C17.3581 18.2487 17.4162 18.2101 17.4802 18.1838C17.5441 18.1574 17.6126 18.1438 17.6816 18.1437C17.7507 18.1436 17.819 18.157 17.8827 18.1832C19.052 18.6641 20.6209 18.4913 21.6081 17.807C21.4047 17.1059 21.1035 16.4371 20.7133 15.8201C20.5852 15.6428 20.4479 15.4725 20.3018 15.3097C20.2188 15.3607 20.1321 15.4052 20.0422 15.4427C19.7276 15.5667 19.3941 15.6361 19.0565 15.6479C18.2669 15.6898 17.3212 15.5149 16.3935 15.1552C14.8003 14.5376 13.6907 13.5615 13.4284 12.6454C13.2067 12.6661 12.986 12.698 12.7673 12.7407C11.1741 13.1845 9.26145 14.1405 8.70348 16.1912C9.81613 17.5574 11.1122 18.3138 12.8746 18.6292C13.0118 18.6537 13.1332 18.7314 13.2121 18.8453C13.2911 18.9592 13.3211 19.0998 13.2956 19.2363C13.2702 19.3728 13.1913 19.494 13.0763 19.5732C12.9613 19.6523 12.8196 19.683 12.6825 19.6585C10.9634 19.3509 9.63042 18.6797 8.4855 17.5255L6.42527 32.6781C6.72166 33.165 7.35306 33.4866 7.83222 33.6189C7.92167 33.6436 8.00275 33.6916 8.0671 33.7579L14.3223 26.2C13.5974 26.0618 12.8953 25.8258 12.2355 25.4986C12.1739 25.4679 12.1191 25.4253 12.0742 25.3734C12.0293 25.3215 11.9952 25.2612 11.9738 25.196C11.9524 25.1308 11.9441 25.062 11.9495 24.9935C11.9548 24.925 11.9737 24.8581 12.005 24.7967C12.0363 24.7353 12.0794 24.6806 12.1319 24.6356C12.1844 24.5907 12.2452 24.5564 12.3109 24.5347C12.3766 24.513 12.4459 24.5044 12.5147 24.5093C12.5836 24.5143 12.6508 24.5326 12.7123 24.5634C13.4599 24.9338 14.2681 25.1699 15.0997 25.2609L16.9641 23.0083C17.0684 22.8771 17.1774 22.7527 17.2903 22.634C17.3068 22.6144 17.3247 22.596 17.3438 22.5789C18.3812 21.5171 19.7602 20.9734 21.373 20.9742C21.691 20.3346 21.8356 19.6243 21.7923 18.9141L21.7921 18.9142ZM26.8401 23.648C26.8715 23.8485 26.9382 24.0417 27.037 24.2188L34.3309 19.1897L32.9474 17.3407L26.8401 23.648ZM33.3867 14.7497L31.9876 14.0846L28.5991 20.3285L31.9343 16.8842L33.3867 14.7497ZM33.9642 21.5101C34.0318 21.4836 34.1041 21.4713 34.1766 21.4738C34.249 21.4764 34.3201 21.4938 34.3853 21.5251C34.4504 21.5563 34.5084 21.6006 34.5553 21.6553C34.6023 21.7099 34.6374 21.7737 34.6583 21.8426L34.7805 22.2454L37.4867 21.2894L36.1477 18.2272L35.3879 18.8443L35.5009 18.9951C35.5429 19.0513 35.5731 19.1154 35.5896 19.1836C35.6062 19.2517 35.6087 19.3226 35.5971 19.3919C35.5854 19.4613 35.5599 19.5276 35.522 19.5871C35.484 19.6466 35.4345 19.6979 35.3763 19.738L31.2801 22.5625L33.9642 21.5101ZM34.2959 24.2772L33.8146 22.6903L27.6901 25.0925C27.872 25.2827 28.0887 25.4366 28.3288 25.5462L34.2959 24.2772ZM28.7302 27.4001C28.8617 27.3024 28.9174 26.9798 28.8227 26.5093L28.4026 26.5986C28.3814 26.603 28.36 26.606 28.3385 26.6078C28.3329 26.6083 28.3273 26.6085 28.3218 26.6088C28.2682 26.6119 28.2145 26.6067 28.1626 26.5935C28.1607 26.5931 28.1587 26.593 28.1569 26.5925C28.155 26.5919 28.1529 26.5912 28.1509 26.5907C28.1456 26.5892 28.1401 26.5877 28.1352 26.586C27.0455 26.2796 25.6789 24.6438 25.7896 23.4115C25.7899 23.407 25.7899 23.4025 25.7903 23.398C25.7907 23.3935 25.7908 23.3912 25.7913 23.3881L25.7914 23.3867C25.7922 23.38 25.7934 23.3732 25.7945 23.3666C25.7955 23.3599 25.7961 23.354 25.7972 23.3478L25.7993 23.3369C25.8002 23.3322 25.8017 23.3276 25.8029 23.3229L25.8035 23.3202C25.8055 23.3124 25.8072 23.3047 25.8094 23.2969C25.8103 23.2938 25.8112 23.2906 25.8123 23.2874C25.814 23.2817 25.8163 23.2763 25.8182 23.2705C25.821 23.2626 25.8236 23.2548 25.8268 23.247C25.8278 23.2445 25.8287 23.242 25.8298 23.2395C25.8323 23.2335 25.8354 23.2278 25.838 23.2219C25.8416 23.2141 25.8452 23.2065 25.8492 23.199C25.8502 23.1971 25.8509 23.1953 25.8518 23.1935L25.853 23.1911L25.8545 23.1886L26.036 22.8541C25.6503 22.6672 25.3568 22.6403 25.2359 22.7302C25.2292 22.7355 25.2229 22.7413 25.217 22.7475C25.2139 22.7509 25.2103 22.754 25.2072 22.7573C24.9594 23.0293 25.0589 24.2278 26.1488 25.6845C27.2794 27.1951 28.4485 27.6099 28.7302 27.4002L28.7302 27.4001ZM1.52469 43.9599C1.59345 44.0576 1.69344 44.1292 1.80854 44.1633C1.92363 44.1973 2.04713 44.1917 2.15912 44.1475L6.9267 42.1429C6.62651 41.9009 6.37352 41.6063 6.18017 41.2735C6.10885 41.1548 6.08808 41.0124 6.12242 40.8778C6.15676 40.7432 6.2434 40.6273 6.36329 40.5557C6.48317 40.4841 6.62647 40.4626 6.76167 40.496C6.89687 40.5294 7.01289 40.6148 7.08421 40.7336C7.37818 41.2231 7.72404 41.4981 8.19168 41.611L25.6973 34.2498C25.7012 34.2482 25.7041 34.247 25.7074 34.2456C26.6327 33.8905 27.4012 33.218 27.8734 32.3502C26.4497 32.258 24.9402 31.4616 24.0964 30.2844C24.0163 30.1717 23.9846 30.0318 24.0082 29.8954C24.0318 29.759 24.1087 29.637 24.2222 29.5563C24.3357 29.4756 24.4764 29.4427 24.6136 29.4648C24.7508 29.4869 24.8733 29.5622 24.9542 29.6742C25.6879 30.6977 27.107 31.3751 28.306 31.3098C28.5068 30.6055 28.6075 29.8773 28.6052 29.1464C28.5908 28.9261 28.5648 28.7068 28.5271 28.4894C27.5672 28.4813 26.3247 27.6759 25.3037 26.3114C24.2839 24.9484 23.8637 23.5339 24.1285 22.6153C23.9298 22.5166 23.7262 22.4278 23.5185 22.3495C21.9346 21.8911 19.8085 21.7012 18.2472 23.156C18.4628 24.9046 19.1573 26.2298 20.481 27.4242C20.5326 27.47 20.5745 27.5256 20.6042 27.5878C20.634 27.6499 20.6511 27.7174 20.6545 27.7863C20.6579 27.8551 20.6475 27.9241 20.624 27.9891C20.6005 28.0542 20.5643 28.114 20.5175 28.1653C20.4707 28.2165 20.4142 28.258 20.3513 28.2875C20.2884 28.317 20.2204 28.3339 20.151 28.3372C20.0817 28.3405 20.0125 28.3301 19.9474 28.3066C19.8823 28.2832 19.8226 28.2471 19.7717 28.2005C18.4805 27.0356 17.7093 25.7638 17.3541 24.1787L7.56078 36.0105C7.55274 36.5812 7.91595 37.1869 8.25122 37.5513C8.2987 37.6016 8.3356 37.6609 8.35978 37.7257C8.38397 37.7904 8.39495 37.8594 8.39211 37.9285C8.38926 37.9977 8.37263 38.0657 8.34319 38.1286C8.31375 38.1915 8.27208 38.248 8.2206 38.2949C8.16912 38.3417 8.10885 38.378 8.04328 38.4017C7.97772 38.4253 7.90816 38.4358 7.83865 38.4325C7.76914 38.4292 7.70106 38.4123 7.63835 38.3826C7.57563 38.3529 7.51955 38.3111 7.47333 38.2597C7.14631 37.9023 6.88772 37.4884 6.71018 37.0382L1.52602 43.3017C1.45158 43.3958 1.41098 43.5118 1.41073 43.6312C1.41049 43.7506 1.45063 43.8663 1.52469 43.9599Z" fill="#90B8D8"/>
</svg>
