<svg width="47" height="59" viewBox="0 0 47 59" fill="none" xmlns="http://www.w3.org/2000/svg">
<path d="M15.2235 7.01677C14.4414 8.08372 13.8671 9.28837 13.5307 10.5678C13.4664 10.757 13.4519 10.9595 13.4887 11.1559C13.7164 11.9323 13.98 12.6982 14.2315 13.4675C14.8558 15.3776 15.4727 17.2901 16.1091 19.1962C16.3587 19.9437 16.6499 20.6774 16.9268 21.4156C17.0603 21.7714 17.2048 22.1231 17.3563 22.5071C17.2731 22.6381 17.1632 22.7501 17.0339 22.8359C15.9743 23.1702 15.3492 24.1342 14.3987 24.6372C14.0598 24.8991 13.7784 25.228 13.5719 25.6032C13.4527 25.7923 13.3499 25.9913 13.2644 26.1978C13.2036 26.1748 13.1464 26.1432 13.0946 26.1039C12.1667 24.9685 12.1975 25.1183 12.819 23.7514C13.0708 23.1975 13.423 22.6901 13.7045 22.1486C13.9899 21.5995 13.9185 21.5506 13.4447 21.1612C12.246 20.1758 10.8407 19.4667 9.74641 18.3382C9.34515 17.9832 8.91362 17.664 8.45676 17.3841C7.48688 16.6873 6.51935 15.9872 5.54186 15.3012C5.31802 15.1352 5.07006 15.0046 4.80661 14.9138C4.57906 14.83 4.3283 14.8352 4.10436 14.9281C3.88042 15.0211 3.69976 15.1951 3.5984 15.4153C3.32989 15.9051 3.0244 16.3737 2.68458 16.817C2.46628 17.0202 2.18163 17.1373 1.88352 17.1465C1.63368 17.1685 1.39498 17.2599 1.19445 17.4106C0.993931 17.5612 0.839601 17.765 0.74895 17.9988C0.0691911 19.1716 0.24487 20.0972 1.22335 21.0581C1.93308 21.8147 2.71374 22.5015 3.55462 23.109C4.50448 23.7414 5.3294 24.5595 6.26887 25.2099C7.71079 26.208 9.19717 27.1429 10.6786 28.0826C11.3703 28.5214 11.4847 28.6808 11.2864 29.4959C11.1765 29.8225 11.1606 30.1734 11.2405 30.5086C11.3204 30.8438 11.4928 31.1499 11.7381 31.3918C11.9692 31.6641 12.1543 31.9723 12.2862 32.3041C12.7471 33.2709 13.1608 34.2609 13.6429 35.2167C14.4678 36.8522 15.3348 38.4666 16.1738 40.0951C16.3247 40.3879 16.4126 40.7124 16.5526 41.0115C16.9418 41.8429 17.3045 42.69 17.7484 43.4917C18.4544 44.7666 18.9915 46.1153 19.6027 47.432C20.2783 48.8876 21.0438 50.3071 21.8557 51.6921C22.8343 53.3614 23.8501 55.0146 24.9543 56.6021C25.3996 57.3704 26.0559 57.995 26.8453 58.4018C27.6347 58.8086 28.5242 58.9807 29.4083 58.8976C30.7351 58.8859 32.0564 58.7253 33.3474 58.4189C34.1889 58.2235 35.0187 57.9808 35.8328 57.6919C35.9522 57.6474 36.08 57.6219 36.1939 57.5667C37.2007 57.0791 38.2282 56.628 39.2033 56.0832C40.0212 55.6127 40.8101 55.0933 41.5655 54.5279C42.6346 53.7479 43.6742 52.9272 44.7165 52.1112C45.1602 51.8156 45.5623 51.4621 45.9123 51.06C46.2516 50.5882 46.5013 50.0581 46.6488 49.496C46.9216 48.5129 47.0072 47.4873 46.9012 46.4726C46.8237 45.8154 46.6646 45.1704 46.4275 44.5526C45.7671 42.8431 45.0489 41.1559 44.3508 39.461C44.3048 39.3415 44.2438 39.2283 44.1694 39.1241C43.2115 37.8551 42.6702 36.3504 41.8328 35.0118C40.7796 33.3282 39.7615 31.6225 38.7385 29.9202C38.516 29.5498 38.3622 29.1376 38.1342 28.7712C36.8281 26.6722 35.5 24.587 34.1999 22.4844C33.7882 21.8187 33.4169 21.1253 33.0671 20.4246C32.8069 19.869 32.4164 19.3843 31.9289 19.0118C31.4414 18.6393 30.8712 18.39 30.2668 18.2849C30.0172 18.2345 29.7616 18.2135 29.5084 18.1826C28.4128 18.0491 28.3851 18.0167 28.093 16.9528C27.7962 15.8717 27.494 14.7917 27.173 13.7176C26.6993 12.1324 26.2148 10.5504 25.7195 8.97166C25.5161 8.32069 25.2989 7.67238 25.046 7.03969C24.9401 6.87776 24.7848 6.75426 24.6032 6.68746C23.6931 6.23637 22.7741 5.80329 21.8611 5.35796C21.6784 5.273 21.5048 5.16981 21.3429 5.04998C21.0936 4.89089 20.8717 4.6926 20.6857 4.46276C20.3554 3.95106 20.0579 3.41895 19.7949 2.86963C19.6098 2.47937 19.4605 2.07316 19.3487 1.65597C19.314 1.49524 19.2449 1.34396 19.1459 1.21265C19.047 1.08133 18.9206 0.973112 18.7757 0.895508C18.4327 0.672156 18.0389 0.539245 17.6307 0.509159C17.2226 0.479073 16.8135 0.552792 16.4415 0.723445C15.9685 0.904499 15.5093 1.11964 15.0674 1.36718C14.682 1.65318 14.334 1.98649 14.0318 2.35927C13.9816 2.42897 13.947 2.50866 13.9304 2.59291C13.9138 2.67717 13.9156 2.76401 13.9356 2.84753C14.2494 3.89043 14.5944 4.92388 14.9232 5.96237C15.0302 6.30043 15.1181 6.64452 15.2235 7.01677ZM4.72821 20.924C4.84379 20.7078 4.95176 20.4872 5.07643 20.2764C5.35872 19.7991 5.68504 19.3438 5.92347 18.8461C6.04775 18.5054 6.13638 18.1527 6.18792 17.7938C6.0751 17.6558 5.91473 17.565 5.73835 17.5393C5.56198 17.5136 5.38238 17.5549 5.2349 17.655L5.63781 18.0444C5.66433 18.6403 5.20483 18.4044 4.96918 18.538C4.7184 18.2087 5.08642 17.7431 4.62463 17.598C4.90657 17.323 5.17973 17.0566 5.48679 16.7572C4.68747 16.2084 4.47615 17.2434 3.92413 17.2235C3.7618 16.6175 3.7618 16.6175 4.49099 16.4574L4.34898 16.0036C4.77989 16.0933 5.15638 16.1717 5.57258 16.2583C5.48735 17.1363 6.19288 16.9388 6.79982 17.0213C6.43368 17.3577 6.68028 17.5583 6.83806 17.7777L7.49084 17.5241C8.06322 17.9419 8.6573 18.3693 9.24459 18.806C9.68938 19.1367 10.1445 19.4602 10.0964 20.1227C10.1278 20.2451 10.1878 20.3584 10.2714 20.4532L10.2531 20.4465C10.6359 20.524 10.5075 20.1202 10.7265 19.8931C10.8249 20.0428 10.8922 20.2109 10.9243 20.3872C10.8752 20.7622 11.1485 20.7831 11.375 20.8704L11.358 20.8676C11.4823 20.7987 11.6276 20.7782 11.7661 20.8099C11.9046 20.8416 12.0266 20.9233 12.1085 21.0393C12.4139 21.2962 12.6776 21.599 12.8902 21.9368C13.0475 22.2837 12.4474 23.2963 12.157 23.3531L11.7638 23.0335L11.1922 23.5482C11.3244 23.315 11.4036 23.0556 11.4244 22.7883C11.4451 22.5211 11.4069 22.2526 11.3123 22.0017L10.1302 22.971C10.2022 22.5649 10.2619 22.228 10.3216 21.891L10.2154 21.848L9.47347 22.7889C9.41537 22.2626 9.95061 21.952 9.79886 21.3314C9.35425 22.148 8.80237 22.9015 8.15789 23.5717C8.06411 23.7528 8.01968 23.9994 7.68816 23.9217C7.73041 23.6002 7.99607 23.6507 8.17375 23.5779C8.28867 23.2837 8.42136 22.9968 8.57109 22.7187C8.79227 22.356 9.05908 22.0212 9.29892 21.6849C8.81811 21.0114 8.38183 20.4002 7.92244 19.7567L7.80755 20.2127C7.13326 19.9482 7.07166 19.9719 6.68007 20.5365C6.41944 20.9123 6.15387 21.2856 5.87119 21.6447C5.72598 21.8292 5.53782 21.9744 5.3 21.6937C5.71331 21.2068 6.13729 20.7367 6.52647 20.2394C6.82597 19.8567 7.11743 19.4467 6.78622 18.9275L6.52467 18.8422C6.51864 19.002 6.47559 19.1583 6.3989 19.2986C5.86096 19.4303 5.73326 19.9421 5.41669 20.2745C5.19725 20.5048 4.94622 20.7052 4.70923 20.9189L5.3519 21.1667C5.21904 21.2868 5.07456 21.3935 4.92059 21.485C4.87745 21.5119 4.82831 21.5277 4.77758 21.531C4.72684 21.5342 4.67608 21.5249 4.62985 21.5037C4.58361 21.4826 4.54334 21.4503 4.51264 21.4098C4.48194 21.3692 4.46176 21.3217 4.45391 21.2715C4.51259 21.1332 4.60732 21.0132 4.72821 20.924ZM29.7149 43.7934C30.9639 44.0492 31.7084 44.9802 32.5625 45.8269C32.2026 46.0421 32.0771 45.7734 31.9164 45.6459C31.5385 45.346 31.1758 45.0269 30.8087 44.7135C30.4447 44.4026 30.0829 44.0892 29.7201 43.7769C28.745 42.9709 27.7672 42.168 26.7978 41.3553C26.6576 41.2667 26.5553 41.1292 26.5106 40.9696C26.5288 40.9141 26.5331 40.8549 26.5232 40.7974C26.5133 40.7398 26.4894 40.6855 26.4537 40.6393C26.418 40.593 26.3715 40.5562 26.3184 40.5321C26.2652 40.5079 26.2069 40.4971 26.1486 40.5006C25.497 40.2871 24.9107 39.9108 24.4452 39.4073C23.7096 38.7832 22.9824 38.1487 22.2374 37.536C21.0085 36.5471 19.8821 35.4373 18.8749 34.2234L18.8915 34.2304C18.0416 33.7168 17.2882 33.0582 16.6657 32.2845C17.2417 32.1222 17.7885 32.0053 18.3065 31.8113C18.5028 31.7192 18.7245 31.696 18.9356 31.7457C19.1467 31.7953 19.3349 31.9147 19.4696 32.0847C20.2329 32.8987 21.0118 33.6983 21.825 34.5461L21.4081 34.5333C21.4608 34.6271 21.534 34.7077 21.6221 34.7693C21.7103 34.8309 21.8112 34.8717 21.9173 34.8889C22.0125 34.8583 22.115 34.8592 22.2096 34.8915C22.3042 34.9237 22.3859 34.9856 22.4426 35.0679C22.9194 35.4503 23.3809 35.8519 23.8436 36.2515C23.9767 36.3267 24.0833 36.4414 24.1484 36.5798C24.1512 37.327 24.786 37.4632 25.2439 37.7738C25.5418 37.9598 25.8293 38.1621 26.1048 38.3799C27.0912 39.2235 28.0665 40.0801 29.0394 40.9391C29.2162 41.0952 29.3626 41.2857 29.6143 41.5596L28.8369 41.4987C29.1495 41.7319 29.2339 42.1852 29.8045 42.1669C30.2595 42.245 30.6888 42.4319 31.056 42.7117C31.3195 42.857 31.5312 43.0935 31.7859 43.2586C31.9091 43.3225 32.0148 43.4158 32.0933 43.5303C32.1718 43.6448 32.2208 43.777 32.236 43.915C32.2581 44.11 32.3538 44.2893 32.5036 44.4162C32.6533 44.5431 32.8458 44.6081 33.0419 44.5979C32.8744 44.3959 32.4187 44.3509 32.6989 43.9336C33.3079 44.4019 33.8883 44.8993 34.5193 45.321C35.188 45.6785 35.7395 46.2213 36.1075 46.8843L35.4442 46.4148L34.808 47.0358C35.1095 47.2354 35.4013 47.4249 35.6893 47.6199C36.1891 47.9581 36.6886 48.2967 37.1813 48.6451C37.2132 48.7103 37.2277 48.7826 37.2236 48.8551L36.5658 48.8036C36.4661 48.2732 36.0464 48.1807 35.49 48.0528L35.8879 48.7605C35.5539 48.5108 35.2381 48.2376 34.9429 47.943C34.6377 47.6753 34.2875 47.4593 33.9775 47.1964C33.6808 46.9447 33.2145 46.8426 33.105 46.3082C33.8277 46.4123 34.1542 46.9839 34.6811 47.2625C34.1665 46.7886 33.9746 46.0086 33.2042 45.7925C33.1318 45.7663 33.0658 45.7252 33.0103 45.6719C32.3748 45.1273 31.7388 44.5833 31.1105 44.0305C31.0249 43.9365 30.9526 43.8313 30.8956 43.7178C30.7355 43.4659 30.5803 43.2109 30.4153 42.9623C30.3719 42.9466 30.3253 42.9423 30.2797 42.9497L30.5531 43.5119L29.504 43.4176C29.5985 43.5856 29.6567 43.6892 29.7149 43.7934ZM28.6983 50.325C28.2353 51.2206 27.8783 51.859 27.5727 52.5211C27.4809 52.7209 27.448 52.9428 27.4781 53.1607C27.5082 53.3786 27.5999 53.5833 27.7424 53.7508C28.0446 54.1881 28.4361 54.5563 28.8911 54.8313C29.346 55.1062 29.8541 55.2816 30.3818 55.3459C32.1026 55.4657 33.8317 55.3251 35.5106 54.9288C36.4493 54.7795 37.3402 54.4135 38.1127 53.8598C38.3305 53.7274 38.5676 53.6295 38.8153 53.5695C39.8757 53.1954 40.8578 52.6286 41.7123 51.8978C42.021 51.6414 42.2419 51.2811 42.5434 51.0139C43.3149 50.2629 43.8518 49.304 44.0888 48.2537C44.398 47.1913 43.9029 46.4422 42.7805 46.0218C42.2778 45.8359 41.7541 45.7124 41.2213 45.654C41.0694 45.6464 40.923 45.5943 40.8006 45.5041C40.6781 45.4139 40.5849 45.2895 40.5327 45.1467C40.3055 44.6344 40.0945 44.1149 39.8839 43.5955C39.3398 42.2535 38.8524 40.8854 38.2426 39.5741C37.653 38.3061 36.924 37.1036 36.2833 35.8584C35.5371 34.4083 34.817 32.9447 34.0919 31.4838C33.6385 30.57 33.1556 29.6678 32.7607 28.7289C32.2982 27.6295 31.9906 26.46 31.471 25.3913C31.3473 25.1612 31.2892 24.9015 31.303 24.6406C31.3169 24.3797 31.4022 24.1276 31.5497 23.9119C31.8968 23.2633 32.1956 22.5888 32.5141 21.925C32.575 21.798 32.631 21.6687 32.7388 21.4311C32.917 21.7479 33.0347 21.964 33.1586 22.1765C34.0697 23.7384 34.9739 25.3045 35.896 26.8599C37.1574 28.9876 38.4414 31.1019 39.6959 33.2335C40.0184 33.7816 40.2198 34.4028 40.5576 34.9396C41.8661 37.0189 42.8597 39.263 44.0039 41.4279C44.157 41.664 44.2581 41.9299 44.3004 42.208C44.3607 42.8182 44.5591 43.4066 44.8804 43.9287C45.4518 44.9572 45.7539 46.1133 45.7587 47.2898C45.7558 47.4685 45.7642 47.6473 45.784 47.8249C45.9462 49.2613 45.2698 50.3035 44.2334 51.1923C43.3416 51.9572 42.351 52.5808 41.4031 53.2649C40.1044 54.2494 38.7498 55.1579 37.346 55.9857C36.2357 56.6171 35.0419 57.0887 33.7997 57.3863C32.3191 57.7292 30.8 57.9079 29.2952 58.143C29.093 58.1663 28.8882 58.1498 28.6923 58.0943C28.0671 57.9591 27.4748 57.7017 26.9494 57.3369C26.424 56.972 25.9759 56.5069 25.6309 55.9683C24.9539 54.8915 24.2896 53.8047 23.6701 52.6941C22.8262 51.1812 22.0373 49.6376 21.2095 48.1154C20.9178 47.579 20.5455 47.0849 20.2715 46.5404C19.6322 45.0402 18.9068 43.5782 18.099 42.1615C18.0496 42.0721 18.0051 41.9801 17.9657 41.8858C17.2725 40.5223 16.5855 39.1555 15.883 37.7969C15.2388 36.5513 14.5531 35.3265 13.936 34.068C13.6401 33.5654 13.4576 33.0043 13.4011 32.4239C14.5635 32.3031 15.6203 32.408 16.3849 33.3281C17.644 34.8434 19.2282 36.0028 20.6725 37.3135C21.6703 38.2192 22.7143 39.0726 23.8003 39.8704C24.4303 40.3885 24.9062 41.0693 25.1765 41.8389C25.5758 42.7477 25.9219 43.6797 26.3031 44.5966C27.1224 46.5675 27.9493 48.535 28.6983 50.325ZM24.2586 7.71966C24.3482 7.86188 24.4299 8.0089 24.5035 8.16005C25.0233 9.43155 25.4704 10.7316 25.8426 12.0539C26.5271 14.479 27.3504 16.8657 28.1449 19.2588C28.5296 20.4177 28.9788 21.5554 29.4015 22.7017C29.6378 23.3424 29.8796 23.981 30.1112 24.5999C28.9897 25.7329 27.6896 26.6739 26.2628 27.3851C25.2768 27.9133 24.2724 28.4104 23.2569 28.8796C22.5268 29.2169 21.765 29.4852 20.9975 29.7922C20.4457 28.7828 19.9988 27.7195 19.6638 26.6189C19.0746 25.0461 18.5284 23.4572 17.9505 21.8801C17.4865 20.614 16.9846 19.3617 16.5332 18.0913C16.1929 17.1334 15.9041 16.1572 15.5953 15.1883C15.2008 13.9505 14.8063 12.7127 14.4219 11.4718C14.4096 11.3576 14.4176 11.2421 14.4456 11.1307C14.9342 11.2408 15.4326 11.3017 15.9334 11.3123C17.0229 11.2241 18.1016 10.9837 19.1913 10.9207C20.7402 10.8312 21.7971 9.85627 22.9203 8.99652C23.3898 8.59606 23.8365 8.16978 24.2586 7.71966ZM21.2361 30.6169C22.1168 30.2146 22.9036 29.8634 23.6832 29.4967C24.4174 29.1514 25.1422 28.7862 25.8745 28.4367C26.3468 28.2503 26.8069 28.0343 27.252 27.7899C28.0848 27.2525 28.877 26.6522 29.6877 26.0803C29.9698 25.8813 30.2566 25.6892 30.6015 25.4526C30.7242 25.7243 30.8133 25.8996 30.8841 26.0819C31.1698 26.818 31.419 27.5699 31.7385 28.2908C32.3353 29.6374 32.9448 30.9798 33.599 32.2991C34.335 33.7834 35.0847 35.264 35.9042 36.703C36.8594 38.4166 37.7007 40.1912 38.4228 42.0153C38.7099 42.721 38.9322 43.4553 39.2539 44.1439C39.6183 44.924 40.0678 45.6639 40.4662 46.4286C40.6138 46.7119 40.7217 47.0159 40.8905 47.4105C40.4165 47.5687 40.0337 47.6804 39.6631 47.8238C39.4144 47.9169 39.1433 47.9326 38.8855 47.8687C38.6277 47.8049 38.3953 47.6645 38.2188 47.466C36.9863 46.4415 35.8213 45.3438 34.5183 44.3906C32.5697 42.965 30.7634 41.3459 28.8782 39.832C28.0888 39.198 27.5201 38.3562 26.7135 37.7275C25.4945 36.7773 24.3653 35.7107 23.216 34.6734C22.9596 34.4273 22.7389 34.1464 22.5603 33.8391C22.3981 33.5527 22.2607 33.253 22.1495 32.9433C21.8409 32.1738 21.5427 31.4001 21.2361 30.6169ZM26.1093 42.0056L26.2436 41.9121C26.6435 42.2491 27.0503 42.5783 27.4414 42.9252C27.898 43.33 28.3204 43.7756 28.7939 44.1586C29.7975 44.9704 30.8209 45.7581 31.844 46.5456C32.3246 46.9155 32.8182 47.2692 33.315 47.6173C33.97 48.0495 34.5406 48.5976 34.9989 49.2346C33.21 49.7918 31.485 50.3291 29.8007 50.8537C29.2933 49.6488 28.8225 48.5108 28.3344 47.3804C28.1031 46.8447 27.8184 46.3316 27.5935 45.7934C27.1622 44.7615 26.7544 43.7196 26.3415 42.6801C26.2538 42.4593 26.1862 42.2306 26.1093 42.0056ZM17.8075 23.4914C18.5982 25.7329 19.3627 27.9003 20.1255 30.0627C18.9394 30.6872 18.9393 30.6873 18.0282 29.7825C17.9921 29.7467 17.9633 29.7038 17.9287 29.6664C17.1179 28.7474 16.105 28.0289 14.9697 27.5674C14.5911 27.3873 14.2264 27.1794 13.8786 26.9453C13.995 26.5167 14.1894 26.1133 14.4523 25.7553C15.291 25.0226 16.21 24.3805 17.1117 23.7222C17.3326 23.6153 17.5665 23.5377 17.8075 23.4914ZM16.1245 31.5994C16.0447 31.6398 15.9593 31.6679 15.8711 31.6829C15.798 31.6715 15.7289 31.6426 15.6696 31.5985C14.9044 30.9757 14.1115 30.3825 13.3887 29.7136C12.6812 29.0588 12.1095 28.2469 11.3631 27.6474C10.4364 26.903 9.39188 26.3051 8.3972 25.6455C7.63694 25.1413 6.85711 24.6644 6.11864 24.1302C5.31544 23.5492 4.56931 22.889 3.76296 22.3128C2.87111 21.6365 2.08179 20.8348 1.41954 19.9325C1.36112 19.8808 1.31351 19.818 1.27945 19.7478C1.24538 19.6776 1.22554 19.6014 1.22106 19.5235C1.21658 19.4456 1.22755 19.3676 1.25334 19.294C1.27913 19.2203 1.31923 19.1525 1.37133 19.0944C1.49662 19.1083 1.61496 19.1591 1.7113 19.2404C1.80764 19.3216 1.87762 19.4297 1.91234 19.5509C2.05556 19.9521 2.27484 20.3218 2.55816 20.6398C3.19762 21.2892 3.89983 21.8773 4.58464 22.4811C4.98577 22.8347 5.40501 23.1677 5.81205 23.5148C7.15698 24.6615 8.52588 25.7587 10.3892 25.9249C10.556 25.9592 10.7183 26.0125 10.8728 26.084L10.8495 25.9487L11.6299 25.6533C12.0744 26.1683 12.4611 26.5734 12.7944 27.0185C12.9943 27.2853 13.4263 27.4489 13.2781 27.9207C13.3522 28.0118 13.4556 28.0744 13.5707 28.0976C14.1339 28.1439 14.1918 28.1813 14.2705 28.6913C14.4141 28.7207 14.5631 28.7113 14.7019 28.6639C14.8111 28.5616 14.9555 28.5052 15.1052 28.5062C15.2548 28.5073 15.3984 28.5657 15.5062 28.6695C16.5422 29.2656 17.4456 30.0671 18.1608 31.0247C17.2332 31.5159 16.991 31.5116 16.0064 31.0336C15.8915 31.0127 15.7742 31.0096 15.6584 31.0243C15.8477 31.2579 15.9666 31.4046 16.1245 31.5994ZM31.1379 53.4487L31.0902 53.5323C31.2706 53.578 31.4544 53.6088 31.6398 53.6244C32.1978 53.6288 32.7561 53.5983 33.314 53.606C33.8185 53.6624 34.3284 53.5644 34.776 53.3249C35.0891 53.1978 35.4211 53.1233 35.7585 53.1046L35.789 53.2919C35.4998 53.3028 35.2126 53.3436 34.9319 53.4137C34.6397 53.5429 34.3589 53.6964 34.0925 53.8728C34.0689 53.8828 34.0435 53.8879 34.0179 53.8878C33.2592 53.9535 32.5016 54.0348 31.7417 54.0789C31.4542 54.1015 31.1658 54.0477 30.9058 53.9228C30.6458 53.7979 30.4235 53.6065 30.2614 53.3679C30.2762 53.2494 30.3348 53.1407 30.4257 53.0632C30.5166 52.9858 30.6333 52.9451 30.7526 52.9493C32.5206 52.4857 34.2937 52.0354 36.0401 51.4991C36.8284 51.2418 37.6647 51.1665 38.4862 51.2788C38.7357 51.3416 38.9986 51.3246 39.238 51.2301C39.4773 51.1356 39.6809 50.9684 39.8202 50.752C39.972 50.5603 40.1702 50.4104 40.396 50.3165C40.738 50.2296 41.0539 50.061 41.3165 49.8252C41.4918 49.7238 41.6874 49.6628 41.8892 49.6467C41.78 50.0178 41.6415 50.3796 41.475 50.7288C40.9301 51.7463 40.0123 52.5131 38.9142 52.8687C38.3649 53.0664 37.8283 53.2978 37.3075 53.5616C37.04 53.7092 36.7644 53.8414 36.482 53.9577C34.9743 54.4359 33.405 54.692 31.8234 54.7177C31.5874 54.7085 31.3522 54.6846 31.1191 54.6464L31.1177 54.4218C31.7005 54.5174 32.297 54.489 32.8682 54.3386C33.4246 54.1721 33.9893 54.0349 34.5601 53.9274C35.1356 53.7547 35.6906 53.5138 36.2743 53.2954L36.2651 52.7617L31.1379 53.4487ZM23.468 7.10687C23.0548 7.57812 22.7428 7.97192 22.3916 8.32688C21.6027 9.20025 20.552 9.79442 19.3969 10.0204C19.1493 10.0613 18.9107 10.1551 18.6635 10.1997C17.333 10.5263 15.9455 10.5449 14.6067 10.254C14.623 9.52699 14.9147 8.83327 15.4229 8.31313C16.3759 8.3087 17.3056 8.30863 18.2351 8.29566C18.3868 8.28203 18.5363 8.24976 18.6802 8.19959C19.1301 8.07741 19.5653 7.80247 20.1567 8.23476L20.0278 7.73553C20.5751 7.20627 21.076 6.72184 21.5836 6.231L23.468 7.10687ZM28.8864 18.7608C29.7507 18.9309 30.5905 19.2079 31.3865 19.5854C31.6145 19.6997 31.795 19.8905 31.8964 20.1245C31.9979 20.3584 32.0138 20.6206 31.9414 20.8652C31.6876 21.658 31.3658 22.4295 31.057 23.2039C30.9582 23.3767 30.8411 23.5384 30.7078 23.6863C29.9642 22.0982 29.3549 20.4506 28.8864 18.7608ZM30.1154 52.0402C30.1034 51.982 30.1048 51.9219 30.1195 51.8644C30.1342 51.8068 30.1618 51.7534 30.2002 51.7081C30.2387 51.6629 30.2869 51.627 30.3413 51.6031C30.3957 51.5793 30.4549 51.5682 30.5142 51.5706C31.5954 51.2954 32.6755 51.0132 33.7455 50.6975C34.4666 50.4848 35.17 50.212 35.907 49.9571L36.3897 50.4632C35.3343 50.8164 34.3512 51.1995 33.3379 51.4697C32.2978 51.8182 31.2119 52.0105 30.1154 52.0402ZM42.5547 49.8744L42.3148 49.773C42.4238 49.5281 42.5318 49.2827 42.6422 49.0385C42.7555 48.7958 42.8156 48.5318 42.8186 48.2641C42.8216 47.9963 42.7673 47.731 42.6595 47.486C42.6464 47.4242 42.62 47.3661 42.5821 47.3157C42.5441 47.2653 42.4956 47.2238 42.4399 47.1942C42.3842 47.1645 42.3227 47.1474 42.2597 47.1441C42.1967 47.1408 42.1338 47.1513 42.0753 47.175C42.1287 47.509 42.6157 47.6353 42.4045 48.0855C41.8918 47.6442 41.5504 47.0367 41.4401 46.3693C41.9256 46.5268 42.3705 46.6318 42.7813 46.8135C42.9179 46.8635 43.0417 46.9431 43.144 47.0465C43.2462 47.15 43.3242 47.2747 43.3725 47.4119C43.4208 47.5491 43.4382 47.6952 43.4234 47.8399C43.4085 47.9846 43.3619 48.1242 43.2868 48.2487C43.1686 48.4985 43.0979 48.7705 42.984 49.0227C42.8534 49.3123 42.6989 49.591 42.5547 49.8744ZM12.1248 29.6164C12.8001 30.246 13.4788 30.8787 14.223 31.5725C12.6754 31.6921 11.6422 30.6396 12.1248 29.6164ZM15.6223 3.82419L15.7974 3.85146C16.09 4.99443 16.7236 6.06184 16.5968 7.3501C16.4879 7.33605 16.3834 7.29821 16.2907 7.23928C16.198 7.18034 16.1194 7.10175 16.0604 7.00906C16.0015 6.91638 15.9637 6.81186 15.9496 6.70292C15.9355 6.59399 15.9456 6.48329 15.9791 6.37867C16.0411 6.14654 16.0282 5.90075 15.9423 5.67636C15.8115 5.1603 15.6495 4.65209 15.5223 4.1352C15.5307 4.02512 15.565 3.91857 15.6223 3.82419ZM17.8968 7.45947C17.6064 6.11015 16.8498 4.9205 16.7266 3.52941C17.3614 4.71183 17.874 5.95587 18.2565 7.24224C18.2522 7.29569 18.2359 7.34748 18.2089 7.39379L17.8968 7.45947ZM18.7896 7.19078C18.2344 6.45882 17.3236 4.05897 17.4016 3.53333C18.5019 5.31497 19.024 6.69063 18.7896 7.19078ZM19.411 6.97557C19.091 6.35023 18.8037 5.70867 18.5503 5.05347C18.3395 4.41916 17.8507 3.86964 17.8966 3.15058C18.4754 4.16469 18.9855 5.20332 19.4986 6.24044C19.5456 6.2925 19.5809 6.35401 19.6022 6.42084C19.6234 6.48767 19.6301 6.55827 19.6218 6.6279C19.6135 6.69753 19.5904 6.76459 19.554 6.82455C19.5177 6.88451 19.4689 6.93601 19.411 6.97557ZM28.9223 53.5378C29.056 53.2578 28.9935 52.7974 29.4062 52.8149L29.2459 53.9977C29.03 53.9313 28.8356 53.8089 28.6825 53.6428C28.5295 53.4767 28.4233 53.273 28.3747 53.0524C28.3262 52.8318 28.3371 52.6023 28.4063 52.3873C28.4756 52.1723 28.6007 51.9796 28.7688 51.8288C28.8242 51.9587 28.8822 52.0695 28.9186 52.1871C28.9501 52.3061 28.9756 52.4266 28.9951 52.5482C28.5142 53.087 28.5141 53.087 28.9223 53.5378ZM39.4153 48.9827C39.972 48.6026 40.654 48.4526 41.3188 48.564C41.2672 48.6757 41.195 48.7767 41.1059 48.8616C40.6948 49.1022 40.2711 49.3217 39.8492 49.5436C39.7901 49.5555 39.7294 49.5569 39.6698 49.5477L39.4153 48.9827ZM20.5178 6.06073L20.2691 6.11756C19.7775 5.064 19.2859 4.01045 18.7732 2.91157C18.8377 2.93165 18.8981 2.9631 18.9515 3.00444C19.4646 3.84208 19.9833 4.6767 20.4735 5.52768C20.5241 5.70055 20.5392 5.88187 20.5178 6.06073ZM21.0271 32.3996L20.9248 32.4811L19.7794 31.3368C19.8517 31.2032 19.9666 31.0976 20.1058 31.0368C20.2451 30.976 20.4006 30.9636 20.5478 31.0014C20.7047 31.4591 20.8659 31.9294 21.0271 32.3996ZM39.0295 50.3403C37.7898 50.3252 37.4144 50.1207 37.2183 49.4049C37.7067 49.7618 38.3107 49.9234 38.9119 49.8581C38.9444 49.9914 38.9781 50.1294 39.0295 50.3403ZM38.6552 49.3224C38.3394 49.1907 38.058 48.9884 37.8327 48.7309C37.6075 48.4734 37.4442 48.1676 37.3557 47.8371C37.663 47.9818 37.937 48.1884 38.1606 48.444C38.3842 48.6996 38.5526 48.9986 38.6552 49.3224ZM7.33779 23.6309L7.17813 23.6786C7.10884 23.5496 7.07513 23.4045 7.08046 23.2583C7.45837 22.7071 7.872 22.1804 8.35461 21.5388C8.31559 22.4979 7.46471 22.8806 7.33779 23.6309ZM6.13202 22.7811C6.44002 22.4871 6.73221 22.177 7.00734 21.852C7.46488 21.2452 7.52693 21.158 7.92921 21.0174C7.51751 21.6141 7.07599 22.1898 6.60634 22.7421C6.45421 22.7956 6.29086 22.809 6.13202 22.7811ZM17.4198 7.34556L17.2536 7.39402C17.0058 6.57035 16.758 5.74667 16.5103 4.92301L16.683 4.87237C16.9286 5.69677 17.1742 6.52117 17.4198 7.34556ZM18.3702 3.18054L18.4167 3.14122L18.9592 4.10604L18.9069 4.13487L18.3702 3.18054ZM16.6938 1.47015L16.5654 2.10852C16.1296 1.84537 16.1738 1.67403 16.6938 1.47015ZM9.00941 24.7595C8.69281 24.6945 8.57558 24.5943 8.72574 24.3864C8.85971 24.2592 9.00822 24.1481 9.1682 24.0557L9.00941 24.7595ZM11.0995 24.7559L11.6782 24.1062C11.6734 24.5425 11.5836 24.7434 11.0995 24.7559ZM16.0763 3.75382L16.2312 3.69659C16.2789 3.87754 16.3265 4.05847 16.3962 4.32274L16.0763 3.75382ZM17.5652 1.48054C17.6735 1.65007 18.0384 1.65112 17.9634 2.1188L17.5652 1.48054ZM6.96733 21.2529L7.11603 21.3756L6.7847 21.7619L6.674 21.6755L6.96733 21.2529ZM17.4651 1.73741L17.3611 1.82755L17.1213 1.56389C17.147 1.54143 17.1765 1.52392 17.2086 1.51224C17.2978 1.58256 17.3805 1.66119 17.4651 1.73741Z" fill="#90B8D8"/>
</svg>
