<svg width="49" height="40" viewBox="0 0 49 40" fill="none" xmlns="http://www.w3.org/2000/svg">
<path d="M16.6871 10.3083C16.9473 9.99203 17.0643 9.92898 17.4217 10.0887C18.0239 10.3513 18.6057 10.6627 19.2451 10.9808C19.49 10.7315 19.8193 10.877 20.0774 11.0776C20.5183 11.4062 20.9828 11.764 21.394 12.0835L21.8169 11.7843C21.8078 11.4961 21.8135 11.2075 21.8339 10.9196C21.8251 10.7774 21.8588 10.6355 21.9306 10.5122C22.0024 10.389 22.109 10.2902 22.2366 10.2288C22.339 10.1778 22.3744 9.95742 22.4243 9.81312C22.5358 9.45106 22.6458 9.09404 22.7558 8.73701C22.8209 8.57983 22.9433 8.45375 23.0974 8.38525C23.3438 8.30701 23.39 8.13954 23.4553 7.94496C23.6103 7.44211 23.7559 6.96943 23.969 6.50652C24.241 5.85254 24.3986 5.76344 25.0851 5.78777C25.3223 5.38736 25.5432 4.9874 25.7872 4.60009C25.8929 4.44254 26.0128 4.29514 26.1452 4.1598C26.2127 4.08037 26.3019 4.02289 26.4013 3.9947C26.5008 3.96651 26.606 3.96888 26.7036 4.00151C26.8621 4.05033 26.9317 4.00022 27.028 3.88123C27.3219 3.5258 27.6207 3.17189 27.9347 2.83917C28.2487 2.50645 28.6168 2.1739 29.1404 2.53344C29.563 1.80858 30.1566 1.20043 30.8675 0.764133C30.9487 0.683991 31.0521 0.630901 31.1637 0.612074C31.2752 0.593247 31.3895 0.609596 31.4909 0.6589C31.5283 0.667025 31.5669 0.667441 31.6046 0.660125C31.6422 0.652807 31.6781 0.637906 31.7101 0.616308C32.3237 0.221183 33.0444 0.0342141 33.7667 0.0827501C33.8827 0.0785568 33.997 0.108675 34.0958 0.16942C34.1945 0.230165 34.2734 0.318903 34.3228 0.424776C34.6363 0.97741 34.8001 1.60511 34.7976 2.24486C34.7821 2.29515 34.8012 2.35611 34.8022 2.40595C35.3252 2.46801 35.3837 2.52457 35.4819 3.05037C35.5745 3.6102 35.5402 4.18513 35.3814 4.73173C35.3364 4.87755 35.293 5.01835 35.2843 5.16983C35.8717 5.4279 35.9596 5.56509 35.8389 6.23818C35.7487 6.64257 35.6382 7.04223 35.5079 7.43559C35.4785 7.53113 35.4475 7.6317 35.4103 7.75238C35.8263 7.88055 35.8648 8.19526 35.792 8.51968C35.6708 9.07147 35.5099 9.61104 35.3581 10.1919C35.4589 10.2609 35.5321 10.3639 35.5649 10.4827C35.5977 10.6016 35.588 10.7288 35.5373 10.8418C35.4056 11.2692 35.2393 11.686 35.0785 12.1375C35.3784 12.2904 35.3826 12.6111 35.2224 12.9196C34.9784 13.395 34.6996 13.8597 34.411 14.3214C34.2252 14.537 34.1026 14.8007 34.0573 15.0823C33.9865 15.4041 33.864 15.7123 33.6948 15.9947C33.6421 16.1657 33.4885 16.2946 33.5696 16.5067C33.606 16.6171 33.489 16.7682 33.4784 16.9081L34.6342 16.9229C34.756 16.9319 34.8763 16.9542 34.9932 16.9894C35.4487 17.1298 35.54 17.2735 35.4587 17.7661L35.9748 17.6222C36.4364 17.4713 36.93 17.4571 37.397 17.5814C37.6694 17.6654 37.8674 17.8145 37.8274 18.138C38.2387 18.1932 38.6349 18.2271 39.022 18.3079C39.3327 18.3706 39.6362 18.4641 39.9282 18.5871C40.3615 18.7647 40.4178 18.8811 40.3446 19.3651L41.5577 19.7389C42.2888 20.0156 42.9638 20.4231 43.5509 20.9422C43.6293 20.9991 43.6822 21.0851 43.6981 21.1817C43.714 21.2783 43.6916 21.3777 43.6359 21.4584L45.314 22.5756C45.5882 22.7592 45.8722 22.9458 45.6864 23.3731C45.674 23.4133 45.7662 23.5188 45.8247 23.5753C46.2185 23.9335 46.6366 24.266 47.0094 24.6396C47.3188 24.9552 47.3129 25.08 47.0989 25.4931C47.1725 25.5708 47.253 25.6617 47.3415 25.744C48.049 26.3743 48.587 27.1763 48.9055 28.076C49.058 28.5138 49.0356 28.7272 48.6313 28.966C48.2479 29.1814 47.8484 29.3658 47.4367 29.5174C47.2249 29.6063 47.0952 29.693 47.1282 29.973C47.1523 30.1022 47.1275 30.2363 47.0587 30.3486C46.9899 30.461 46.8822 30.5435 46.7569 30.5798C46.4897 30.6902 46.2139 30.7759 45.9335 30.8767C45.653 30.9775 45.2995 31.0337 45.0005 31.1068C44.985 31.1571 44.9788 31.1772 44.9757 31.1872C45.0235 31.8241 44.9473 31.9658 44.3142 32.0846C43.6812 32.2034 43.1953 32.1968 42.5775 32.2487C42.5496 32.3392 42.5511 32.5104 42.5278 32.6739C42.5281 32.773 42.5089 32.8714 42.4714 32.9633C42.4338 33.0551 42.3786 33.1387 42.309 33.209C42.2394 33.2793 42.1567 33.335 42.0659 33.3727C41.9751 33.4105 41.8779 33.4297 41.78 33.429C41.39 33.463 40.9991 33.4472 40.6119 33.4545C40.6035 33.472 40.5978 33.4907 40.5949 33.5098C40.4748 34.1281 40.3733 34.2289 39.7261 34.2002C39.4255 34.1902 39.1309 34.1434 38.8369 34.1299C38.7956 34.1281 38.7543 34.1346 38.7154 34.1491C38.6765 34.1636 38.6407 34.1857 38.6103 34.2143C38.5495 34.3537 38.4385 34.4648 38.3001 34.5245C38.1617 34.5843 38.0063 34.5882 37.8661 34.5355C37.3585 34.4232 36.8902 34.3065 36.3941 34.1921C36.1148 34.6236 36.1055 34.6538 35.5855 34.4936C35.0656 34.3334 34.5187 34.1373 33.9505 33.9402C33.6796 34.2036 33.6369 34.2015 33.2002 34.0174C32.4924 33.7399 31.8599 33.298 31.3532 32.727C31.0259 32.962 30.7976 32.7705 30.5903 32.5635L29.0791 31.1509C28.8542 31.5991 29.0777 32.3342 28.272 32.3447C28.1667 32.6867 28.0613 33.0286 27.9126 33.3352C27.8405 33.4996 27.7539 33.6572 27.6537 33.806C27.5886 33.914 27.4875 33.995 27.3689 34.0342C27.2503 34.0735 27.1221 34.0684 27.0077 34.0199C26.8023 34.3696 26.6183 34.7203 26.3978 35.0488C26.1774 35.3773 25.9575 35.6509 25.5022 35.5271C25.4577 35.5134 25.3657 35.6007 25.3258 35.66C25.1678 35.9086 25.0331 36.1699 24.8668 36.4105C24.7461 36.5872 24.6052 36.7489 24.4472 36.8924C24.2999 37.0844 24.0891 37.2163 23.8541 37.2635C23.6192 37.3106 23.376 37.2697 23.17 37.1486C23.0356 37.3384 22.9192 37.5228 22.7876 37.6859C22.6072 37.9171 22.4098 38.1342 22.1971 38.3354C21.816 38.6749 21.6649 38.6724 21.2017 38.381C21.0079 38.5526 20.806 38.7326 20.5958 38.9046C20.3855 39.0766 20.3047 39.1453 20.1474 39.251C20.0875 39.3059 20.0158 39.346 19.9382 39.3681C19.8605 39.3902 19.779 39.3938 19.7001 39.3786C19.6212 39.3634 19.547 39.3297 19.4834 39.2803C19.4198 39.2309 19.3686 39.1671 19.3338 39.0939C19.2833 39.0288 19.241 38.9552 19.1785 38.8588C19.0308 38.951 18.8946 39.0411 18.7516 39.1182C18.29 39.3669 17.8367 39.6237 17.365 39.8527C17.2731 39.8849 17.173 39.8809 17.0846 39.8414C16.9962 39.8019 16.9261 39.7299 16.8884 39.6398C16.6644 39.2404 16.4665 38.8271 16.2506 38.4192C16.2039 38.3226 16.1348 38.239 16.0492 38.1754C15.9446 38.1318 15.8574 38.0547 15.8007 37.9557C15.7441 37.8567 15.7212 37.7413 15.7355 37.6273C15.7406 37.3646 15.7617 37.0848 15.7671 36.8387C15.3164 36.6998 15.2279 36.6175 15.2188 36.1191C15.2202 35.9388 15.2322 35.7587 15.2549 35.5797C15.2733 35.4146 15.303 35.2476 15.3306 35.0524C14.9809 35.0438 14.9191 34.8045 14.8582 34.5269C14.7626 33.9201 14.8472 33.2966 15.1012 32.7353C14.606 32.5827 14.7284 32.1855 14.7976 31.8379C14.9092 31.2533 15.1815 30.7111 15.5831 30.274C14.7853 29.907 15.2952 29.3429 15.3499 28.8311C15.0831 28.782 14.8284 28.7641 14.5446 28.6821C14.2608 28.6002 13.8987 28.5437 13.7493 28.1838C13.7286 28.1279 13.61 28.1079 13.5265 28.1151C12.8024 27.9779 12.107 27.7189 11.469 27.3491C11.3254 27.3048 11.2497 27.1108 11.1327 26.9977C11.0599 26.9242 10.9713 26.8687 10.8737 26.8353C10.3785 26.6827 9.83226 26.608 9.33523 26.4438C8.97375 26.3324 8.63056 26.1441 8.65271 25.6499C8.31522 25.5738 7.98415 25.4718 7.66235 25.3447C7.36488 25.2001 7.09733 25 6.8736 24.7548C6.74118 24.6039 6.73942 24.3281 6.65998 24.0228C6.3333 23.8672 6.01607 23.6922 5.70994 23.4988C5.32173 23.2344 4.95617 22.9376 4.61703 22.6115C4.33114 22.3252 4.3504 22.1219 4.58484 21.7481L4.30387 21.5514C3.66111 21.204 3.11414 20.7007 2.71129 20.0862C2.53312 19.767 2.54555 19.6387 2.79576 19.3194C2.59125 19.0857 2.39974 18.845 2.17728 18.6167C1.51454 17.7975 0.966172 16.8894 0.547381 15.9177C0.477882 15.775 0.444902 15.6167 0.451446 15.4571C0.457991 15.2976 0.503853 15.1419 0.58485 15.0042C1.13406 13.8025 3.33179 12.5471 4.64034 12.8401C4.69422 12.8424 4.74791 12.8307 4.79629 12.8061C4.84468 12.7815 4.88615 12.7448 4.91679 12.6996C5.03597 12.4495 5.23184 12.2446 5.47489 12.116C5.71795 11.9873 5.99502 11.9417 6.26438 11.9861C6.64385 12.0039 7.02517 12.0333 7.4492 12.0648C7.43514 11.565 7.79547 11.4337 8.15735 11.2975C8.62038 11.1126 9.11973 11.0436 9.61278 11.0962C9.70687 11.1252 9.83133 11.0204 9.93875 10.9709C10.0392 10.9056 10.1453 10.8498 10.2558 10.8043C10.8215 10.6282 11.4243 10.6226 11.9903 10.7882C12.0695 10.8126 12.1488 10.837 12.2181 10.8584C12.2874 10.8797 12.2636 10.8339 12.2683 10.8188C12.5179 10.202 12.8071 10.0378 13.4623 10.1461C13.6994 10.1861 13.9383 10.2377 14.1937 10.2888C14.33 9.84631 14.6984 9.79463 15.0871 9.87036C15.3638 9.92258 15.634 9.9783 15.9029 10.0557C16.1719 10.133 16.4046 10.2047 16.6871 10.3083ZM9.31757 16.9462L9.3142 16.8515L4.45562 16.1143C4.02448 16.053 3.5831 16.0602 3.15041 16.004C3.06623 15.978 2.98704 15.8655 2.9004 15.7948C2.97914 15.7071 3.06557 15.6268 3.15862 15.555C3.20568 15.5255 3.28646 15.5448 3.34898 15.5531C4.9745 15.7676 6.59383 16.0023 8.2209 16.2118C8.8331 16.3014 9.44095 16.4226 10.1095 16.5405C10.0588 16.4647 10.0032 16.3924 9.94303 16.324C8.82202 15.2463 7.79422 14.0597 6.3809 13.3324C6.30167 13.308 6.28873 13.1388 6.2442 13.037C6.33862 12.9945 6.44203 12.9053 6.53736 12.9126C6.66646 12.9362 6.78949 12.9853 6.89945 13.0572C8.18044 13.9072 9.34782 14.92 10.3734 16.0712C10.5051 16.2408 10.6154 16.4264 10.7019 16.6239L15.5212 17.9987L15.3056 17.6955C15.034 17.2925 14.7769 16.8774 14.4842 16.4899C13.4562 15.1105 12.5768 13.6007 11.045 12.6773C11.0102 12.6409 10.9854 12.5959 10.973 12.5467C10.9606 12.4976 10.961 12.4459 10.9742 12.3967C11.0062 12.3564 11.0475 12.3248 11.0944 12.3047C11.1414 12.2845 11.1924 12.2765 11.2429 12.2812C11.3838 12.3275 11.5164 12.3962 11.6356 12.4848C12.4457 13.0411 13.1481 13.7426 13.7087 14.5551C14.3178 15.376 14.914 16.2039 15.5166 17.0283C16.014 16.5926 16.5995 16.2728 17.2311 16.092C17.3358 16.0765 17.4352 16.0348 17.5203 15.9706C17.6055 15.9065 17.6735 15.8219 17.7184 15.7245C17.7979 15.6107 17.9134 15.5277 18.0456 15.4895C18.3532 15.3603 18.685 15.3026 19.0164 15.3208C19.3478 15.339 19.6702 15.4327 19.9597 15.5948C19.9968 15.6138 20.0371 15.6262 20.0785 15.6314C20.1988 15.1178 20.6671 15.1465 21.029 15.0102C20.7767 14.2277 20.559 13.4559 21.0809 12.6422C20.6811 12.3208 20.2878 11.9959 19.8865 11.6795C19.7516 11.5719 19.6253 11.4889 19.4562 11.6681C19.3934 11.7313 19.2176 11.7212 19.1185 11.6907C18.971 11.6329 18.833 11.5532 18.7088 11.4543C18.2907 11.1247 17.817 10.8743 17.3101 10.715C17.0388 11.0498 16.9274 11.0596 16.5077 10.9082C16.0881 10.7569 15.5174 10.6031 15.0469 10.4581C14.9888 10.4525 14.93 10.4614 14.8758 10.484C14.8215 10.5067 14.7735 10.5424 14.7358 10.588C14.5333 10.911 14.4392 10.9701 14.0981 10.8981C13.8654 10.8264 13.6326 10.7546 13.3878 10.7398C12.9879 10.6826 12.9783 10.6962 12.8773 11.0945C12.7762 11.4928 12.5744 11.5848 12.2179 11.475C12.1239 11.435 12.026 11.4048 11.9257 11.3849C11.51 11.3615 11.0928 11.343 10.6824 11.3377C10.639 11.3407 10.5968 11.3543 10.5595 11.3773C10.5222 11.4003 10.4908 11.4321 10.4682 11.4699C10.3736 11.7767 10.169 11.8072 9.91866 11.7576C9.36266 11.6356 8.78176 11.6869 8.25215 11.9048C8.18645 11.9233 8.1282 11.9627 8.08603 12.0171C8.04386 12.0716 8.02002 12.1382 8.01805 12.2071C8.02031 12.2721 8.00834 12.337 7.98297 12.3971C7.9576 12.4571 7.91948 12.5109 7.87133 12.5545C7.82318 12.5981 7.7662 12.6304 7.70447 12.6492C7.64275 12.6679 7.5778 12.6727 7.51429 12.663C7.41432 12.6708 7.31063 12.6553 7.20725 12.6565C6.77362 12.6385 6.33814 12.609 5.89676 12.6161C5.77004 12.641 5.65271 12.7022 5.55866 12.7922C5.46461 12.8823 5.39777 12.9975 5.36606 13.1243C5.29223 13.5751 5.21112 13.6272 4.79517 13.499C4.28549 13.3395 3.73542 13.3646 3.23888 13.5701C2.79536 13.7701 2.36873 14.0069 1.9634 14.2783C1.71509 14.4758 1.49058 14.7024 1.2946 14.9531C1.16377 15.0871 1.08557 15.2647 1.07478 15.4521C1.06399 15.6395 1.12136 15.8238 1.23604 15.9702C1.78768 17.0025 2.47351 17.9545 3.27539 18.8009C3.64358 19.1897 3.63209 19.2797 3.28959 19.7578C3.45853 19.9622 3.64253 20.1532 3.84003 20.3294C4.18814 20.6073 4.56505 20.8446 4.93576 21.102C5.37981 21.4205 5.43297 21.6351 5.08922 22.1348C5.30523 22.3492 5.53885 22.5445 5.7876 22.7189C6.24249 23.0022 6.71288 23.2352 7.17862 23.4833C7.64436 23.7315 7.68701 23.9098 7.37702 24.3704C7.49047 24.4729 7.61675 24.56 7.75268 24.6293C8.11416 24.7407 8.48059 24.8536 8.84702 24.9665C9.37686 25.1297 9.44124 25.1496 9.4048 25.7605C9.65734 25.8383 9.89998 25.9131 10.1822 26C10.5388 26.1099 10.9136 26.1428 11.2794 26.2225C11.3781 26.2338 11.4712 26.2736 11.5478 26.3372C11.6243 26.4008 11.681 26.4855 11.7111 26.5812C11.7586 26.6779 11.8345 26.7571 11.9286 26.8079C12.5963 27.1613 13.3192 27.3971 14.0668 27.5053C14.2005 27.5465 14.4283 27.6167 14.4403 27.736C14.4863 28.009 14.6689 28.0322 14.8549 28.062C15.1298 28.1026 15.4077 28.1332 15.6857 28.1638C15.7654 28.1552 15.8438 28.1368 15.9194 28.1091C15.6044 27.7588 15.563 27.647 15.7912 27.2933C16.0648 26.8907 16.3643 26.5066 16.6877 26.1435C16.8402 26.0091 17.0071 25.8924 17.1852 25.7958C16.9405 25.3405 16.9737 25.18 17.3678 24.8335C18.0644 24.2542 18.864 23.8162 19.7225 23.5438L19.9801 23.447C19.7914 23.219 19.615 22.9809 19.4517 22.7336C19.4316 22.6784 19.394 22.6316 19.3447 22.6005C19.2955 22.5694 19.2374 22.5557 19.1794 22.5616C18.9887 22.5995 18.7922 22.5885 18.6076 22.5297C18.4231 22.4709 18.2564 22.3662 18.1228 22.225C17.7602 21.7895 17.3206 21.4263 16.8263 21.1538C16.5688 20.9948 16.3805 20.7432 16.2986 20.4488C16.2166 20.1544 16.247 19.8386 16.3836 19.5638C16.2682 19.4457 16.1447 19.3361 16.0374 19.2094C15.929 19.0802 15.832 18.9416 15.7475 18.7952C15.6361 18.6395 15.473 18.5297 15.2877 18.4857C15.1023 18.4417 14.907 18.4665 14.737 18.5554C13.0846 19.8687 11.3054 21.0086 9.42721 21.9573C8.97678 22.1874 8.50408 22.3666 8.03478 22.5524C7.87504 22.6133 7.67879 22.6519 7.61883 22.4242C7.55886 22.1965 7.73716 22.1633 7.89194 22.1009C8.27939 21.9632 8.65946 21.8046 9.03052 21.6259C10.8454 20.7211 12.5656 19.6313 14.1641 18.3734L14.3775 18.1914C14.219 18.1426 14.0952 18.1044 13.9714 18.0663C12.8681 17.7759 11.7536 17.5041 10.65 17.197C10.501 17.1489 10.3429 17.1357 10.1875 17.1584C10.0321 17.1811 9.88355 17.2391 9.75293 17.3281C8.48042 18.0951 7.10505 18.6694 5.67099 19.0325C5.4101 19.107 5.1446 19.1631 4.87639 19.2006C4.7046 19.2303 4.51269 19.2372 4.48709 19.0036C4.46148 18.77 4.63513 18.7519 4.80042 18.7257C6.11215 18.4589 7.3865 18.0246 8.59282 17.4331C8.84337 17.285 9.08536 17.1225 9.31757 16.9462ZM44.3563 31.4203C44.2767 30.658 44.3816 30.6518 45.0283 30.4711C45.4152 30.3591 45.8024 30.2637 46.2045 30.1729C46.4513 30.1112 46.5739 29.9948 46.5229 29.7204C46.5064 29.6563 46.5031 29.5893 46.5133 29.5237C46.5235 29.458 46.5469 29.3951 46.582 29.3388C46.6172 29.2825 46.6633 29.234 46.7176 29.1963C46.7719 29.1587 46.8332 29.1327 46.8976 29.1201C47.245 28.9958 47.5855 28.8585 47.9176 28.7131C48.0948 28.6239 48.2667 28.5243 48.4325 28.4147C45.8421 27.4182 43.1869 26.6001 40.4849 25.9659C40.6986 26.2377 40.9315 26.4934 41.1816 26.7312C42.1872 27.6907 43.1399 28.7165 44.3861 29.3703C44.5254 29.4462 44.6569 29.5473 44.5649 29.7227C44.4729 29.8981 44.3002 29.8779 44.1526 29.7939C43.8944 29.6655 43.6464 29.5174 43.4108 29.3506C42.0448 28.2964 40.788 27.1049 39.6595 25.7941C39.6165 25.7353 39.555 25.693 39.4849 25.6743C38.3794 25.4731 37.2707 25.2765 36.1587 25.0844C36.0497 25.0816 35.9405 25.0885 35.8325 25.105C35.9321 25.2568 35.9977 25.3431 36.0537 25.4429C36.5733 26.3239 37.2134 27.1254 37.9551 27.8237C38.6925 28.563 39.4685 29.2646 40.2315 29.9732C40.3485 30.0863 40.4756 30.2191 40.3385 30.3475C40.2013 30.4759 40.0747 30.3764 39.9413 30.3518C39.8079 30.3272 39.8265 30.2669 39.7715 30.2169L39.4144 29.8976C37.9323 28.549 36.4517 27.1953 35.4715 25.3792C35.456 25.3533 35.4352 25.3311 35.4106 25.314C35.386 25.297 35.358 25.2854 35.3285 25.2801L34.0121 25.3645C34.1169 25.7987 33.9945 26.0198 33.5104 26.1129C33.1767 26.1752 32.8239 26.1766 32.4831 26.2093C32.398 26.2216 32.2766 26.2282 32.2398 26.2774C32.1783 26.3743 32.0891 26.4501 31.9843 26.4946C31.8795 26.539 31.7641 26.5501 31.6535 26.5263C31.2455 26.4776 30.845 26.3873 30.4418 26.3236C30.3625 26.2992 30.2328 26.2978 30.191 26.3454C30.1178 26.4235 30.023 26.4772 29.9192 26.4994C29.8155 26.5215 29.7078 26.5111 29.6106 26.4694C29.1897 26.3397 28.7688 26.2101 28.338 26.0773C28.3337 26.1017 28.3353 26.1268 28.3427 26.1503C28.9222 27.4092 29.2058 28.7892 29.1713 30.1827C29.1666 30.2465 29.1859 30.3095 29.2254 30.3591C29.805 30.9065 30.3975 31.447 30.9755 31.9995C31.3003 31.8077 31.4005 31.8166 31.653 32.0706C31.7635 32.1872 31.8674 32.3073 31.9794 32.4189C32.3865 32.851 32.8889 33.1793 33.4462 33.3774C33.6878 32.9453 33.8364 32.903 34.2059 33.182C34.6691 33.5285 35.2066 33.7601 35.7758 33.8585C36.0397 33.3011 36.1118 33.2958 36.6757 33.5246C37.058 33.6674 37.4494 33.7843 37.8474 33.8746C37.891 33.872 37.9333 33.8586 37.9707 33.8356C38.0081 33.8125 38.0393 33.7805 38.0617 33.7424C38.1008 33.6402 38.175 33.5554 38.2706 33.5039C38.3663 33.4524 38.4768 33.4376 38.5817 33.4622C38.942 33.5071 39.3035 33.5304 39.6622 33.5804C39.8712 33.6062 39.9603 33.5456 39.9774 33.3141C40.0067 32.9377 40.1324 32.8112 40.5248 32.8221C40.7644 32.8188 41.0058 32.8271 41.2488 32.8304C41.8991 32.8491 41.8991 32.8491 41.9448 32.208L41.9696 32.1275C42.0305 31.5957 42.171 31.4738 42.6926 31.5409C43.2483 31.6205 43.8154 31.5794 44.3563 31.4203ZM31.1456 1.33983C30.5636 1.6893 30.0743 2.17763 29.7206 2.76179C29.4887 3.18034 29.3924 3.21124 28.9467 3.07392C28.8777 3.03477 28.7971 3.02165 28.719 3.03687C28.6409 3.05209 28.5704 3.09467 28.5199 3.15713C28.1183 3.63352 27.69 4.09071 27.3265 4.58434C27.1339 4.82232 27.0413 4.87638 26.8018 4.70348C26.652 4.59126 26.5393 4.62261 26.4532 4.76126C26.1943 5.23208 25.9394 5.65458 25.7198 6.12098C25.568 6.43761 25.5231 6.49535 25.1771 6.42177C24.8311 6.34819 24.7033 6.35836 24.5379 6.73685C24.3263 7.28281 24.1444 7.83792 23.9708 8.40112C23.9503 8.51446 23.9017 8.6209 23.8295 8.7104C23.7573 8.7999 23.664 8.86953 23.5584 8.91271C23.4187 8.97291 23.3055 9.08319 23.2407 9.22227C23.1276 9.58935 23.0129 9.96146 22.8983 10.3336C22.8502 10.4895 22.7836 10.7057 22.6647 10.7571C22.3846 10.8745 22.395 11.087 22.3974 11.308C22.4012 11.4967 22.4156 11.685 22.4406 11.8718C22.5013 12.4136 22.4567 12.488 21.9293 12.6338C21.9298 12.8432 21.9223 13.0611 21.9427 13.2766C21.9926 13.7655 21.8035 13.922 21.3637 13.7479C21.3637 13.7479 21.3513 13.7881 21.3466 13.8032C21.4536 14.2656 21.5525 14.7366 21.6838 15.19C21.742 15.4061 22.1263 15.5135 22.3597 15.4423C22.5931 15.3711 22.7442 15.2855 22.8832 15.3448C23.1234 15.423 23.3678 15.4873 23.6154 15.5374C24.5101 15.7563 25.2915 16.3008 25.8115 17.0675L26.2892 17.8754C26.2434 17.7071 26.2301 17.6094 26.1989 17.5172C26.0127 17.0817 25.8495 16.6362 25.71 16.1828C25.2489 14.3889 24.8075 12.6012 24.3705 10.7817C24.3439 10.6744 24.3254 10.5586 24.3053 10.4478C24.2852 10.337 24.2346 10.0791 24.437 10.0203C24.6395 9.96159 24.7152 10.1556 24.748 10.3309C24.7505 10.3591 24.7565 10.3869 24.7659 10.4135C24.9417 11.233 25.0996 12.058 25.3048 12.87C25.6278 14.1093 25.9753 15.3395 26.3326 16.5728C26.3829 16.7287 26.4449 16.8804 26.5182 17.0264C26.8726 16.0345 27.2181 15.0893 27.549 14.1561C27.5572 14.0936 27.5486 14.0301 27.5243 13.9723C27.4485 13.7903 27.3848 13.6033 27.3335 13.4125C27.0728 11.9887 26.7907 10.5639 26.5873 9.13021C26.5194 8.39104 26.4949 7.64807 26.5138 6.9052C26.511 6.7557 26.5538 6.58167 26.7658 6.59745C26.9778 6.61322 26.9871 6.75922 26.9771 6.93234C26.9671 7.10546 26.9513 7.40339 26.9555 7.63595C27.0543 9.53016 27.3304 11.409 27.7802 13.2473C27.7802 13.2473 27.8173 13.3028 27.8477 13.3452C27.9143 13.129 28.0128 12.9501 28.08 12.7671C28.5922 11.3337 29.1093 9.90179 29.6165 8.46686C29.6409 8.40951 29.6472 8.34602 29.6345 8.28521C29.4875 7.80387 29.3668 7.31451 29.2729 6.81933C29.1256 5.76637 29.0291 4.70703 28.9211 3.64966C28.9032 3.47897 28.9411 3.30343 29.1577 3.30411C29.3744 3.3048 29.3725 3.46939 29.3885 3.6285C29.4721 4.51867 29.5507 5.40733 29.6507 6.29705C29.705 6.75426 29.8184 7.21317 29.9055 7.66947C30.919 5.2588 32.1103 2.92763 33.4694 0.695885C33.3072 0.71198 33.1988 0.711637 33.0958 0.72943C32.5851 0.824714 32.1083 1.05841 31.7163 1.40557C31.6778 1.44693 31.6303 1.47866 31.5777 1.49823C31.5251 1.5178 31.4688 1.52467 31.4134 1.51828C31.3579 1.51189 31.3048 1.49242 31.2583 1.46144C31.2118 1.43045 31.1732 1.3888 31.1456 1.33983ZM26.8644 17.469C27.0015 17.4286 27.0718 17.4118 27.1402 17.3833C27.378 17.2803 27.6207 17.1789 27.8547 17.0528C29.3083 16.2685 30.6746 15.3271 31.9296 14.245C32.0285 14.1595 32.1411 14.0917 32.2624 14.0448C32.3006 14.0377 32.3399 14.04 32.3769 14.0514C32.414 14.0628 32.4477 14.083 32.4753 14.1104C32.4959 14.1446 32.5081 14.1834 32.5108 14.2235C32.5136 14.2636 32.5068 14.3039 32.491 14.3409C32.4472 14.424 32.3843 14.4953 32.3077 14.5487C31.8012 14.9433 31.2941 15.3927 30.7628 15.7795C29.568 16.7312 28.2365 17.4911 26.8156 18.0321C26.5562 18.1173 26.5833 18.3459 26.53 18.5718C26.8649 18.446 27.2059 18.3378 27.5516 18.2478C28.1273 18.1389 28.6671 18.041 29.2255 17.9708C29.3064 17.9561 29.3895 17.961 29.4678 17.9851C29.5461 18.0092 29.6176 18.0519 29.6762 18.1096C29.7989 18.3622 29.9942 18.3618 30.1982 18.3861C30.3904 18.4216 30.5849 18.4429 30.7804 18.4498C30.9489 18.4551 31.1163 18.4156 31.2658 18.3351C31.8716 17.9014 32.3876 17.3511 32.7839 16.7161C32.8187 16.6543 32.8399 16.5857 32.8459 16.515C32.8653 16.3397 32.904 16.1669 32.9612 15.9999C33.0938 15.7104 33.2644 15.4382 33.4119 15.1532C33.4389 15.0652 33.4559 14.9744 33.4627 14.8826C33.4908 14.696 33.5467 14.5146 33.6285 14.3446C33.8407 14.008 34.111 13.7114 34.3299 13.3879C34.4656 13.1649 34.5891 12.9346 34.6997 12.698C34.0879 12.537 34.0217 12.3294 34.3828 11.8791C34.4308 11.8113 34.4887 11.7465 34.5367 11.6787C34.7664 11.4256 34.9092 11.1043 34.9434 10.7634C34.473 10.5304 34.4427 10.3999 34.6967 9.92758C34.7602 9.8095 34.8271 9.69797 34.8906 9.57988C35.1139 9.20969 35.2232 8.78125 35.2046 8.3497C34.7447 8.24103 34.6513 8.06909 34.8124 7.63421C34.8418 7.53867 34.9025 7.44725 34.9319 7.35171C35.16 6.87013 35.2863 6.34636 35.3027 5.81417C34.6837 5.62345 34.6076 5.50089 34.7734 4.87476C34.8498 4.62151 34.906 4.36264 34.9415 4.10065C34.9728 3.75243 34.9581 3.39551 34.9647 3.03967L34.8121 3.04221C34.4001 3.12999 34.2504 3.01777 34.2462 2.60904C34.2559 2.42515 34.2547 2.24093 34.2427 2.05737C34.1914 1.67819 34.1074 1.29991 34.0255 0.861741C33.2848 1.7347 30.9259 6.38163 30.598 7.56899C30.598 7.56899 30.6524 7.58577 30.6747 7.54859C31.9489 6.59211 33.0847 5.45916 34.0485 4.18338C34.1913 3.96215 34.3458 3.74875 34.5111 3.54409C34.5557 3.5104 34.6075 3.48809 34.6622 3.47906C34.717 3.47003 34.7729 3.47455 34.8253 3.49224C34.8748 3.5075 34.9011 3.68627 34.8781 3.7783C34.8372 3.89315 34.7751 3.99922 34.6951 4.0908C33.4875 5.77313 32.0093 7.23882 30.3231 8.42581C30.2256 8.49534 30.1466 8.58836 30.0933 8.69639C29.724 9.68378 29.3613 10.6732 29.0052 11.6647C28.8079 12.182 28.653 12.6848 28.5135 13.1374C29.8623 12.2322 31.0839 11.145 32.1441 9.90639C32.5021 9.4661 32.8656 9.06055 33.2288 8.63839C33.3446 8.50889 33.4864 8.36539 33.6551 8.52196C33.8237 8.67853 33.6933 8.82006 33.5905 8.94255C33.0071 9.62172 32.4355 10.3155 31.8271 10.9705C30.7636 12.0526 29.5945 13.0225 28.3381 13.8652C28.2413 13.9214 28.1616 14.0036 28.1077 14.1025C27.6929 15.2025 27.2913 16.3121 26.8582 17.4891L26.8644 17.469ZM28.3407 31.6116C28.3966 31.1663 28.4853 30.7201 28.5083 30.2757C28.5731 28.9578 28.3181 27.6466 27.7656 26.457C27.6765 26.2534 27.6085 26.0342 27.5194 25.8306C27.4793 25.7271 27.4202 25.6323 27.3453 25.5512C26.9229 25.1623 26.4319 24.7852 26.0123 24.3696C25.5927 23.9541 25.3205 23.6059 24.9498 23.1723C24.8321 23.5545 24.7252 23.9015 24.6167 24.2535C24.6054 24.3349 24.6154 24.4177 24.6457 24.4936C24.877 25.1155 25.1133 25.7389 25.3396 26.3592C25.9535 28.1012 26.2308 29.9492 26.1563 31.803C26.1118 32.3662 26.0143 32.9243 25.8651 33.4696C25.8171 33.6255 25.7263 33.7792 25.523 33.7001C25.3197 33.6209 25.407 33.4606 25.4356 33.3152C25.5522 32.8311 25.6348 32.3396 25.6828 31.8442C25.7411 29.6208 25.3494 27.4127 24.5318 25.356C24.4888 25.2492 24.4328 25.1493 24.3679 25.0082C24.0361 25.8915 23.7427 26.7206 23.4112 27.5324C23.2986 27.8102 23.2727 28.1154 23.3369 28.407C23.4006 28.7966 23.4369 29.1904 23.4454 29.5857C23.4828 30.9357 23.3525 32.2866 23.0577 33.6067C22.9365 34.1585 22.7676 34.7066 22.6068 35.2461C22.5634 35.3869 22.4999 35.5931 22.2934 35.524C22.087 35.4549 22.1477 35.2754 22.1859 35.1165C22.2695 34.8449 22.3235 34.5642 22.4022 34.2912C22.8503 32.6376 23.0395 30.9252 22.9627 29.2167C22.9587 29.0889 22.9269 28.9634 22.9004 28.768C21.3106 32.3085 19.6049 35.6977 17.7237 39.0052C17.7689 39.01 17.8145 38.9988 17.8528 38.9734C18.1255 38.8097 18.3998 38.6409 18.6691 38.4706C19.2648 38.1036 19.4177 38.1177 19.8041 38.6937C19.8041 38.6937 19.8338 38.7029 19.8833 38.7181L20.6654 38.0451C21.1323 37.6384 21.2406 37.6387 21.7627 37.9152C21.8401 37.84 21.9308 37.7743 22.0064 37.6875C22.0819 37.6006 22.2315 37.432 22.3324 37.2979C22.4334 37.1638 22.5833 36.9237 22.7245 36.747C22.9394 36.4718 23.1384 36.4065 23.4352 36.5695C23.521 36.6323 23.6276 36.659 23.7329 36.6444C23.8383 36.6297 23.9345 36.5748 24.0017 36.4908C24.1717 36.3168 24.3275 36.1291 24.4674 35.9296C24.6417 35.6804 24.7796 35.4091 24.939 35.1554C24.9998 35.0471 25.0941 34.9619 25.2073 34.9131C25.3204 34.8642 25.4459 34.8546 25.5644 34.8856C25.6192 34.8893 25.6743 34.8801 25.7252 34.8585C25.7761 34.8369 25.8214 34.8035 25.8575 34.7612C26.0598 34.4634 26.2395 34.1506 26.3952 33.8257C26.651 33.2768 26.6687 33.2547 27.2862 33.3624C27.4163 32.94 27.548 32.5126 27.6813 32.0801C27.8145 31.6477 27.8535 31.6266 28.3407 31.6116ZM15.7684 29.6373C15.8427 29.6657 15.9188 29.6892 15.9962 29.7075C16.4146 29.7924 16.5077 30.0358 16.2466 30.3903C16.1055 30.5547 15.9744 30.7276 15.854 30.908C15.6794 31.2401 15.5235 31.5818 15.3869 31.9314C15.382 31.9761 15.3881 32.0212 15.4046 32.0628C15.4211 32.1044 15.4475 32.1411 15.4815 32.1697C15.5315 32.1893 15.5772 32.2188 15.6157 32.2566C15.6542 32.2943 15.6848 32.3395 15.7057 32.3896C15.7267 32.4396 15.7375 32.4935 15.7376 32.548C15.7377 32.6025 15.7271 32.6565 15.7063 32.707C15.6335 32.9434 15.5607 33.1797 15.4894 33.411C15.4181 33.6423 15.418 33.9947 15.3873 34.288C15.8738 34.3278 16.0013 34.4772 15.9547 34.8923C15.9081 35.3074 15.8498 35.6198 15.7974 35.9836C16.2753 35.9987 16.3956 36.1183 16.3877 36.5839C16.3845 36.8582 16.3516 37.1234 16.3419 37.4012C16.3481 37.4876 16.3768 37.5705 16.4251 37.6416C16.551 37.7939 16.6684 37.9532 16.7769 38.1188C16.913 38.381 17.0181 38.6557 17.157 38.9793C19.2101 35.4364 21.0613 31.7786 22.7013 28.024L22.532 28.0984C22.3651 28.2177 22.1948 28.3304 22.0313 28.4562C20.1579 29.8568 18.4378 31.4571 16.9009 33.2293C16.8318 33.3126 16.6659 33.3055 16.5467 33.3404C16.5412 33.2175 16.4908 33.0644 16.5432 32.9649C16.6418 32.803 16.7604 32.6545 16.8962 32.523C18.4318 30.8353 20.1262 29.303 21.9547 27.9481C22.1858 27.7687 22.435 27.6147 22.6981 27.4889C22.7892 27.4491 22.871 27.39 22.9378 27.3156C23.0047 27.2412 23.0552 27.1533 23.0857 27.0578C23.2704 26.5641 23.4727 26.0483 23.6555 25.543C23.7175 25.3419 23.7794 25.1407 23.8414 24.9396L23.8185 24.8554C23.0372 25.2974 22.2255 25.697 21.4762 26.1929C19.8899 27.2047 18.4279 28.405 17.1216 29.768C17.0541 29.8463 16.8863 29.8276 16.7637 29.8559C16.7663 29.7245 16.7258 29.5744 16.7831 29.4765C16.9005 29.3062 17.0376 29.1506 17.1915 29.0132C19.1531 27.0755 21.4259 25.4907 23.9107 24.3277C24.0199 24.2811 24.1104 24.1983 24.1673 24.093C24.2433 23.8466 24.3223 23.5901 24.4075 23.3136C24.3391 23.342 24.3047 23.348 24.2821 23.3685C23.8088 23.7487 23.2498 24.0033 22.6564 24.1091C22.0631 24.2148 21.4543 24.1683 20.8859 23.9738C20.7888 23.9427 20.6844 23.9433 20.5872 23.9754C20.0618 24.1302 19.5451 24.3148 19.0397 24.5282C18.5499 24.7627 18.0979 25.0859 17.6255 25.3698C18.0499 26.0512 18.036 26.0964 17.3809 26.4452C17.331 26.4693 17.2827 26.4967 17.2363 26.5273C16.8305 26.7841 16.5118 27.1608 16.3238 27.6061C16.7709 27.9145 16.7919 28.0752 16.4182 28.4611C16.3362 28.5383 16.2598 28.6215 16.1897 28.71C15.9558 28.9667 15.8082 29.2915 15.7684 29.6373ZM32.4993 19.8219L32.9202 19.9516C33.4479 20.0944 33.9219 20.3897 34.2849 20.8015C34.3769 20.9373 34.4518 21.0843 34.5079 21.2391C34.5485 21.3313 34.6026 21.4167 34.6684 21.4923C35.0533 21.7968 35.4169 22.1277 35.7567 22.4828C36.1527 22.9572 36.4728 23.5019 36.8388 24.0386C36.8704 24.0102 36.9052 23.9858 36.9425 23.9659C38.2872 23.1865 39.7661 22.6773 41.2974 22.4667C41.4146 22.4381 41.536 22.4325 41.6549 22.4502C41.7001 22.4631 41.7412 22.4874 41.7745 22.5207C41.8078 22.5541 41.8322 22.5955 41.8455 22.6411C41.8262 22.735 41.7733 22.8187 41.6971 22.8762C41.6832 22.9214 41.5746 22.9045 41.5074 22.9113C39.9113 23.1268 38.3723 23.6678 36.9835 24.5016L36.7207 24.6684C37.5937 24.8438 38.4337 25.0035 39.2725 25.1849C39.9134 25.3218 40.5417 25.4823 41.1796 25.6293C41.2673 25.6537 41.3598 25.6557 41.4488 25.6352C41.6872 25.5655 41.9147 25.4429 42.1584 25.3913C43.1083 25.194 44.0602 25.0083 45.012 24.8226C45.1724 24.7949 45.3807 24.7875 45.3998 25.0246C45.4189 25.2618 45.2254 25.2737 45.0552 25.2984C44.4856 25.3872 43.9099 25.4961 43.3434 25.5748C42.9738 25.6481 42.6098 25.7562 42.2439 25.8527L42.23 25.8979L47.9592 27.6632C47.8109 27.2445 47.5692 26.8668 47.2529 26.5592C47.0286 26.3194 46.7898 26.0916 46.5704 25.8533C46.4907 25.7832 46.4374 25.6872 46.4197 25.5814C46.4019 25.4757 46.4206 25.3667 46.4728 25.2727C46.57 25.1154 46.5487 25.0263 46.4089 24.9171L45.277 23.9627C45.0703 23.7889 44.9258 23.6067 45.011 23.3301C45.0296 23.2698 44.9749 23.1483 44.9201 23.1149C44.3603 22.7497 43.794 22.388 43.2181 22.0399C42.8431 21.8142 42.771 21.7315 42.8943 21.2079C42.444 20.9291 41.9797 20.674 41.5033 20.4434C41.0236 20.2405 40.513 20.1383 39.9831 19.975C39.691 19.885 39.5747 19.717 39.6531 19.4273C39.7135 19.2312 39.6417 19.165 39.4715 19.1016C38.9225 18.9193 38.3484 18.8241 37.7692 18.8193C37.2307 18.8076 37.1604 18.7364 37.0786 18.122C36.7528 18.1433 36.4281 18.1811 36.1058 18.2352C35.8015 18.2901 35.5099 18.4095 35.2081 18.5092C34.8044 18.6051 34.5767 18.3587 34.6759 17.9488C34.7069 17.8482 34.7394 17.7426 34.7751 17.627C34.7118 17.5985 34.6453 17.578 34.577 17.5659C34.0353 17.5642 33.4921 17.5675 32.9721 17.5835C32.9474 17.5759 32.9105 17.6251 32.8863 17.6507L31.8292 18.8116C32.6543 19.2309 32.6543 19.2309 32.4993 19.8219ZM27.367 20.9935C27.6771 20.8582 27.9951 20.7429 28.3192 20.6482C28.8145 20.5365 29.3218 20.4561 29.831 20.3872C29.9833 20.3681 30.1984 20.3738 30.198 20.6214C30.1976 20.8691 30.0101 20.8443 29.8429 20.8589C29.5638 20.8699 29.2857 20.902 29.0109 20.9549C28.5943 21.0578 28.1915 21.2035 27.7167 21.3545L30.0192 22.064C30.1005 22.0777 30.1842 22.0649 30.2582 22.0275C31.139 21.7039 32.0745 21.5667 33.0066 21.6245C33.1675 21.63 33.3176 21.6707 33.3049 21.8705C33.2921 22.0703 33.1414 22.0844 32.9807 22.0955C32.4282 22.129 31.8742 22.1675 31.3185 22.211C31.1876 22.2322 31.0577 22.2602 30.9294 22.2949C31.0196 22.3734 31.1261 22.4307 31.2411 22.4625C32.1613 22.8194 33.0788 23.1792 33.9936 23.5418C34.1619 23.5937 34.4145 23.6715 34.3057 23.9188C34.197 24.1661 33.9597 24.0214 33.791 23.9529C33.2537 23.7433 32.7273 23.4985 32.1854 23.304C31.6435 23.1095 30.9871 22.9348 30.4028 22.7548C30.4268 22.7875 30.4537 22.8179 30.4832 22.8456C31.103 23.3504 31.7132 23.8688 32.2838 24.3749C32.3654 24.4439 32.4239 24.5369 32.4511 24.6412C32.4471 24.6798 32.4333 24.7167 32.4112 24.7484C32.3891 24.7802 32.3593 24.8057 32.3248 24.8226C32.2169 24.8332 32.1086 24.8113 32.0134 24.7596C31.0928 24.1566 30.2704 23.413 29.5752 22.5548C29.535 22.5094 29.5056 22.4288 29.4527 22.4069L28.1207 21.9965L28.0556 22.1196C28.43 22.4883 28.8028 22.8619 29.1837 23.227C29.2908 23.3371 29.4273 23.4397 29.317 23.604C29.2068 23.7682 29.0319 23.7198 28.897 23.6122C28.7423 23.5052 28.5983 23.3834 28.4669 23.2484C28.0947 22.8199 27.7321 22.3778 27.3695 21.9357C27.1647 21.6854 27.0894 21.7008 26.8835 21.9292C26.7022 22.1435 26.482 22.3206 26.2349 22.4506C25.975 22.5385 25.7062 22.5961 25.4338 22.6222C25.5142 22.7866 25.6094 22.9431 25.7181 23.0897C26.1172 23.554 26.5132 24.0284 26.9278 24.4425C27.6282 25.0645 28.4508 25.5299 29.3425 25.8087C29.4118 25.8301 29.5428 25.8098 29.5747 25.7591C29.7233 25.5406 29.9044 25.5689 30.1204 25.6244C30.5512 25.7572 31.004 25.8361 31.4472 25.9286C31.5264 25.953 31.667 25.9193 31.6939 25.867C31.8547 25.5917 32.0945 25.605 32.3539 25.6079C32.6133 25.6107 32.9872 25.5938 33.3382 25.5808L33.1965 25.2839C33.0048 24.8504 33.1977 24.5409 33.6769 24.5344C34.156 24.5279 34.5537 24.5568 34.9831 24.5184C35.4124 24.48 35.7569 24.3825 36.2051 24.3003C35.7905 23.3582 35.1204 22.5562 34.2721 21.9869C34.2155 21.9556 34.1532 21.9364 34.0889 21.9304C33.766 21.8695 33.6717 21.7358 33.7808 21.417C33.7959 21.3881 33.8053 21.3564 33.8084 21.3238C33.8114 21.2913 33.808 21.2585 33.7984 21.2274C33.7889 21.1963 33.7733 21.1674 33.7526 21.1426C33.7319 21.1177 33.7064 21.0973 33.6778 21.0825C33.3229 20.8795 32.9729 20.6781 32.6102 20.5002C32.4016 20.4029 32.1645 20.3629 31.9466 20.2958C31.8993 20.2797 31.856 20.2534 31.8198 20.2186C31.7835 20.1839 31.7552 20.1416 31.7367 20.0946C31.7183 20.0476 31.7101 19.997 31.7127 19.9463C31.7154 19.8956 31.7288 19.846 31.7521 19.8009C31.78 19.7104 31.8311 19.6325 31.8831 19.5164C31.7118 19.419 31.5311 19.3393 31.3437 19.2786C30.8331 19.1763 30.2818 19.1001 29.7579 18.9882C29.5597 18.9645 29.3739 18.8804 29.225 18.7469C29.1905 18.6897 29.1391 18.645 29.0779 18.6192C29.0168 18.5935 28.949 18.5879 28.8842 18.6034C28.102 18.8194 27.3164 19.0288 26.5428 19.2694C26.2784 19.3531 26.2789 19.7387 26.4955 19.9156C26.7085 20.0248 26.8959 20.1786 27.0453 20.367C27.1948 20.5554 27.3028 20.774 27.3624 21.0086L27.367 20.9935ZM16.0699 17.397C16.9822 17.7441 17.8457 18.1093 18.7308 18.404C19.6159 18.6988 20.5233 18.9564 21.4196 19.2325L21.4819 19.1361C21.0428 18.6429 20.6103 18.1463 20.1567 17.6651C19.9407 17.4334 19.6941 17.2308 19.4636 17.0111C19.3482 16.8929 19.2471 16.7462 19.387 16.5911C19.527 16.436 19.6637 16.5552 19.7689 16.6537C20.0493 16.9052 20.3327 17.1467 20.6152 17.4265C21.2227 17.9682 21.7221 18.6228 22.0866 19.3554C22.1171 19.4101 22.1654 19.4522 22.2233 19.4747L23.8376 19.9721C23.4908 19.505 23.1205 19.0565 22.7282 18.6281C22.6446 18.5539 22.5746 18.4652 22.5215 18.3662C22.5074 18.3206 22.5037 18.2723 22.5108 18.2249C22.5179 18.1775 22.5356 18.1322 22.5625 18.0926C22.6043 18.0449 22.7404 18.0428 22.8132 18.0707C22.8982 18.1087 22.9713 18.1693 23.0248 18.246L24.4846 19.8961L25.7757 19.5066C25.7757 19.5066 25.7757 19.5066 25.7896 19.4613C25.8734 18.7639 25.7188 18.0605 25.3517 17.4685C24.9846 16.8764 24.4271 16.4315 23.7721 16.2078C23.7398 16.1992 23.706 16.1973 23.6728 16.2022C23.6396 16.2071 23.6077 16.2188 23.579 16.2364C23.3245 16.4113 23.1703 16.4189 22.9869 16.1696C22.9621 16.12 22.9263 16.0769 22.8822 16.0437C22.8381 16.0106 22.787 15.9883 22.7328 15.9785C22.6786 15.9687 22.6228 15.9718 22.5698 15.9874C22.5167 16.0031 22.4679 16.0309 22.427 16.0687C22.3294 16.1369 22.2121 16.1696 22.0944 16.1614C21.9767 16.1531 21.8656 16.1044 21.7795 16.0233C21.648 15.9223 21.5115 15.8196 21.3704 15.7321C21.3069 15.6824 21.232 15.6496 21.1526 15.6365C21.0731 15.6234 20.9916 15.6305 20.9151 15.6571C20.8387 15.6838 20.7698 15.7291 20.7147 15.7891C20.6595 15.8491 20.6198 15.9219 20.599 16.001C20.5851 16.0636 20.5575 16.1224 20.5184 16.1731C20.4793 16.2239 20.4295 16.2652 20.3728 16.2941C20.3161 16.3231 20.2539 16.3389 20.1906 16.3405C20.1273 16.342 20.0646 16.3293 20.0071 16.3031C19.8929 16.2599 19.7818 16.2091 19.6744 16.151C19.4771 16.0346 19.2565 15.9639 19.0283 15.944C18.8001 15.9241 18.57 15.9556 18.3543 16.0361C18.2629 16.0688 18.1875 16.1366 18.1444 16.2247C18.1141 16.325 18.0549 16.4141 17.9745 16.4805C17.8942 16.547 17.7962 16.5878 17.6933 16.5978C17.0932 16.7147 16.533 16.9905 16.0699 17.397ZM23.6415 20.4677L23.632 20.3932C23.3497 20.3062 23.0675 20.2193 22.7852 20.1323C22.6145 20.0589 22.4308 20.0208 22.2448 20.0202C22.0588 20.0196 21.8743 20.0566 21.7019 20.1289C20.7136 20.488 19.6675 20.65 18.6217 20.6058C18.4592 20.6053 18.2441 20.5996 18.2528 20.36C18.2616 20.1205 18.459 20.1483 18.6277 20.1287C19.4811 20.0337 20.3193 19.9176 21.1758 19.8126C21.2431 19.7981 21.3092 19.778 21.3733 19.7523C19.5746 19.2767 17.8149 18.6645 16.109 17.9211C16.142 18.2855 16.3059 18.624 16.5696 18.8723C16.723 19.0077 16.8765 19.1431 17.0219 19.287C17.1674 19.4309 17.223 19.6903 17.0155 19.8356C16.8081 19.981 16.8297 20.1748 16.9497 20.366C17.0735 20.5484 17.2342 20.702 17.4213 20.8166C17.6084 20.9312 17.8176 21.0042 18.0353 21.0308C18.1207 21.029 18.2032 21.0611 18.265 21.1203C18.3268 21.1794 18.3631 21.261 18.3661 21.3474C18.368 21.5196 18.4356 21.6837 18.5546 21.8056C18.6737 21.9275 18.8351 21.9976 19.005 22.0013C19.212 22.0155 19.4139 22.0117 19.6175 22.0194C19.8212 22.027 20.0236 22.1445 19.991 22.4262C19.9844 22.4581 19.9846 22.491 19.9917 22.5226C19.9988 22.5543 20.0126 22.5839 20.0321 22.6096C20.236 22.8101 20.4203 23.1091 20.6757 23.1603C21.0183 23.2273 21.3219 23.4034 21.666 23.4654C22.8867 23.7094 23.8235 23.1501 24.6187 22.2059C24.4461 22.0035 24.3205 21.7644 24.251 21.5059C24.1816 21.2473 24.17 20.9758 24.2171 20.7112C23.8543 20.8857 23.5373 21.0523 23.2147 21.1841C22.8922 21.316 22.4606 21.5024 22.0694 21.6461C21.9796 21.6735 21.8465 21.5774 21.7376 21.5439C21.7754 21.4312 21.8318 21.3257 21.9042 21.2318C22.0179 21.1679 22.1388 21.1182 22.2643 21.084L23.6415 20.4677Z" fill="#90B8D8"/>
</svg>
