<svg width="46" height="25" viewBox="0 0 46 25" fill="none" xmlns="http://www.w3.org/2000/svg">
<path d="M41.8338 13.34C41.8367 13.3407 41.8355 13.3458 41.8355 13.3458L41.8325 13.3451L41.8204 13.3479L41.8019 13.3406L41.7591 13.3268C41.3863 13.1855 41 13.0826 40.6062 13.0199C40.5489 13.3464 40.4549 13.6655 40.3262 13.9711C40.9702 13.812 41.6307 13.7272 42.2948 13.7185C42.3436 13.7194 42.3888 13.7248 42.4343 13.7276C42.3975 13.701 42.3635 13.6754 42.3266 13.6491C42.2331 13.5827 42.1366 13.5187 42.0434 13.4621C41.9981 13.4364 41.9664 13.4114 41.91 13.383L41.8338 13.34ZM45.1544 13.9407C45.1246 14.0536 45.0791 14.1619 45.0191 14.2623C44.6162 14.9363 43.7214 15.2268 43.1576 15.7342C43.0832 15.8018 43.0059 15.8715 42.9275 15.9378C42.8491 16.0041 42.7765 16.0723 42.7036 16.1403C42.5568 16.2785 42.3943 16.4073 42.2505 16.5665C42.1067 16.7256 41.9551 16.8812 41.8032 17.0399C41.6592 17.2107 41.5095 17.3827 41.3583 17.5602C40.7629 18.2779 40.1748 19.0949 39.4502 19.9381C39.3598 20.0445 39.2672 20.1508 39.1747 20.2578C39.0802 20.3574 38.9863 20.4575 38.8892 20.5564L38.7441 20.7098L38.6732 20.7838L38.6349 20.8228L38.6266 20.8324L38.6001 20.8572C38.5932 20.8613 38.5716 20.8789 38.5716 20.8789C38.4593 20.9713 38.3437 21.0629 38.228 21.1576C38.1124 21.2523 37.9946 21.3402 37.8756 21.4341L37.4999 21.6846C37.3724 21.7674 37.2465 21.8545 37.1182 21.939C36.9867 22.0154 36.852 22.0909 36.7177 22.1662C35.5915 22.7975 34.394 23.2953 33.1499 23.6492C32.8204 23.7536 32.5015 23.826 32.1758 23.9025L31.9176 23.9644L31.6667 24.008C31.4978 24.035 31.3262 24.0637 31.1567 24.0933C30.8169 24.1462 30.4726 24.2154 30.1248 24.255C29.777 24.2946 29.4242 24.3271 29.0705 24.3652C28.893 24.3812 28.7168 24.4033 28.5373 24.4161C28.3594 24.423 28.1807 24.4329 27.9992 24.4397C27.6395 24.4563 27.277 24.472 26.9116 24.4869C26.5471 24.4881 26.1804 24.4857 25.811 24.4846C25.6261 24.4813 25.4413 24.4814 25.2535 24.4805C25.0703 24.4737 24.8846 24.4632 24.6981 24.4587C24.3237 24.44 23.949 24.4239 23.5719 24.4049C23.1976 24.3746 22.82 24.3466 22.4405 24.315C21.6817 24.2607 20.919 24.1655 20.1486 24.0824C19.6109 24.0118 19.0946 23.9604 18.5489 23.8762L17.7423 23.7355C17.4736 23.6887 17.2148 23.6126 16.952 23.553C16.4251 23.4388 15.9248 23.254 15.416 23.1017C15.1692 23.0142 14.9246 22.916 14.6786 22.8232C14.4327 22.7305 14.1903 22.636 13.957 22.527C12.131 21.7295 10.421 20.691 8.87339 19.4398C7.4666 18.3126 6.21893 17.0025 5.16424 15.5451C4.91389 15.2043 4.69902 14.8358 4.47206 14.4923C4.3658 14.3167 4.2812 14.1438 4.18563 13.9709C4.08857 13.7914 3.99446 13.6126 3.89899 13.4377C3.58341 12.7424 3.28033 12.0677 3.00505 11.4198C1.88766 8.83038 1.21988 6.61668 1.04039 5.02751C0.931107 4.05117 0.558111 2.99205 1.29052 2.16477C1.87508 1.50183 3.2393 1.32978 4.05972 1.12558C5.89539 0.704256 7.76437 0.438351 9.64657 0.330725C10.1881 0.293558 10.7421 0.262621 11.3177 0.23939C11.8933 0.216159 12.4677 0.196128 13.1015 0.217676C14.3733 0.24673 15.6409 0.380594 16.8911 0.617887C17.2173 0.690577 17.5462 0.786861 17.877 0.875101L18.1261 0.94295L18.2508 0.976738L18.3884 1.0281C18.5438 1.08972 18.6995 1.14869 18.8549 1.2103L18.9733 1.25689L19.0957 1.32195L19.3466 1.45317C19.5122 1.5346 19.6725 1.6264 19.8264 1.72802C19.975 1.82795 20.1235 1.92824 20.2753 2.02625C20.4161 2.13586 20.5571 2.24245 20.7011 2.35014C21.26 2.77907 21.7843 3.24792 22.3311 3.64235C22.4659 3.7505 22.6098 3.83487 22.7483 3.92957L22.9593 4.06834L22.9869 4.08648L22.9992 4.09536L23.0451 4.11845L23.1631 4.1793C23.202 4.19754 23.2477 4.22328 23.2818 4.23759L23.3798 4.27327C23.4465 4.30151 23.515 4.32532 23.5849 4.34454C23.7353 4.39038 23.8888 4.42575 24.0441 4.45039C25.3173 4.63275 26.7208 4.19941 28.1601 4.20219C29.5264 4.1433 30.8956 4.23683 32.242 4.48101C32.5715 4.54017 32.8926 4.63142 33.2106 4.71334L33.2696 4.73114L33.3129 4.74463L33.3265 4.74803L33.3531 4.75775L33.4641 4.79939L33.6866 4.88083L34.1266 5.04207L34.5607 5.20184C34.7078 5.25147 34.8517 5.31027 34.9915 5.37788C35.2754 5.51463 35.5575 5.6478 35.8366 5.78061C36.3727 6.03805 36.8941 6.32492 37.3982 6.63986C37.905 6.9152 38.3524 7.25576 38.8035 7.55765C40.3381 8.65039 41.7706 9.87806 43.0837 11.2257C43.5408 11.724 43.9577 12.1746 44.3165 12.5813C44.7425 13.052 45.283 13.3789 45.1544 13.9407ZM44.6608 13.7746C44.6543 13.732 44.6433 13.6902 44.628 13.6499C44.5238 13.4231 44.3708 13.2216 44.1798 13.0595C43.7497 12.637 43.2511 12.1544 42.6989 11.6153C41.3527 10.3578 39.9079 9.20872 38.3781 8.17907C37.9332 7.89932 37.4922 7.58016 36.9951 7.32431C36.5075 7.0347 36.0045 6.77147 35.4883 6.5358C35.2285 6.41673 34.9636 6.29638 34.6965 6.17236C34.56 6.10767 34.4192 6.05248 34.2751 6.00721L33.8386 5.8554C33.2615 5.65436 32.6671 5.50632 32.0631 5.41315C30.7833 5.18801 29.4833 5.10171 28.1858 5.15576C28.022 5.1639 27.8292 5.14732 27.6898 5.16116C27.5257 5.16921 27.3613 5.17991 27.1949 5.19865C26.8541 5.24272 26.5088 5.28019 26.1625 5.32599C25.4176 5.44579 24.6592 5.46336 23.9086 5.37818C23.708 5.34715 23.5098 5.30258 23.3152 5.24475C23.2123 5.21409 23.1114 5.1774 23.0128 5.13488L22.8604 5.07399C22.8108 5.05309 22.7781 5.0333 22.7372 5.01186L22.6163 4.95028L22.558 4.9183L22.5232 4.90107L22.5153 4.8964L22.5005 4.88687L22.474 4.8659L22.238 4.71275C22.0827 4.60495 21.9185 4.50967 21.7795 4.39467C21.1829 3.95949 20.6628 3.49128 20.1294 3.07766L19.7353 2.7729C19.5991 2.6815 19.4677 2.58973 19.3325 2.50326C19.205 2.41614 19.072 2.33711 18.9344 2.26663L18.7391 2.15778L18.6396 2.10427L18.5245 2.0554L18.0587 1.87064L17.9643 1.83277L17.8507 1.80173L17.6207 1.73592C17.312 1.65319 17.0143 1.55886 16.7086 1.48583C15.5063 1.24473 14.2873 1.09691 13.0626 1.04371C12.5024 1.01602 11.9071 1.02543 11.3473 1.0324C10.7875 1.03937 10.2332 1.05897 9.69864 1.08078C7.8505 1.13717 6.00957 1.32841 4.19076 1.65298C3.52892 1.76977 2.88282 1.9606 2.26479 2.22181C1.97708 2.34392 1.72232 2.53113 1.5208 2.76854C2.10018 3.44876 3.39065 3.2599 4.16193 3.17123C4.66151 3.11213 5.16811 3.14396 5.6569 3.26514L6.04832 3.38865C6.17907 3.43287 6.29364 3.48393 6.4175 3.53226C6.65987 3.6268 6.91257 3.72702 7.17157 3.83658C8.25548 4.32888 9.36725 4.7579 10.5012 5.12144C10.8046 5.21449 11.1107 5.27326 11.4313 5.34457C11.7621 5.40986 12.0968 5.47149 12.4357 5.54036C12.7745 5.60922 13.1244 5.67773 13.4762 5.751C13.8265 5.81804 14.185 5.89296 14.5446 5.98837C14.9043 6.08377 15.2704 6.15166 15.6368 6.27167L16.7485 6.62622C17.1265 6.76892 17.4704 6.89768 17.8417 7.0562C18.2085 7.20775 18.5769 7.36553 18.9393 7.52376C20.3937 8.21781 21.9075 8.78073 23.4624 9.20568C24.261 9.38828 25.0683 9.52999 25.8811 9.63026C26.6978 9.7301 27.5006 9.82779 28.2895 9.92333C29.0841 10.0179 29.8729 10.1484 30.6399 10.308C31.0349 10.3951 31.3843 10.4907 31.7522 10.5796C32.1201 10.6685 32.4772 10.757 32.8304 10.8594C33.5399 11.0532 34.2347 11.248 34.8953 11.4168C35.2298 11.5029 35.557 11.5902 35.8783 11.6729C36.2032 11.7395 36.5189 11.8069 36.8325 11.8718L37.2964 11.9702C37.3715 11.9831 37.4585 12.0048 37.5204 12.0143L37.755 12.0472C38.0722 12.0974 38.3584 12.1198 38.6491 12.1495C39.2423 12.1939 39.8336 12.2352 40.3992 12.3213C40.9473 12.4043 41.4826 12.557 41.992 12.7755L42.0394 12.7958L42.0605 12.8038L42.0734 12.8102L42.1016 12.823L42.1804 12.8682C42.2342 12.896 42.3008 12.9413 42.3607 12.9792C42.4698 13.0522 42.5665 13.1279 42.6617 13.2002C42.8501 13.3477 43.0234 13.4883 43.1923 13.6108C43.3249 13.7094 43.4658 13.7965 43.6135 13.871C43.869 13.94 44.1323 13.9757 44.3969 13.9772C44.425 13.9706 44.4519 13.9599 44.4769 13.9455C44.5 13.9342 44.5351 13.9316 44.5523 13.9099C44.5785 13.8956 44.6016 13.8762 44.6202 13.853C44.6388 13.8298 44.6526 13.8032 44.6608 13.7746ZM43.7316 14.6499C43.8163 14.5879 43.8979 14.5279 43.9771 14.4645C43.6045 14.4221 43.2483 14.287 42.9415 14.0718C42.7313 14.0639 42.5207 14.0689 42.3112 14.0868C41.5996 14.1598 40.8987 14.3108 40.2213 14.5372C40.0301 14.5956 39.8343 14.6614 39.6346 14.732C39.5442 14.7792 39.4502 14.8191 39.3534 14.8515C39.2829 14.8816 39.2086 14.9022 39.1325 14.913C38.6285 15.1032 38.0964 15.3116 37.5251 15.5394C36.4238 16.0144 35.2791 16.3841 34.1064 16.6436C33.4383 16.7467 32.7626 16.7961 32.086 16.7913C31.3913 16.7817 30.6833 16.7343 29.9702 16.66C28.5307 16.5166 27.0904 16.2724 25.5763 16.3399C24.8069 16.3631 24.0145 16.3983 23.1907 16.385C22.7643 16.3731 22.3389 16.337 21.9166 16.2769C21.7019 16.2527 21.4891 16.2141 21.2796 16.1614L20.9808 16.0842L20.8303 16.0468L20.7273 16.0184L20.6531 15.991C17.4788 14.9079 14.697 13.3863 12.2032 12.0083C11.5816 11.6611 10.9759 11.3219 10.3861 10.9906C10.242 10.9089 10.0949 10.8264 9.953 10.7453C9.80433 10.6566 9.65862 10.5686 9.51485 10.4839C9.21874 10.3158 8.95186 10.12 8.68188 9.93818C7.70486 9.23925 6.80927 8.43432 6.01182 7.53839C5.66452 7.14982 5.33708 6.74423 5.03073 6.32315C4.95703 6.22441 4.88813 6.12996 4.81637 6.03442C4.72924 5.91252 4.68524 5.82972 4.61871 5.72732C4.49564 5.53589 4.37995 5.34941 4.26585 5.16915C3.56198 4.05791 2.63941 3.39705 1.2589 3.3798C1.24864 3.91515 1.29931 4.45016 1.40993 4.9747C1.69193 6.49037 2.43897 8.62323 3.62207 11.1517C3.91314 11.7834 4.23193 12.4422 4.56592 13.1343C4.65637 13.2916 4.7496 13.4519 4.84182 13.6163C4.94171 13.7845 5.03296 13.9621 5.14083 14.1234C5.35988 14.4389 5.55761 14.7709 5.80468 15.0918C6.8436 16.4655 8.05907 17.6986 9.41995 18.7597C12.5196 21.2594 16.2966 22.7873 20.2675 23.1477C21.0247 23.2303 21.7737 23.3221 22.5206 23.3788C22.8919 23.4084 23.2626 23.4405 23.6314 23.4695C23.9996 23.4893 24.3686 23.5067 24.7334 23.5261C24.914 23.5322 25.0969 23.5417 25.2793 23.5529L25.8188 23.5584L26.8949 23.5682C27.2481 23.5559 27.6016 23.5407 27.9519 23.5274C28.1267 23.5223 28.2989 23.5163 28.474 23.5083C28.6491 23.5002 28.82 23.4779 28.9908 23.465C29.3343 23.433 29.6748 23.4013 30.0124 23.3699C30.3481 23.3331 30.6792 23.2696 31.0094 23.2225C31.1723 23.1974 31.3377 23.1699 31.4989 23.144L31.7431 23.107L31.9729 23.0555C32.3006 22.9818 32.6278 22.9118 32.9217 22.8215C34.1041 22.5018 35.2454 22.0491 36.3235 21.4723C38.4561 20.4322 39.5869 18.5745 40.8778 17.1527C41.0397 16.9748 41.2007 16.7998 41.3553 16.6289C41.5232 16.4673 41.6846 16.3067 41.8447 16.1516C42.0019 15.9998 42.167 15.8562 42.3392 15.7214C42.4227 15.6533 42.5033 15.5844 42.5854 15.519C42.6675 15.4536 42.741 15.3943 42.817 15.3328C43.1173 15.0849 43.4514 14.8582 43.7316 14.6499ZM39.5286 13.8182C39.6415 13.5325 39.7214 13.235 39.7667 12.9311C39.3947 12.9045 39.0082 12.8886 38.6022 12.8706C38.2938 12.8509 37.9637 12.832 37.6585 12.7932L37.5577 12.7794C37.4921 13.4943 37.313 14.1941 37.0269 14.8526C36.9965 14.9165 36.9604 14.9793 36.9248 15.0423C37.0449 15.0004 37.166 14.956 37.2854 14.917C37.9228 14.6913 38.5234 14.4875 39.0941 14.3092C39.1744 14.2515 39.248 14.1852 39.3137 14.1115C39.4013 14.0263 39.4739 13.9272 39.5286 13.8182ZM36.2829 14.4952C36.5212 13.9034 36.6707 13.2798 36.7267 12.6442L36.6942 12.6361C36.3677 12.5777 36.0378 12.5185 35.7012 12.4548C35.3701 12.3782 35.0354 12.2975 34.6955 12.2187C34.3841 12.1466 34.0736 12.0692 33.7612 11.9887C33.7033 12.5052 33.619 13.0184 33.5087 13.5262C33.4015 14.0437 33.2389 14.5482 33.0238 15.0311C33.0281 15.0416 33.0335 15.0516 33.0398 15.0611L33.0526 15.0899C33.1081 15.1934 33.1941 15.2778 33.299 15.3318C33.4503 15.4089 33.6131 15.4611 33.781 15.4864C33.9954 15.5206 34.2123 15.5357 34.4293 15.5314C34.5473 15.5293 34.6707 15.5259 34.7977 15.5144C34.9099 15.4934 35.0348 15.4904 35.1499 15.4589C35.4031 15.4004 35.6382 15.2824 35.8353 15.1147C36.0325 14.947 36.186 14.7345 36.2829 14.4952ZM33.0918 15.9529C33.0436 15.9265 32.9956 15.8974 32.9487 15.8655C32.8469 15.7967 32.7566 15.7123 32.6812 15.6156C32.678 15.6175 32.6766 15.623 32.673 15.6248C32.5661 15.7531 32.4417 15.8659 32.3033 15.9599C32.3 15.9622 32.2938 15.9634 32.2905 15.9657C32.5623 15.9658 32.8288 15.9634 33.0922 15.9514L33.0918 15.9529ZM32.2042 14.8327C32.4245 14.3588 32.5866 13.86 32.687 13.3472C32.7971 12.8296 32.8801 12.3066 32.9355 11.7803C32.8326 11.7516 32.7293 11.7259 32.6231 11.6994C32.2733 11.6069 31.9125 11.5224 31.549 11.4377C31.1856 11.353 30.8043 11.258 30.4518 11.1873C30.1821 11.1318 29.9071 11.0862 29.6322 11.0407C29.6177 11.0614 29.6021 11.0814 29.5856 11.1005C29.1896 11.6922 28.8834 12.3387 28.6768 13.0194C28.6319 13.143 28.5836 13.268 28.5325 13.4021L28.4801 13.5782C28.4577 13.6444 28.4435 13.7124 28.4267 13.78C28.3459 14.0326 28.3258 14.3006 28.368 14.5627C28.3947 14.6642 28.4552 14.754 28.5395 14.8174C28.6583 14.9074 28.7917 14.9765 28.934 15.0217C29.1091 15.0828 29.2875 15.1339 29.4683 15.175C29.6703 15.2226 29.8776 15.2742 30.0903 15.3241C30.4924 15.4379 30.9103 15.4858 31.3274 15.466C31.5191 15.4532 31.703 15.387 31.8581 15.275C32.0132 15.163 32.1331 15.0097 32.2042 14.8327ZM27.7224 15.5086C27.951 15.5341 28.1797 15.5593 28.4028 15.5865C28.2832 15.5223 28.1711 15.4453 28.0684 15.3568C28.006 15.3019 27.9496 15.2408 27.9 15.1743C27.8854 15.2095 27.8682 15.244 27.8535 15.2792L27.7946 15.3993L27.7224 15.5086ZM28.8231 11.4842C28.9439 11.3021 29.0821 11.1321 29.2358 10.9765C29.0828 10.9524 28.9222 10.9353 28.7658 10.9138C28.8024 11.1019 28.8216 11.2928 28.8231 11.4842ZM27.3469 14.3227C27.5683 13.7334 27.7451 13.1284 27.876 12.5128C27.9406 12.1978 27.9769 11.8776 27.9843 11.556C27.9931 11.2956 27.9432 11.0362 27.8381 10.7969C27.1574 10.7195 26.4658 10.64 25.7632 10.5582C24.9295 10.4576 24.1015 10.3136 23.2828 10.1268C23.2737 10.1505 23.2622 10.1733 23.2495 10.202C23.2108 10.2867 23.1676 10.3909 23.115 10.5094C23.0624 10.628 23.0055 10.7633 22.9434 10.9199C22.8758 11.0751 22.8123 11.2484 22.7426 11.4462C22.5719 11.9113 22.4358 12.3882 22.3355 12.8733C22.3022 13.0166 22.2785 13.162 22.2643 13.3084C22.2461 13.464 22.2361 13.6204 22.2345 13.7771C22.2364 13.9267 22.2522 14.0771 22.2907 14.1096C22.3939 14.2043 22.5105 14.2836 22.6367 14.3448L22.7692 14.4167L22.8352 14.4533C22.8659 14.4683 22.8956 14.4853 22.924 14.5042C23.0098 14.5543 23.0943 14.6068 23.1808 14.6571C23.2674 14.7074 23.3594 14.7532 23.4484 14.8014C23.5396 14.8511 23.6341 14.8948 23.7311 14.932C23.9246 15.0149 24.1246 15.082 24.3289 15.1326C24.5482 15.1713 24.7701 15.1931 24.9926 15.1977C25.2247 15.2093 25.4869 15.1973 25.7493 15.1881C26.0194 15.1839 26.3032 15.1827 26.5679 15.1656C26.6882 15.1607 26.8081 15.1484 26.9268 15.1287C26.9587 15.1281 26.9614 15.1172 26.9735 15.1144C26.9855 15.1115 26.9982 15.1093 27.0058 15.1026C27.0099 15.0861 27.0241 15.0982 27.0442 15.052C27.0546 15.0358 27.0662 15.0204 27.0788 15.0058L27.114 14.9229C27.1432 14.865 27.1687 14.8051 27.1903 14.7439C27.2415 14.606 27.2944 14.4642 27.3469 14.3227ZM23.0955 15.4385C22.7877 15.2698 22.5163 15.0908 22.2869 14.9474C22.066 14.8327 21.8732 14.6712 21.7221 14.4743C21.6866 14.4074 21.6556 14.3383 21.6291 14.2675C21.613 14.205 21.6008 14.1417 21.5925 14.0778C21.5871 14.0384 21.5839 13.9987 21.583 13.9589C21.4869 14.1645 21.3597 14.3543 21.2059 14.5217C21.0095 14.722 20.7618 14.8654 20.4892 14.9366C20.6781 14.9408 20.8644 14.9823 21.0373 15.0587C21.2319 15.1247 21.421 15.2005 21.5152 15.2294C21.6988 15.2832 21.8866 15.3214 22.0766 15.3436C22.4145 15.3926 22.7547 15.4239 23.0957 15.4374L23.0955 15.4385ZM23.0363 10.0689C23.0371 10.0659 23.0371 10.0659 23.0407 10.0641C22.7253 9.98285 22.4164 9.89737 22.1173 9.79957C22.1407 9.87997 22.1648 9.96906 22.1916 10.0705C22.2998 10.4535 22.3332 10.8532 22.2899 11.248C22.2865 11.2728 22.2817 11.303 22.2785 11.3283C22.2894 11.3081 22.2981 11.2842 22.309 11.264C22.3904 11.0868 22.4816 10.9143 22.5823 10.7472C22.6559 10.6107 22.7381 10.4789 22.8282 10.3526C22.9068 10.2401 22.971 10.1442 23.0363 10.0689ZM21.3928 12.7364C21.5913 12.1377 21.7189 11.6017 21.8238 11.1634C21.8932 10.8207 21.9076 10.4691 21.8663 10.1215C21.8517 9.96021 21.8449 9.82377 21.845 9.70883C20.684 9.31948 19.603 8.82926 18.567 8.36771C18.3076 8.24873 18.0563 8.14302 17.8036 8.03155C17.5514 8.08539 17.3301 8.23356 17.1856 8.44537C16.9796 8.71175 16.8177 9.00912 16.7061 9.32633C16.4787 9.94927 16.3479 10.6032 16.3182 11.2658C16.271 11.8438 16.3511 12.4255 16.5531 12.9705C16.6232 13.1723 16.7629 13.3432 16.9476 13.4529C16.9758 13.4685 17.0069 13.482 17.0377 13.4982L17.3978 13.6656C17.4893 13.7055 17.5804 13.7453 17.6703 13.7793C18.1354 13.9595 18.6154 14.0992 19.1046 14.1967C19.5084 14.2925 19.9268 14.309 20.3364 14.2453L20.4567 14.2151L20.5576 14.1684C20.5889 14.157 20.6177 14.14 20.6426 14.1181C20.6735 14.1001 20.7009 14.0768 20.7235 14.0493C20.8383 13.9328 20.9347 13.7997 21.0095 13.6545C21.1649 13.3606 21.2936 13.0535 21.3943 12.7368L21.3928 12.7364ZM16.5211 7.92416C16.6094 7.81347 16.7067 7.71015 16.8119 7.61523C16.6824 7.56589 16.5544 7.51225 16.4331 7.46613L16.1095 7.35988C16.1913 7.67584 16.2395 7.99933 16.2533 8.32501C16.3334 8.18526 16.4235 8.05145 16.523 7.92462L16.5211 7.92416ZM15.6493 12.8285C15.5431 12.4256 15.4885 12.0111 15.4866 11.595C15.3885 11.6776 15.2806 11.748 15.1653 11.8047C14.9614 11.8984 14.7433 11.9584 14.5196 11.9821C14.3571 11.996 14.1966 12.002 14.0381 12.0001C14.5667 12.2751 15.1044 12.5515 15.6512 12.829L15.6493 12.8285ZM15.4891 10.2422C15.5551 9.99145 15.6069 9.73715 15.6443 9.48052C15.7712 8.74398 15.8161 7.99551 15.7781 7.24859L15.3857 7.11631C15.042 6.99925 14.6814 6.92689 14.3352 6.82903C13.9891 6.73117 13.6389 6.65287 13.293 6.57797C13.192 6.55591 13.0903 6.5333 12.9896 6.50823C12.4851 7.44326 12.177 8.47082 12.0841 9.5289C12.0543 9.93082 12.1713 10.3305 12.4138 10.6549C12.6638 10.9225 12.995 11.1017 13.3567 11.1651C13.7138 11.2395 14.0789 11.2677 14.443 11.2489C14.5765 11.248 14.7084 11.2208 14.831 11.1688C14.9536 11.1168 15.0645 11.041 15.1572 10.946C15.3189 10.7388 15.4323 10.4985 15.4891 10.2422ZM11.2697 9.83634C11.2611 9.7309 11.2561 9.62363 11.2552 9.52204C11.3251 8.40622 11.6278 7.31788 12.144 6.32597C11.8503 6.26136 11.5574 6.19694 11.2685 6.13664C10.9337 6.05324 10.5939 5.97715 10.2776 5.86963C10.0339 5.79146 9.79922 5.71164 9.56949 5.62452C9.37731 6.25189 9.21765 6.88873 9.09112 7.53255C9.00011 8.00605 9.06676 8.4967 9.28102 8.93052C9.45421 9.28028 9.73796 9.56445 10.0888 9.73948C10.3515 9.88276 10.6532 9.93886 10.9497 9.89953C11.0147 9.89254 11.0792 9.88178 11.1429 9.86729C11.1859 9.86006 11.2283 9.84972 11.2697 9.83634ZM8.3455 8.73518C8.27409 8.46163 8.23887 8.18014 8.24076 7.89783C8.22826 7.90293 8.21552 7.90741 8.20256 7.91123C8.08177 7.94442 7.95701 7.96153 7.83154 7.96212C7.75315 7.9624 7.66555 7.9666 7.57084 7.9632L7.39536 7.93658C7.69305 8.2084 8.00924 8.47356 8.3455 8.73518ZM8.27181 7.4178C8.34155 6.87051 8.83786 6.17666 8.72158 5.62304C8.70934 5.56072 8.68823 5.50041 8.65889 5.44393C8.38337 4.90229 7.46269 4.71026 6.90349 4.44748C6.88273 4.43648 6.85903 4.42786 6.83864 4.41696C6.64541 5.06175 6.58107 5.7383 6.64921 6.40861C6.67745 6.64526 6.77997 6.86739 6.94223 7.04353C6.97251 7.08345 7.01024 7.11724 7.05334 7.14305C7.09285 7.16997 7.12868 7.20065 7.1704 7.22968C7.25895 7.26882 7.33602 7.31947 7.42031 7.35212C7.50461 7.38477 7.5852 7.41028 7.65952 7.43733C7.73385 7.46439 7.80851 7.47755 7.87673 7.49454C8.00527 7.5351 8.11764 7.56037 8.20403 7.58461C8.22046 7.58893 8.23643 7.59486 8.2517 7.60231L8.27181 7.4178ZM5.5057 5.96029C5.61849 6.10023 5.73386 6.24081 5.85567 6.37755C5.76779 5.59944 5.83618 4.81235 6.05688 4.06185C5.97616 4.02427 5.89314 3.98651 5.81881 3.95945C5.70787 3.91745 5.59915 3.8791 5.49346 3.83958C5.07493 3.71531 4.63781 3.6656 4.20239 3.69276C4.03208 3.70199 3.86178 3.71433 3.69211 3.721C3.76839 3.78583 3.84625 3.85687 3.9209 3.92983C4.20642 4.22438 4.46808 4.54083 4.70343 4.87619C4.82802 5.05053 4.9564 5.23163 5.08968 5.41667C5.15238 5.50141 5.22761 5.61763 5.28077 5.68252C5.35555 5.77377 5.43063 5.86703 5.5057 5.96029Z" fill="#90B8D8"/>
</svg>
