<svg width="52" height="39" viewBox="0 0 52 39" fill="none" xmlns="http://www.w3.org/2000/svg">
<path d="M2.16786 25.3416C1.86896 25.2726 1.57454 25.4617 1.50532 25.7616C1.43611 26.0616 1.62296 26.3617 1.9168 26.4295L49.2545 37.3533C49.5534 37.4223 49.8479 37.2332 49.9171 36.9332C49.9863 36.6333 49.7994 36.3331 49.5056 36.2653L2.16786 25.3416ZM2.4283 24.2129L49.766 35.1367C50.683 35.3483 51.2541 36.2726 51.0418 37.1928C50.8294 38.113 49.9111 38.6935 48.9941 38.4819L1.66142 27.5593C0.744452 27.3477 0.173364 26.4235 0.38571 25.5033C0.59299 24.5819 1.51134 24.0013 2.4283 24.2129Z" fill="#90B8D8"/>
<path d="M3.96036 20.2562L3.02533 24.3081L15.412 27.1665L16.2789 23.4094C16.5077 23.4355 16.7186 23.4466 16.8648 23.4375C17.0967 23.4268 17.2892 23.4016 17.4728 23.369L16.5378 27.4209C16.3935 28.0462 15.7758 28.4338 15.1527 28.29L2.77112 25.4328C2.14799 25.289 1.76259 24.67 1.90689 24.0447L3.08007 18.9607C3.09063 18.915 3.11132 18.8715 3.12695 18.827C3.07554 19.2809 3.2463 19.7434 3.96036 20.2562Z" fill="#90B8D8"/>
<path d="M13.2242 26.3613C13.3812 26.3975 13.5372 26.2997 13.5736 26.1421L13.9642 24.4491C14.0006 24.2915 13.9033 24.1352 13.7462 24.0989C13.5892 24.0627 13.4332 24.1606 13.3968 24.3182L13.0062 26.0111C12.9749 26.1699 13.0722 26.3262 13.2242 26.3613ZM9.06979 25.1028L9.59069 22.8455C9.62705 22.6879 9.78304 22.59 9.94009 22.6263C10.0971 22.6625 10.1945 22.8188 10.1581 22.9764L9.6372 25.2337C9.60083 25.3913 9.44485 25.4892 9.2878 25.4529C9.13075 25.4167 9.03343 25.2604 9.06979 25.1028ZM5.12836 24.1932L5.51903 22.5003C5.5554 22.3427 5.71138 22.2448 5.86843 22.281C6.02548 22.3173 6.1228 22.4736 6.08643 22.6312L5.69576 24.3242C5.65939 24.4818 5.50341 24.5796 5.34636 24.5434C5.18931 24.5072 5.09199 24.3508 5.12836 24.1932Z" fill="#90B8D8"/>
<path d="M6.36686 21.5073C6.97986 21.6488 7.65056 21.7714 8.33022 21.9015C8.99585 22.0229 9.68058 22.1542 10.3138 22.3003C10.942 22.4453 11.6189 22.6336 12.2717 22.811C13.8624 23.2477 15.3669 23.6645 16.4771 23.594C17.9766 23.501 18.7522 22.9839 18.9974 21.9213C19.2426 20.8588 18.772 20.0541 17.4649 19.3133C16.8992 18.99 16.3236 18.8947 15.6568 18.7783C14.6661 18.6086 13.4287 18.398 11.6534 17.2815C8.74231 15.6299 7.29052 16.0017 6.12255 16.2997C5.78221 16.3872 5.49334 16.4597 5.19593 16.4768C3.69642 16.5698 2.92078 17.087 2.67558 18.1495C2.43039 19.212 2.901 20.0168 4.20811 20.7575C4.76875 21.0796 5.51576 21.3109 6.36686 21.5073ZM10.5704 21.1654C9.91687 21.0146 9.22084 20.8861 8.54625 20.7572C7.08326 20.4839 5.56844 20.2039 4.75183 19.7424C3.60017 19.0911 3.69637 18.6742 3.75855 18.4048C3.82191 18.1302 3.91693 17.7184 5.23753 17.6376C5.63823 17.6123 6.01249 17.5166 6.36919 17.4276C7.44673 17.1515 8.56324 16.8683 11.0742 18.2884C13.014 19.5018 14.4197 19.7458 15.447 19.9186C16.0366 20.0226 16.5047 20.0984 16.9048 20.33C18.0564 20.9813 17.9602 21.3982 17.8981 21.6676C17.8347 21.9422 17.7397 22.354 16.4191 22.4348C15.4828 22.4918 14.0024 22.0859 12.5637 21.6843C11.9109 21.5069 11.2239 21.3162 10.5704 21.1654Z" fill="#90B8D8"/>
<path d="M13.8008 11.0249C13.9578 11.0611 14.1138 10.9633 14.1502 10.8057C14.1866 10.6481 14.0892 10.4917 13.9322 10.4555C13.1571 10.2766 12.6705 9.495 12.85 8.71715C12.8863 8.55955 12.789 8.40323 12.632 8.36699C12.4749 8.33075 12.3216 8.43995 12.2864 8.59247C12.0342 9.68552 12.7116 10.7735 13.8008 11.0249ZM14.9083 6.22565C16.4585 6.58339 17.4329 8.14155 17.0727 9.70232C16.7126 11.2631 15.159 12.2379 13.6037 11.879C12.0535 11.5213 11.0791 9.96309 11.4392 8.40232C11.7994 6.84155 13.358 5.86792 14.9083 6.22565ZM15.1699 5.09193C12.9915 4.58923 10.8202 5.95161 10.3157 8.13771C9.81126 10.3238 11.166 12.4998 13.3444 13.0025C15.5229 13.5052 17.6941 12.1429 18.1986 9.95677C18.7031 7.77068 17.3433 5.59346 15.1699 5.09193Z" fill="#90B8D8"/>
<path d="M25.357 22.6178C26.0814 22.785 26.9237 22.2565 27.0915 21.5295C27.1279 21.3719 27.0305 21.2156 26.8735 21.1793C26.7164 21.1431 26.5605 21.2409 26.5241 21.3985C26.4291 21.8103 25.8925 22.147 25.4821 22.0523C25.3251 22.0161 25.1691 22.114 25.1327 22.2716C25.0964 22.4292 25.1999 22.5816 25.357 22.6178ZM26.204 18.9472C27.4452 19.2336 28.2199 20.478 27.9325 21.7235C27.645 22.9691 26.4034 23.7482 25.1622 23.4618C23.921 23.1753 23.1463 21.931 23.4338 20.6854C23.7212 19.4399 24.9577 18.6596 26.204 18.9472ZM26.4656 17.8135C24.6013 17.3833 22.7369 18.5487 22.304 20.4247C21.8711 22.3007 23.0312 24.1641 24.9006 24.5955C26.77 25.0269 28.6293 23.8602 29.0622 21.9843C29.4951 20.1083 28.33 18.2437 26.4656 17.8135Z" fill="#90B8D8"/>
<path d="M32.9272 2.64646C31.0629 2.21625 29.1973 3.3868 28.7656 5.25769C28.3338 7.12858 29.4978 8.99823 31.3622 9.42845C33.2265 9.85866 35.092 8.68811 35.5238 6.81722C35.9555 4.94633 34.7915 3.07668 32.9272 2.64646ZM33.1876 1.51783C35.6751 2.09184 37.2245 4.58054 36.6484 7.07676C36.0724 9.57297 33.5892 11.1311 31.1017 10.5571C28.6143 9.98307 27.0649 7.49437 27.6409 4.99816C28.2169 2.50194 30.7002 0.943817 33.1876 1.51783ZM31.3451 8.23043C31.3815 8.07283 31.5375 7.97495 31.6945 8.01119C32.7787 8.26138 33.8694 7.58136 34.1216 6.48831C34.158 6.3307 34.314 6.23283 34.471 6.26907C34.6281 6.30532 34.7254 6.46164 34.689 6.61924C34.3652 8.02241 32.9676 8.89934 31.5694 8.57668C31.401 8.54319 31.3088 8.38803 31.3451 8.23043Z" fill="#90B8D8"/>
</svg>
