<svg width="231" height="207" viewBox="0 0 231 207" fill="none" xmlns="http://www.w3.org/2000/svg">
<path d="M227.267 190.989C227.24 190.971 227.213 190.953 227.186 190.936L199.376 173.322L150.054 71.2135C149.682 70.4033 149.277 69.6225 148.845 68.8664C148.787 68.7512 148.722 68.6401 148.649 68.5339C142.746 58.5225 131.513 53.4089 116.648 54.0774C116.583 54.0804 116.517 54.0858 116.451 54.093C114.655 54.3044 112.874 54.6325 111.121 55.0753C109.013 53.291 105.805 52.8099 101.937 53.6842L88.6422 2.50106C88.4624 1.80895 88.0206 1.21189 87.4087 0.834072C86.7969 0.456249 86.062 0.326753 85.357 0.47252L71.4726 3.34468C71.0792 3.42605 70.7082 3.59054 70.3848 3.82695C70.0615 4.06336 69.7933 4.36615 69.5986 4.71472C69.4039 5.06329 69.2873 5.44947 69.2566 5.84698C69.2259 6.24449 69.2819 6.644 69.4208 7.01834L72.8761 16.3273L64.4787 23.1833L59.2712 16.3217C59.0114 15.9793 58.6753 15.701 58.2892 15.5087C57.9031 15.3163 57.4776 15.2151 57.0458 15.213C56.614 15.2109 56.1877 15.3079 55.8002 15.4964C55.4127 15.6849 55.0746 15.9599 54.8123 16.2997L39.8574 35.6676C39.6235 35.9704 39.4552 36.3179 39.3629 36.6883C39.2707 37.0587 39.2564 37.4442 39.3211 37.8205C39.3857 38.1969 39.5279 38.5561 39.7387 38.8756C39.9495 39.1952 40.2245 39.4683 40.5463 39.6779L56.0322 49.7618L52.4005 55.8194C52.2022 56.1501 52.0755 56.5182 52.0284 56.9003C51.9812 57.2824 52.0148 57.6701 52.1268 58.0389C52.2389 58.4076 52.427 58.7493 52.6792 59.0423C52.9314 59.3353 53.2423 59.5731 53.592 59.7406L79.1538 71.99C77.3424 75.7691 77.1204 79.1483 78.5341 81.6494C77.7567 83.2798 77.0918 84.9608 76.5442 86.6809C76.5264 86.7384 76.5104 86.7961 76.4959 86.8543C72.7582 102.091 76.6272 111.748 81.5682 117.644C79.3684 118.733 77.2496 119.976 75.2276 121.362C75.1731 121.399 75.1204 121.438 75.0688 121.479C73.6572 122.6 72.3214 123.811 71.07 125.106C68.3319 124.695 65.3532 125.966 62.5367 128.735L24.0016 92.2018C23.4805 91.7077 22.7876 91.4317 22.0672 91.4312C21.3467 91.4306 20.6542 91.7057 20.1337 92.1991L9.88209 101.916C9.59189 102.191 9.36493 102.526 9.21663 102.896C9.06832 103.266 9.00215 103.664 9.02262 104.062C9.04308 104.46 9.14969 104.849 9.33521 105.203C9.52074 105.556 9.78081 105.866 10.0978 106.112L17.9864 112.213L14.5117 122.44L6.44278 119.337C6.04012 119.183 5.60703 119.123 5.17735 119.162C4.74767 119.201 4.33302 119.338 3.96581 119.562C3.59861 119.787 3.28878 120.092 3.06055 120.455C2.83231 120.818 2.69185 121.229 2.65013 121.655L0.274169 145.947C0.238122 146.314 0.276052 146.684 0.385749 147.036C0.495446 147.389 0.674715 147.716 0.913101 147.999C1.15149 148.282 1.44422 148.515 1.77424 148.685C2.10425 148.854 2.46494 148.957 2.83527 148.987C2.88781 148.992 2.94129 148.996 2.99464 148.996L21.5024 149.453L21.6459 156.504C21.6537 156.889 21.7422 157.268 21.9057 157.617C22.0692 157.967 22.3041 158.279 22.5955 158.533C22.8869 158.788 23.2284 158.98 23.5984 159.097C23.9684 159.214 24.3588 159.253 24.7447 159.212L52.9544 156.231C53.4299 160.392 55.0408 163.381 57.5737 164.765C57.7817 166.558 58.1127 168.335 58.5644 170.083C58.5793 170.142 58.5962 170.199 58.615 170.256C60.1459 175.096 62.4905 179.645 65.5496 183.711C65.615 183.804 65.6859 183.893 65.762 183.977C71.1149 190.75 78.2334 194.627 86.623 195.156L188.068 203.616L188.078 203.616L221.917 206.438L221.923 206.439C221.953 206.441 221.984 206.444 222.016 206.446C223.874 206.537 225.711 206.025 227.247 204.987C228.784 203.949 229.936 202.442 230.53 200.694C231.124 198.946 231.127 197.053 230.538 195.302C229.949 193.551 228.801 192.037 227.267 190.99L227.267 190.989ZM184.954 156.31L190.437 167.661L180.149 161.146C182.003 159.801 183.626 158.168 184.954 156.31ZM103.888 62.2469C103.893 62.2227 103.899 62.1986 103.903 62.1738L103.911 62.1239L103.911 62.1211C103.912 62.1151 103.912 62.1096 103.912 62.1036C103.915 62.0736 103.917 62.0436 103.92 62.0137C103.923 61.9768 103.929 61.9406 103.929 61.9034C103.93 61.885 103.932 61.8665 103.933 61.8481C103.936 61.819 103.933 61.7905 103.933 61.7612C103.933 61.7149 103.934 61.6722 103.933 61.6276C103.935 61.611 103.932 61.5945 103.931 61.5777C103.929 61.5451 103.924 61.5131 103.922 61.4813C103.918 61.4369 103.914 61.3925 103.907 61.3483C103.905 61.3347 103.904 61.3216 103.902 61.3084C103.897 61.2741 103.889 61.2405 103.882 61.2061C103.874 61.1617 103.864 61.1174 103.854 61.0728C103.851 61.0629 103.85 61.053 103.847 61.0431L103.845 61.0317L103.839 61.0123L103.333 59.064C105.57 58.584 107.123 58.8153 107.632 59.4268C107.661 59.4633 107.687 59.5016 107.711 59.5414C107.722 59.5608 107.735 59.579 107.746 59.598C108.68 61.3076 106.616 67.3586 99.0913 73.5019C95.6454 76.3152 91.7986 78.4297 88.5367 79.3036C85.7934 80.0391 84.0417 79.7359 83.5221 79.1097C82.9679 78.4425 83.0975 76.7113 84.195 74.4056L86.2403 75.3858C86.5543 75.5374 86.8938 75.6304 87.2416 75.6599C87.25 75.6606 87.2589 75.6613 87.2677 75.662C87.3542 75.669 87.4424 75.6716 87.5311 75.6695C87.563 75.6688 87.597 75.6651 87.6293 75.664C87.6465 75.6654 87.6636 75.6626 87.6806 75.6612C93.7154 75.4256 102.87 68.7213 103.888 62.2469ZM83.8875 6.44832L93.3437 42.8487L80.5461 20.9344L75.7922 8.12298L83.8875 6.44832ZM74.7155 22.0194L98.1496 62.1491C97.728 63.1425 97.1335 64.0544 96.3933 64.8432L65.1701 29.8112L74.7155 22.0194ZM46.1363 36.6774L57.0189 22.5811L60.1527 26.711L59.3725 27.3485C59.0826 27.5852 58.8438 27.8775 58.6703 28.2079C58.4968 28.5384 58.3922 28.9002 58.3628 29.2717C58.3333 29.6433 58.3796 30.017 58.4989 30.3707C58.6182 30.7243 58.808 31.0506 59.0571 31.33L76.5911 51.0007L64.0703 42.2197C63.7549 41.9985 63.3969 41.8443 63.0187 41.7669C62.6406 41.6894 62.2505 41.6903 61.8729 41.7696C61.4954 41.8489 61.1385 42.0048 60.8248 42.2276C60.5112 42.4503 60.2474 42.7351 60.0501 43.0639L58.8977 44.9859L46.1363 36.6774ZM58.7757 56.0604L63.3164 48.4887L91.8869 68.5242C90.7003 69.2762 89.3803 69.7979 87.9971 70.0619L84.3079 68.2939L84.3042 68.2936L58.7757 56.0604ZM81.5545 105.678C82.2851 105.805 83.0275 105.903 83.778 105.964C90.7319 106.53 98.4486 104.285 103.76 99.7648C104.038 99.5276 104.267 99.2382 104.433 98.913C104.599 98.5879 104.699 98.2334 104.727 97.8699C104.754 97.5064 104.71 97.1409 104.595 96.7943C104.481 96.4477 104.298 96.1268 104.059 95.85C103.819 95.5731 103.527 95.3456 103.199 95.1806C102.871 95.0156 102.514 94.9163 102.147 94.8882C101.78 94.8602 101.412 94.904 101.063 95.0173C100.714 95.1305 100.39 95.3109 100.111 95.5481C94.9926 99.9035 86.7784 101.613 80.6621 99.7785C80.5361 95.9 80.9577 92.0238 81.9144 88.2626C82.2698 87.156 82.6837 86.0689 83.1543 85.0056C83.6574 85.1269 84.1692 85.2089 84.6851 85.2509C86.4796 85.3594 88.2791 85.1612 90.0051 84.6651C94.0652 83.5772 98.5573 81.1364 102.655 77.7916C109.691 72.0472 113.693 65.2872 113.51 60.2248C114.665 59.9646 115.833 59.7623 117.009 59.6185C125.792 59.2389 137.033 60.9226 143.229 70.3696C139.854 79.1066 134.548 85.0633 126.159 89.5584C125.506 89.9081 125.021 90.501 124.809 91.2065C124.597 91.912 124.677 92.6724 125.03 93.3204C125.384 93.9684 125.982 94.4509 126.694 94.6618C127.405 94.8727 128.172 94.7947 128.825 94.4449C137.007 90.0607 142.64 84.4737 146.527 76.755L181.883 149.953C181.186 152.902 178.524 155.567 176.32 157.024C175.909 157.296 175.578 157.672 175.362 158.114L131.304 130.209C134.74 128.316 137.901 125.968 140.697 123.228C140.958 122.971 141.165 122.666 141.306 122.33C141.448 121.993 141.521 121.633 141.522 121.268C141.523 120.903 141.451 120.542 141.311 120.204C141.172 119.867 140.966 119.56 140.707 119.301C140.447 119.042 140.139 118.836 139.8 118.696C139.461 118.555 139.097 118.482 138.729 118.48C138.362 118.479 137.997 118.549 137.657 118.688C137.317 118.826 137.008 119.029 136.747 119.286C133.578 122.389 129.882 124.912 125.828 126.741L112.697 118.425C111.954 117.933 111.198 117.484 110.432 117.069C110.316 116.997 110.196 116.934 110.071 116.879C103.079 113.22 95.2144 112.742 87.0638 115.4C84.4034 112.691 82.5035 109.339 81.5531 105.678L81.5545 105.678ZM63.8312 137.914C64.0025 138.979 63.9836 140.066 63.7756 141.124L18.6303 127.71L22.5795 116.087L63.8312 137.914ZM16.0941 103.713L22.0712 98.0491L49.4763 124.031L26.9488 112.112L16.0941 103.713ZM24.3031 138.835C23.9178 138.812 23.532 138.869 23.17 139.001C22.808 139.133 22.4776 139.339 22.1996 139.604C21.9215 139.869 21.7018 140.188 21.5543 140.542C21.4067 140.895 21.3345 141.275 21.3422 141.658L21.3877 143.895L6.13548 143.517L7.86271 125.836L12.7191 127.704L12.3962 128.652C12.2761 129.006 12.2291 129.379 12.2578 129.751C12.2865 130.123 12.3904 130.485 12.5633 130.816C12.7362 131.148 12.9745 131.441 13.2641 131.679C13.5537 131.917 13.8886 132.095 14.2488 132.202L39.6026 139.736L24.3031 138.835ZM27.1814 153.368L27.002 144.554L61.9129 146.615C61.3064 147.876 60.4643 149.01 59.4311 149.959L27.1814 153.368ZM60.4541 159.991C59.6285 159.714 58.8161 158.174 58.5201 155.64L60.7905 155.4C60.9047 155.387 61.0179 155.368 61.1296 155.341C61.1586 155.335 61.1874 155.326 61.2156 155.319C61.4917 155.246 61.7547 155.131 61.9954 154.979C62.0043 154.974 62.0139 154.971 62.0224 154.965C62.0308 154.959 62.0403 154.952 62.0496 154.946C62.0739 154.93 62.0991 154.913 62.1216 154.896C67.1252 151.554 71.3397 141.036 68.7521 134.99C68.7432 134.967 68.7357 134.944 68.7262 134.922C68.7168 134.9 68.7126 134.889 68.7049 134.874L68.7022 134.867C68.687 134.835 68.6695 134.803 68.6534 134.771C68.6373 134.739 68.6246 134.71 68.6083 134.68L68.5802 134.629C68.5675 134.606 68.5524 134.586 68.5387 134.564L68.5313 134.551C68.5085 134.515 68.4871 134.479 68.4633 134.443C68.4532 134.429 68.4437 134.414 68.4331 134.4C68.4147 134.374 68.3946 134.35 68.3752 134.324C68.3481 134.289 68.322 134.253 68.2929 134.22C68.2839 134.209 68.275 134.197 68.2656 134.187C68.2429 134.16 68.2182 134.136 68.195 134.111C68.164 134.078 68.1334 134.045 68.1009 134.014C68.0926 134.006 68.0863 133.998 68.0784 133.99L68.0685 133.98L68.0571 133.97L66.5888 132.578C68.2306 130.998 69.6697 130.379 70.4292 130.634C70.4716 130.651 70.513 130.669 70.5529 130.691C70.5744 130.703 70.5979 130.713 70.619 130.724C72.319 131.691 73.789 137.913 70.6775 147.07C67.4495 156.566 62.2231 160.587 60.4541 159.991ZM225.224 198.911C225.037 199.518 224.649 200.044 224.124 200.406C223.598 200.767 222.965 200.943 222.326 200.903L194.928 198.619C196.047 196.902 196.841 194.996 197.27 192.996C197.435 192.278 197.306 191.524 196.911 190.9C196.516 190.276 195.887 189.833 195.163 189.669C194.439 189.504 193.68 189.632 193.051 190.023C192.423 190.414 191.977 191.037 191.812 191.755C191.132 194.712 189.837 196.672 187.659 198.012L87.0589 189.621C87.0365 189.619 87.0198 189.617 87.0007 189.616C81.7392 189.344 76.7479 187.21 72.9331 183.601C79.9772 180.791 86.2964 174.281 88.6234 166.942C88.8425 166.24 88.7725 165.481 88.4287 164.831C88.085 164.18 87.4954 163.69 86.7891 163.469C86.0828 163.248 85.3174 163.313 84.6603 163.651C84.0032 163.988 83.508 164.57 83.2831 165.27C81.2596 171.651 75.2013 177.41 69.0337 179.054C66.8594 175.825 65.1516 172.31 63.9603 168.611C63.6702 167.474 63.4411 166.323 63.2738 165.162C68.1121 163.541 73.0666 157.425 75.9812 148.848C78.8922 140.279 78.6881 132.438 75.8376 128.231C76.6792 127.405 77.5622 126.621 78.4832 125.883C85.7344 120.959 96.1682 116.5 106.454 121.283C108.243 130.476 106.914 138.318 102.189 146.534C102.004 146.85 101.884 147.2 101.836 147.563C101.788 147.927 101.812 148.296 101.909 148.649C102.005 149.003 102.171 149.335 102.397 149.625C102.623 149.915 102.904 150.158 103.225 150.339C103.546 150.521 103.9 150.638 104.266 150.684C104.632 150.73 105.004 150.703 105.36 150.605C105.716 150.508 106.049 150.341 106.339 150.116C106.63 149.89 106.872 149.609 107.053 149.29C111.661 141.277 113.466 133.579 112.652 124.982L181.629 168.666C182.609 171.537 181.77 175.197 180.675 177.591C180.518 177.923 180.429 178.283 180.413 178.65C180.398 179.018 180.456 179.384 180.584 179.729C180.712 180.074 180.908 180.39 181.161 180.66C181.413 180.929 181.717 181.146 182.054 181.298C182.391 181.451 182.756 181.535 183.126 181.546C183.496 181.558 183.865 181.496 184.211 181.366C184.557 181.235 184.873 181.037 185.141 180.784C185.409 180.53 185.624 180.227 185.773 179.89C186.838 177.546 187.463 175.028 187.62 172.46L224.133 195.586C224.665 195.939 225.061 196.459 225.259 197.062C225.456 197.665 225.444 198.316 225.224 198.911Z" fill="#90B8D8"/>
</svg>
