<svg width="208" height="182" viewBox="0 0 208 182" fill="none" xmlns="http://www.w3.org/2000/svg">
<path d="M197.221 80.4634C198.411 79.9036 199.816 80.4294 200.378 81.6238C200.94 82.8181 200.429 84.2452 199.259 84.7955L10.7674 173.452C9.57727 174.012 8.17214 173.486 7.61037 172.292C7.0486 171.098 7.55984 169.671 8.72985 169.12L197.221 80.4634ZM195.107 75.9694L6.61607 164.626C2.96486 166.344 1.40869 170.734 3.13209 174.398C4.85548 178.062 9.23001 179.664 12.8812 177.946L201.352 89.2991C205.004 87.5817 206.56 83.1909 204.836 79.5269C203.133 75.8533 198.759 74.252 195.107 75.9694Z" fill="#90B8D8"/>
<path d="M185.104 60.7728L192.692 76.9069L143.371 100.105L136.334 85.1454C135.399 85.4616 134.526 85.6994 133.905 85.7937C132.923 85.9587 132.093 86.0277 131.294 86.0574L138.883 102.191C140.054 104.681 142.994 105.746 145.475 104.579L194.777 81.3901C197.258 80.2231 198.312 77.2797 197.141 74.7897L187.62 54.5463C187.534 54.3641 187.408 54.2009 187.302 54.0282C187.929 55.8843 187.632 57.9769 185.104 60.7728Z" fill="#90B8D8"/>
<path d="M151.812 94.7504C151.187 95.0445 150.445 94.7756 150.149 94.1481L146.979 87.407C146.684 86.7795 146.95 86.0362 147.575 85.7421C148.201 85.4479 148.943 85.7168 149.238 86.3444L152.409 93.0854C152.684 93.7224 152.417 94.4657 151.812 94.7504ZM168.083 85.7132L163.855 76.7251C163.56 76.0975 162.818 75.8286 162.192 76.1228C161.567 76.4169 161.301 77.1602 161.596 77.7878L165.823 86.7758C166.119 87.4034 166.861 87.6723 167.486 87.3781C168.112 87.084 168.378 86.3407 168.083 85.7132ZM183.777 78.3314L180.606 71.5904C180.311 70.9628 179.569 70.6939 178.943 70.9881C178.318 71.2822 178.052 72.0255 178.347 72.653L181.518 79.3941C181.813 80.0216 182.555 80.2905 183.18 79.9964C183.806 79.7023 184.072 78.959 183.777 78.3314Z" fill="#90B8D8"/>
<path d="M176.153 68.1967C173.712 69.3448 171.012 70.4663 168.282 71.627C165.602 72.739 162.852 73.9091 160.33 75.0952C157.829 76.2717 155.163 77.674 152.588 79.0087C146.317 82.2796 140.389 85.3892 135.673 86.0994C129.304 87.0676 125.585 85.603 123.595 81.3722C121.605 77.1413 122.849 73.3426 127.656 69.0544C129.734 67.1871 132.06 66.2661 134.749 65.1744C138.747 63.5659 143.741 61.5626 150.17 55.2755C160.874 45.7168 167.295 45.96 172.46 46.1513C173.966 46.2095 175.242 46.252 176.504 46.054C182.872 45.0858 186.591 46.5504 188.581 50.7813C190.571 55.0121 189.328 58.8108 184.521 63.099C182.463 64.9568 179.542 66.6027 176.153 68.1967ZM158.227 70.5714C160.829 69.3474 163.63 68.1785 166.34 67.0273C172.224 64.5566 178.319 62.0113 181.323 59.3374C185.559 55.5648 184.779 53.9049 184.274 52.832C183.76 51.7388 182.989 50.0991 177.381 50.9567C175.679 51.2134 174.024 51.1514 172.448 51.1013C167.682 50.9202 162.746 50.7448 153.51 58.9707C146.479 65.8125 140.809 68.1086 136.661 69.7633C134.284 70.733 132.391 71.4749 130.924 72.8078C126.687 76.5804 127.468 78.2403 127.973 79.3132C128.487 80.4064 129.258 82.0461 134.866 81.1885C138.841 80.5795 144.678 77.5376 150.343 74.5513C152.918 73.2167 155.625 71.7954 158.227 70.5714Z" fill="#90B8D8"/>
<path d="M135.503 31.0011C134.878 31.2953 134.135 31.0264 133.84 30.3988C133.545 29.7713 133.811 29.028 134.437 28.7339C137.523 27.2822 138.854 23.5658 137.398 20.4685C137.102 19.841 137.369 19.0977 137.994 18.8035C138.619 18.5094 139.361 18.8283 139.646 19.4356C141.693 23.7879 139.84 28.9612 135.503 31.0011ZM126.515 11.8913C120.342 14.7947 117.67 22.2073 120.593 28.4221C123.516 34.6368 130.91 37.3149 137.103 34.402C143.275 31.4987 145.948 24.086 143.025 17.8713C140.101 11.6566 132.687 8.98798 126.515 11.8913ZM124.391 7.37705C133.066 3.29717 143.399 7.04003 147.493 15.7447C151.588 24.4494 147.881 34.7959 139.207 38.8758C130.533 42.9557 120.199 39.2129 116.105 30.5082C112.011 21.8035 115.737 11.4474 124.391 7.37705Z" fill="#90B8D8"/>
<path d="M97.5744 90.0515C94.6897 91.4083 90.6811 89.9563 89.3195 87.0615C89.0243 86.4339 89.2906 85.6907 89.916 85.3965C90.5413 85.1024 91.2836 85.3713 91.5788 85.9988C92.3501 87.6385 94.9037 88.5635 96.5377 87.795C97.163 87.5008 97.9054 87.7697 98.2006 88.3973C98.4957 89.0248 98.1998 89.7573 97.5744 90.0515ZM90.6999 75.4357C85.7576 77.7603 83.6381 83.6769 85.9709 88.6365C88.3036 93.5962 94.2127 95.7365 99.155 93.4119C104.097 91.0873 106.217 85.1707 103.884 80.2111C101.551 75.2514 95.6623 73.1017 90.6999 75.4357ZM88.5766 70.9214C96.0001 67.4298 104.869 70.6254 108.382 78.0952C111.896 85.5651 108.722 94.4251 101.278 97.9262C93.8346 101.427 84.9859 98.2222 81.4724 90.7524C77.959 83.2825 81.1531 74.4131 88.5766 70.9214Z" fill="#90B8D8"/>
<path d="M47.76 13.2124C55.1834 9.72083 64.0619 12.9367 67.5658 20.3863C71.0697 27.8358 67.8851 36.7256 60.4616 40.2172C53.0382 43.7088 44.1597 40.493 40.6558 33.0434C37.1519 25.5938 40.3365 16.7041 47.76 13.2124ZM45.6462 8.7184C35.7415 13.3771 31.5024 25.2102 36.1775 35.1497C40.8526 45.0893 52.6707 49.3699 62.5754 44.7112C72.4801 40.0526 76.7192 28.2194 72.0441 18.2799C67.369 8.34037 55.5509 4.05975 45.6462 8.7184ZM59.4478 35.1811C59.1527 34.5535 58.4103 34.2846 57.785 34.5788C53.4681 36.6092 48.2812 34.7473 46.234 30.3949C45.9389 29.7674 45.1965 29.4985 44.5712 29.7926C43.9458 30.0868 43.6795 30.8301 43.9747 31.4576C46.6026 37.0448 53.2541 39.454 58.8217 36.8353C59.4969 36.5424 59.743 35.8086 59.4478 35.1811Z" fill="#90B8D8"/>
</svg>
